<svg width="1846" height="1307" viewBox="0 0 1846 1307" fill="none" xmlns="http://www.w3.org/2000/svg">
<mask id="mask0_2117_1711" style="mask-type:alpha" maskUnits="userSpaceOnUse" x="0" y="0" width="1846" height="1307">
<rect width="1846" height="1307" fill="#D9D9D9"/>
</mask>
<g mask="url(#mask0_2117_1711)">
<g opacity="0.8">
<g style="mix-blend-mode:multiply" opacity="0.8">
<path fill-rule="evenodd" clip-rule="evenodd" d="M3602.25 2962.2C3369.26 3195.27 2991.5 3195.27 2758.5 2962.2C2692.69 2896.36 2645.47 2818.97 2616.83 2736.55C2593.2 2676.26 2575.68 2612.75 2557.48 2546.81C2507.34 2365.04 2452.08 2164.73 2249.54 1962.12C2047 1759.51 1846.75 1704.23 1665.05 1654.08C1628.03 1643.86 1591.77 1633.85 1556.43 1622.85C1446.97 1599.85 1342.73 1545.85 1257.75 1460.84C1024.75 1227.76 1024.75 849.877 1257.75 616.804C1490.74 383.732 1868.5 383.732 2101.5 616.804C2186.6 701.939 2240.62 806.395 2263.55 916.057C2274.52 951.351 2284.51 987.549 2294.71 1024.51C2344.85 1206.28 2400.11 1406.59 2602.65 1609.2C2805.19 1811.81 3005.44 1867.09 3187.14 1917.24C3252.1 1935.18 3314.7 1952.46 3374.19 1975.58C3457.51 2004.14 3535.77 2051.66 3602.25 2118.16C3835.25 2351.24 3835.25 2729.12 3602.25 2962.2Z" fill="url(#paint0_linear_2117_1711)"/>
</g>
<g style="mix-blend-mode:multiply" opacity="0.8">
<path fill-rule="evenodd" clip-rule="evenodd" d="M1943.48 2505.42C1773.44 2675.53 1497.77 2675.53 1327.73 2505.42C1279.7 2457.36 1245.24 2400.88 1224.34 2340.72C1207.1 2296.72 1194.31 2250.37 1181.03 2202.23C1144.44 2069.57 1104.11 1923.37 956.308 1775.49C808.501 1627.61 662.365 1587.27 529.765 1550.66C502.746 1543.2 476.288 1535.89 450.494 1527.87C370.618 1511.08 294.544 1471.67 232.525 1409.62C62.4918 1239.5 62.4918 963.697 232.525 793.584C402.557 623.472 678.235 623.472 848.267 793.584C910.375 855.722 949.797 931.961 966.532 1012C974.538 1037.76 981.825 1064.18 989.267 1091.16C1025.86 1223.82 1066.19 1370.03 1213.99 1517.9C1361.8 1665.78 1507.94 1706.13 1640.54 1742.74C1687.95 1755.83 1733.63 1768.44 1777.04 1785.32C1837.85 1806.16 1894.96 1840.85 1943.48 1889.38C2113.51 2059.5 2113.51 2335.3 1943.48 2505.42Z" fill="url(#paint1_linear_2117_1711)"/>
</g>
<g style="mix-blend-mode:multiply" opacity="0.8">
<path fill-rule="evenodd" clip-rule="evenodd" d="M52.6435 623.701C300.168 376.1 701.485 376.1 949.01 623.701C1018.93 693.643 1069.1 775.86 1099.52 863.417C1124.63 927.461 1143.24 994.926 1162.57 1064.99C1215.83 1258.08 1274.54 1470.88 1489.71 1686.12C1704.88 1901.36 1917.62 1960.08 2110.65 2013.37C2149.98 2024.22 2188.5 2034.86 2226.05 2046.54C2342.33 2070.97 2453.07 2128.34 2543.36 2218.65C2790.88 2466.25 2790.88 2867.7 2543.36 3115.3C2295.83 3362.9 1894.52 3362.9 1646.99 3115.3C1556.58 3024.86 1499.19 2913.89 1474.83 2797.39C1463.17 2759.9 1452.56 2721.44 1441.73 2682.17C1388.46 2489.08 1329.75 2276.28 1114.58 2061.04C899.416 1845.8 686.678 1787.08 493.646 1733.79C424.629 1714.74 358.124 1696.38 294.935 1671.82C206.414 1641.48 123.269 1590.99 52.6435 1520.35C-194.881 1272.75 -194.881 871.303 52.6435 623.701Z" fill="url(#paint2_linear_2117_1711)"/>
</g>
<path fill-rule="evenodd" clip-rule="evenodd" d="M2109.48 603.585C1939.44 433.472 1663.77 433.472 1493.73 603.585C1445.7 651.637 1411.24 708.124 1390.34 768.279C1373.1 812.28 1360.31 858.632 1347.03 906.766C1310.44 1039.43 1270.11 1185.63 1122.31 1333.51C974.501 1481.39 828.365 1521.73 695.765 1558.34C668.746 1565.8 642.288 1573.11 616.494 1581.13C536.618 1597.92 460.544 1637.33 398.525 1699.38C228.492 1869.5 228.492 2145.3 398.525 2315.42C568.557 2485.53 844.235 2485.53 1014.27 2315.42C1076.38 2253.28 1115.8 2177.04 1132.53 2097C1140.54 2071.24 1147.83 2044.82 1155.27 2017.84C1191.86 1885.18 1232.19 1738.97 1379.99 1591.1C1527.8 1443.22 1673.94 1402.87 1806.54 1366.26C1853.95 1353.17 1899.63 1340.56 1943.04 1323.68C2003.85 1302.84 2060.96 1268.15 2109.48 1219.62C2279.51 1049.5 2279.51 773.697 2109.48 603.585Z" fill="url(#paint3_linear_2117_1711)"/>
<g style="mix-blend-mode:multiply" opacity="0.8">
<path fill-rule="evenodd" clip-rule="evenodd" d="M-1009.25 3116.2C-776.259 3349.27 -398.499 3349.27 -165.505 3116.2C-99.6892 3050.36 -52.4651 2972.97 -23.8322 2890.55C-0.196696 2830.26 17.3226 2766.75 35.5156 2700.81C85.6577 2519.04 140.918 2318.73 343.457 2116.12C545.996 1913.51 746.246 1858.23 927.947 1808.08C964.971 1797.86 1001.23 1787.85 1036.57 1776.85C1146.03 1753.85 1250.27 1699.85 1335.25 1614.84C1568.25 1381.76 1568.25 1003.88 1335.25 770.804C1102.26 537.732 724.5 537.732 491.505 770.804C406.399 855.939 352.379 960.395 329.446 1070.06C318.476 1105.35 308.491 1141.55 298.293 1178.51C248.151 1360.28 192.89 1560.59 -9.64851 1763.2C-212.187 1965.81 -412.437 2021.09 -594.139 2071.24C-659.104 2089.18 -721.705 2106.46 -781.185 2129.58C-864.51 2158.14 -942.774 2205.66 -1009.25 2272.16C-1242.25 2505.24 -1242.25 2883.12 -1009.25 3116.2Z" fill="url(#paint4_linear_2117_1711)"/>
</g>
</g>
</g>
<defs>
<linearGradient id="paint0_linear_2117_1711" x1="2430" y1="3137" x2="2430" y2="442" gradientUnits="userSpaceOnUse">
<stop stop-color="#D3D9F8"/>
<stop offset="1" stop-color="#D3D9F8" stop-opacity="0"/>
</linearGradient>
<linearGradient id="paint1_linear_2117_1711" x1="1088" y1="2633" x2="1088" y2="666" gradientUnits="userSpaceOnUse">
<stop stop-color="#D3D9F8"/>
<stop offset="1" stop-color="#D3D9F8" stop-opacity="0"/>
</linearGradient>
<linearGradient id="paint2_linear_2117_1711" x1="1298" y1="438" x2="1298" y2="3301" gradientUnits="userSpaceOnUse">
<stop stop-color="#D3D9F8"/>
<stop offset="1" stop-color="#D3D9F8" stop-opacity="0"/>
</linearGradient>
<linearGradient id="paint3_linear_2117_1711" x1="521" y1="2376.5" x2="1826.5" y2="659.5" gradientUnits="userSpaceOnUse">
<stop stop-color="#D3D9F8"/>
<stop offset="1" stop-color="#D3D9F8" stop-opacity="0"/>
</linearGradient>
<linearGradient id="paint4_linear_2117_1711" x1="163" y1="3291" x2="163" y2="596" gradientUnits="userSpaceOnUse">
<stop stop-color="#D3D9F8"/>
<stop offset="1" stop-color="#D3D9F8" stop-opacity="0"/>
</linearGradient>
</defs>
</svg>
