<svg width="37" height="24" viewBox="0 0 37 24" fill="none" xmlns="http://www.w3.org/2000/svg">
<path fill-rule="evenodd" clip-rule="evenodd" d="M14.4041 21.569C12.4033 19.5742 12.4033 16.3399 14.4041 14.3451C14.9693 13.7816 15.6336 13.3773 16.3411 13.1322C16.8587 12.9298 17.4038 12.7798 17.97 12.624C19.5303 12.1947 21.2499 11.7216 22.9891 9.98755C24.7284 8.25348 25.2029 6.53901 25.6335 4.98334C25.7212 4.66635 25.8071 4.35596 25.9015 4.05334C26.0989 3.11623 26.5625 2.22373 27.2923 1.49612C29.2931 -0.498706 32.537 -0.498706 34.5378 1.49612C36.5386 3.49094 36.5386 6.72519 34.5378 8.72002C33.807 9.44867 32.9103 9.91116 31.9689 10.1075C31.6659 10.2014 31.3552 10.2869 31.0379 10.3742C29.4775 10.8035 27.758 11.2767 26.0187 13.0107C24.2795 14.7448 23.8049 16.4593 23.3743 18.0149C23.2204 18.5711 23.072 19.1071 22.8735 19.6164C22.6284 20.3298 22.2204 20.9998 21.6496 21.569C19.6488 23.5638 16.4049 23.5638 14.4041 21.569Z" fill="#4579DD"/>
<path fill-rule="evenodd" clip-rule="evenodd" d="M21.569 21.7709C19.5742 23.7717 16.3399 23.7717 14.3451 21.7709C13.7816 21.2057 13.3773 20.5414 13.1322 19.8338C12.9298 19.3163 12.7798 18.7712 12.624 18.205C12.1947 16.6447 11.7216 14.9251 9.98755 13.1859C8.25348 11.4466 6.53901 10.9721 4.98334 10.5415C4.66635 10.4538 4.35596 10.3679 4.05334 10.2735C3.11623 10.076 2.22373 9.61245 1.49612 8.88267C-0.498706 6.88189 -0.498706 3.63798 1.49612 1.63719C3.49094 -0.363587 6.72519 -0.363587 8.72002 1.63719C9.44867 2.36802 9.91116 3.26471 10.1075 4.20609C10.2014 4.50906 10.2869 4.8198 10.3742 5.13713C10.8035 6.69744 11.2767 8.41703 13.0107 10.1563C14.7448 11.8955 16.4593 12.3701 18.0149 12.8006C18.5711 12.9546 19.1071 13.1029 19.6164 13.3015C20.3298 13.5466 20.9998 13.9546 21.569 14.5254C23.5638 16.5262 23.5638 19.7701 21.569 21.7709Z" fill="#385494"/>
</svg>
