<svg width="34" height="50" viewBox="0 0 34 50" fill="none" xmlns="http://www.w3.org/2000/svg">
<path fill-rule="evenodd" clip-rule="evenodd" d="M5.11958 20.7031C2.2879 20.6989 -0.00421603 22.991 5.82282e-06 25.8227C0.00119915 26.6226 0.185494 27.38 0.513178 28.0551C0.736533 28.5653 1.01659 29.0579 1.30741 29.5696C2.10896 30.9796 2.99233 32.5336 2.996 34.9951C2.99967 37.4566 2.12093 39.008 1.32359 40.4156C1.16112 40.7025 1.00202 40.9833 0.854467 41.2647C0.330243 42.0688 0.0262761 43.0298 0.027816 44.0627C0.032038 46.8944 2.331 49.1933 5.16269 49.1975C7.99437 49.2018 10.2865 46.9096 10.2823 44.078C10.2807 43.0436 9.97301 42.0804 9.445 41.2741C9.29684 40.9928 9.13721 40.712 8.9742 40.4252C8.17265 39.0152 7.28928 37.4612 7.28561 34.9997C7.28194 32.5381 8.16068 30.9868 8.95803 29.5791C9.24311 29.0758 9.51782 28.5909 9.73804 28.0893C10.0699 27.41 10.2557 26.6459 10.2545 25.838C10.2502 23.0063 7.95127 20.7074 5.11958 20.7031Z" fill="#385494"/>
<path fill-rule="evenodd" clip-rule="evenodd" d="M16.954 10.0562C14.1223 10.0519 11.8302 12.344 11.8344 15.1757C11.8356 15.9756 12.0199 16.733 12.3476 17.4081C12.5709 17.9183 12.851 18.411 13.1418 18.9226C13.9434 20.3326 14.8267 21.8866 14.8304 24.3481C14.8341 26.8097 13.9553 28.361 13.158 29.7687C12.9955 30.0555 12.8364 30.3364 12.6889 30.6177C12.1647 31.4218 11.8607 32.3828 11.8622 33.4157C11.8664 36.2474 14.1654 38.5463 16.9971 38.5506C19.8288 38.5548 22.1209 36.2627 22.1167 33.431C22.1151 32.3967 21.8074 31.4334 21.2794 30.6271C21.1313 30.3458 20.9716 30.065 20.8086 29.7782C20.0071 28.3682 19.1237 26.8142 19.12 24.3527C19.1163 21.8912 19.9951 20.3398 20.7924 18.9321C21.0775 18.4289 21.3522 17.9439 21.5724 17.4423C21.9043 16.763 22.0901 15.999 22.0889 15.191C22.0846 12.3593 19.7857 10.0604 16.954 10.0562Z" fill="#4579DD"/>
<path fill-rule="evenodd" clip-rule="evenodd" d="M28.7747 5.82282e-06C25.943 -0.00421603 23.6509 2.2879 23.6551 5.11958C23.6563 5.91946 23.8406 6.67684 24.1683 7.35199C24.3916 7.86217 24.6717 8.35482 24.9625 8.86643C25.7641 10.2765 26.6474 11.8304 26.6511 14.292C26.6548 16.7535 25.776 18.3049 24.9787 19.7125C24.8162 19.9994 24.6571 20.2802 24.5096 20.5616C23.9853 21.3656 23.6814 22.3267 23.6829 23.3595C23.6871 26.1912 25.9861 28.4902 28.8178 28.4944C31.6495 28.4986 33.9416 26.2065 33.9374 23.3748C33.9358 22.3405 33.6281 21.3772 33.1001 20.5709C32.9519 20.2897 32.7923 20.0089 32.6293 19.7221C31.8277 18.3121 30.9444 16.7581 30.9407 14.2965C30.937 11.835 31.8158 10.2836 32.6131 8.87599C32.8982 8.3727 33.1729 7.88773 33.3931 7.38614C33.725 6.70685 33.9107 5.94282 33.9095 5.13487C33.9053 2.30318 31.6064 0.00422791 28.7747 5.82282e-06Z" fill="#385494"/>
</svg>
