<svg width="121" height="28" viewBox="0 0 121 28" fill="none" xmlns="http://www.w3.org/2000/svg">
<path d="M7.14218 23.5084C6.91748 23.5084 6.80514 23.3961 6.80514 23.1714V5.20979C6.80514 5.07499 6.73773 5.00759 6.60291 5.00759H0.805792C0.581097 5.00759 0.46875 4.89527 0.46875 4.67061V0.930008C0.46875 0.705348 0.581097 0.593018 0.805792 0.593018H17.759C17.9837 0.593018 18.096 0.705348 18.096 0.930008V4.67061C18.096 4.89527 17.9837 5.00759 17.759 5.00759H11.9619C11.8271 5.00759 11.7597 5.07499 11.7597 5.20979V23.1714C11.7597 23.3961 11.6473 23.5084 11.4226 23.5084H7.14218Z" fill="black"/>
<path d="M29.2063 23.8791C27.9255 23.8791 26.7459 23.6881 25.6674 23.3062C24.5888 22.9243 23.6564 22.3626 22.8699 21.6212C22.106 20.8799 21.4993 19.9587 21.0499 18.8579C20.623 17.7571 20.4095 16.499 20.4095 15.0836V0.930008C20.4095 0.705348 20.5219 0.593018 20.7466 0.593018H25.027C25.2517 0.593018 25.364 0.705348 25.364 0.930008V15.2184C25.364 16.5888 25.7123 17.6447 26.4089 18.3861C27.1054 19.1275 28.0379 19.4982 29.2063 19.4982C30.3522 19.4982 31.2735 19.1275 31.9701 18.3861C32.6666 17.6447 33.0149 16.5888 33.0149 15.2184V0.930008C33.0149 0.705348 33.1272 0.593018 33.3519 0.593018H37.6324C37.857 0.593018 37.9694 0.705348 37.9694 0.930008V15.0836C37.9694 16.499 37.7447 17.7571 37.2953 18.8579C36.8684 19.9587 36.2617 20.8799 35.4753 21.6212C34.7113 22.3626 33.7901 22.9243 32.7115 23.3062C31.6555 23.6881 30.4871 23.8791 29.2063 23.8791Z" fill="black"/>
<path d="M51.0982 10.5679C52.0419 10.5679 52.7947 10.3096 53.3564 9.79286C53.9182 9.27614 54.199 8.5797 54.199 7.70352C54.199 6.84981 53.9182 6.1646 53.3564 5.64788C52.7947 5.13116 52.0419 4.8728 51.0982 4.8728H47.0537C46.9189 4.8728 46.8515 4.9402 46.8515 5.07499V10.3657C46.8515 10.5005 46.9189 10.5679 47.0537 10.5679H51.0982ZM54.5698 23.5084C54.3226 23.5084 54.1541 23.3961 54.0642 23.1714L50.1208 14.7803H47.0537C46.9189 14.7803 46.8515 14.8477 46.8515 14.9825V23.1714C46.8515 23.3961 46.7392 23.5084 46.5145 23.5084H42.234C42.0093 23.5084 41.897 23.3961 41.897 23.1714V0.930008C41.897 0.705348 42.0093 0.593018 42.234 0.593018H51.3679C52.5363 0.593018 53.5923 0.772746 54.5361 1.1322C55.5022 1.46919 56.3224 1.95221 56.9965 2.58126C57.693 3.21031 58.2211 3.96292 58.5806 4.8391C58.9625 5.71527 59.1535 6.67008 59.1535 7.70352C59.1535 9.18628 58.794 10.4781 58.075 11.5789C57.356 12.6798 56.3561 13.511 55.0753 14.0726L59.5917 23.104C59.6366 23.2163 59.6366 23.3174 59.5917 23.4073C59.5467 23.4747 59.4681 23.5084 59.3558 23.5084H54.5698Z" fill="black"/>
<path d="M62.5922 0.930008C62.5922 0.705348 62.7045 0.593018 62.9292 0.593018H66.9737C67.2209 0.593018 67.4119 0.705348 67.5467 0.930008L75.6357 15.3532H75.8042V0.930008C75.8042 0.705348 75.9165 0.593018 76.1412 0.593018H79.9498C80.1745 0.593018 80.2868 0.705348 80.2868 0.930008V23.1714C80.2868 23.3961 80.1745 23.5084 79.9498 23.5084H75.939C75.6918 23.5084 75.5009 23.3961 75.366 23.1714L67.2433 8.78189H67.0748V23.1714C67.0748 23.3961 66.9625 23.5084 66.7378 23.5084H62.9292C62.7045 23.5084 62.5922 23.3961 62.5922 23.1714V0.930008Z" fill="black"/>
<path d="M84.3406 23.8325C84.3406 23.6527 84.3967 23.4955 84.5091 23.3607L92.5644 13.7901C93.0138 13.2734 93.3508 12.7679 93.5755 12.2737C93.8002 11.757 93.9126 11.2065 93.9126 10.6224C93.9126 9.85858 93.6879 9.22953 93.2385 8.73528C92.8115 8.24103 92.2049 7.9939 91.4184 7.9939C89.8231 7.9939 88.9243 8.89254 88.7221 10.6898C88.7221 10.9145 88.5985 11.0044 88.3514 10.9594L84.6439 10.3528C84.4192 10.3079 84.3293 10.1731 84.3743 9.94845C84.4417 9.16214 84.6439 8.40952 84.9809 7.69061C85.318 6.9717 85.7898 6.34265 86.3965 5.80346C87.0257 5.26428 87.7672 4.83742 88.621 4.5229C89.4973 4.18591 90.486 4.01741 91.587 4.01741C92.688 4.01741 93.6654 4.18591 94.5192 4.5229C95.3955 4.85989 96.137 5.32044 96.7437 5.90456C97.3504 6.48868 97.811 7.18512 98.1256 7.9939C98.4626 8.78021 98.6311 9.63392 98.6311 10.555C98.6311 11.6559 98.4177 12.6556 97.9908 13.5542C97.5863 14.4304 97.0246 15.2841 96.3055 16.1154L90.2725 23.2259V23.2933H98.2941C98.5188 23.2933 98.6311 23.4056 98.6311 23.6303V26.9665C98.6311 27.1911 98.5188 27.3035 98.2941 27.3035H84.6776C84.4529 27.3035 84.3406 27.1911 84.3406 26.9665V23.8325Z" fill="black"/>
<path d="M115.539 23.5084C115.292 23.5084 115.101 23.3961 114.967 23.1714L110.888 16.1957H110.787L106.675 23.1714C106.54 23.3961 106.349 23.5084 106.102 23.5084H101.451C101.339 23.5084 101.26 23.4747 101.215 23.4073C101.17 23.3174 101.181 23.2163 101.249 23.104L108.091 11.68L101.721 0.997405C101.676 0.885075 101.665 0.795211 101.687 0.727812C101.732 0.637949 101.811 0.593018 101.923 0.593018H106.608C106.833 0.593018 107.012 0.705348 107.147 0.930008L110.787 7.13064H110.888L114.528 0.930008C114.663 0.705348 114.843 0.593018 115.068 0.593018H119.752C119.865 0.593018 119.932 0.637949 119.955 0.727812C120 0.795211 120 0.885075 119.955 0.997405L113.551 11.68L120.427 23.104C120.472 23.2163 120.472 23.3174 120.427 23.4073C120.404 23.4747 120.337 23.5084 120.224 23.5084H115.539Z" fill="black"/>
</svg>
