<svg width="33" height="33" viewBox="0 0 33 33" fill="none" xmlns="http://www.w3.org/2000/svg">
<path fill-rule="evenodd" clip-rule="evenodd" d="M2.1417 2.14046C-0.71225 4.99441 -0.71225 9.62158 2.1417 12.4755C2.96099 13.2948 3.9264 13.8789 4.95405 14.2278C5.67752 14.5077 6.43847 14.7177 7.228 14.9355L7.22802 14.9355L7.22809 14.9356L7.22811 14.9356C9.45377 15.5498 11.9066 16.2266 14.3875 18.7075C16.8684 21.1884 17.5453 23.6413 18.1595 25.8669L18.1595 25.8671C18.2829 26.3142 18.4038 26.7521 18.5362 27.1793C18.8153 28.5277 19.478 29.8126 20.5245 30.859C23.3784 33.713 28.0056 33.713 30.8595 30.859C33.7135 28.0051 33.7135 23.3779 30.8595 20.524C29.8165 19.481 28.5367 18.8191 27.1932 18.5385C26.7617 18.4044 26.3191 18.2822 25.8672 18.1575C23.6415 17.5433 21.1887 16.8664 18.7078 14.3855C16.2269 11.9046 15.55 9.45179 14.9358 7.22613C14.7195 6.44234 14.511 5.68673 14.2342 4.968C13.8859 3.93467 13.3001 2.96378 12.4768 2.14046C9.62282 -0.713488 4.99565 -0.713488 2.1417 2.14046Z" fill="#4579DD"/>
</svg>
