<svg width="169" height="43" viewBox="0 0 169 43" fill="none" xmlns="http://www.w3.org/2000/svg">
<mask id="path-1-outside-1_1377_1208" maskUnits="userSpaceOnUse" x="46.4688" y="4.59235" width="122" height="29" fill="black">
<rect fill="white" x="46.4688" y="4.59235" width="122" height="29"/>
<path d="M54.1422 28.5077C53.9175 28.5077 53.8051 28.3954 53.8051 28.1707V10.2091C53.8051 10.0743 53.7377 10.0069 53.6029 10.0069H47.8058C47.5811 10.0069 47.4688 9.89459 47.4688 9.66993V5.92934C47.4688 5.70468 47.5811 5.59235 47.8058 5.59235H64.759C64.9837 5.59235 65.096 5.70468 65.096 5.92934V9.66993C65.096 9.89459 64.9837 10.0069 64.759 10.0069H58.9619C58.8271 10.0069 58.7597 10.0743 58.7597 10.2091V28.1707C58.7597 28.3954 58.6473 28.5077 58.4226 28.5077H54.1422Z"/>
<path d="M76.2063 28.8784C74.9255 28.8784 73.7459 28.6874 72.6674 28.3055C71.5888 27.9236 70.6563 27.3619 69.8699 26.6206C69.106 25.8792 68.4993 24.9581 68.0499 23.8572C67.623 22.7564 67.4095 21.4983 67.4095 20.0829V5.92934C67.4095 5.70468 67.5219 5.59235 67.7466 5.59235H72.027C72.2517 5.59235 72.364 5.70468 72.364 5.92934V20.2177C72.364 21.5882 72.7123 22.6441 73.4089 23.3855C74.1054 24.1268 75.0379 24.4975 76.2063 24.4975C77.3522 24.4975 78.2735 24.1268 78.97 23.3855C79.6666 22.6441 80.0149 21.5882 80.0149 20.2177V5.92934C80.0149 5.70468 80.1272 5.59235 80.3519 5.59235H84.6323C84.857 5.59235 84.9694 5.70468 84.9694 5.92934V20.0829C84.9694 21.4983 84.7447 22.7564 84.2953 23.8572C83.8684 24.9581 83.2617 25.8792 82.4753 26.6206C81.7113 27.3619 80.7901 27.9236 79.7115 28.3055C78.6555 28.6874 77.4871 28.8784 76.2063 28.8784Z"/>
<path d="M98.0982 15.5673C99.0419 15.5673 99.7947 15.3089 100.356 14.7922C100.918 14.2755 101.199 13.579 101.199 12.7028C101.199 11.8491 100.918 11.1639 100.356 10.6472C99.7947 10.1305 99.0419 9.87213 98.0982 9.87213H94.0537C93.9189 9.87213 93.8515 9.93952 93.8515 10.0743V15.3651C93.8515 15.4999 93.9189 15.5673 94.0537 15.5673H98.0982ZM101.57 28.5077C101.323 28.5077 101.154 28.3954 101.064 28.1707L97.1208 19.7797H94.0537C93.9189 19.7797 93.8515 19.8471 93.8515 19.9818V28.1707C93.8515 28.3954 93.7392 28.5077 93.5145 28.5077H89.234C89.0093 28.5077 88.897 28.3954 88.897 28.1707V5.92934C88.897 5.70468 89.0093 5.59235 89.234 5.59235H98.3679C99.5363 5.59235 100.592 5.77207 101.536 6.13153C102.502 6.46852 103.322 6.95154 103.996 7.58059C104.693 8.20964 105.221 8.96225 105.581 9.83843C105.963 10.7146 106.154 11.6694 106.154 12.7028C106.154 14.1856 105.794 15.4774 105.075 16.5782C104.356 17.6791 103.356 18.5103 102.075 19.072L106.592 28.1033C106.637 28.2157 106.637 28.3167 106.592 28.4066C106.547 28.474 106.468 28.5077 106.356 28.5077H101.57Z"/>
<path d="M109.592 5.92934C109.592 5.70468 109.704 5.59235 109.929 5.59235H113.974C114.221 5.59235 114.412 5.70468 114.547 5.92934L122.636 20.3525H122.804V5.92934C122.804 5.70468 122.917 5.59235 123.141 5.59235H126.95C127.174 5.59235 127.287 5.70468 127.287 5.92934V28.1707C127.287 28.3954 127.174 28.5077 126.95 28.5077H122.939C122.692 28.5077 122.501 28.3954 122.366 28.1707L114.243 13.7812H114.075V28.1707C114.075 28.3954 113.962 28.5077 113.738 28.5077H109.929C109.704 28.5077 109.592 28.3954 109.592 28.1707V5.92934Z"/>
<path d="M131.341 28.8318C131.341 28.6521 131.397 28.4948 131.509 28.36L139.564 18.7895C140.014 18.2727 140.351 17.7673 140.576 17.273C140.8 16.7563 140.913 16.2059 140.913 15.6218C140.913 14.8579 140.688 14.2289 140.238 13.7346C139.812 13.2404 139.205 12.9932 138.418 12.9932C136.823 12.9932 135.924 13.8919 135.722 15.6892C135.722 15.9138 135.599 16.0037 135.351 15.9587L131.644 15.3522C131.419 15.3072 131.329 15.1724 131.374 14.9478C131.442 14.1615 131.644 13.4089 131.981 12.6899C132.318 11.971 132.79 11.342 133.397 10.8028C134.026 10.2636 134.767 9.83675 135.621 9.52222C136.497 9.18523 137.486 9.01674 138.587 9.01674C139.688 9.01674 140.665 9.18523 141.519 9.52222C142.396 9.85922 143.137 10.3198 143.744 10.9039C144.35 11.488 144.811 12.1845 145.126 12.9932C145.463 13.7795 145.631 14.6332 145.631 15.5544C145.631 16.6552 145.418 17.6549 144.991 18.5536C144.586 19.4298 144.025 20.2835 143.306 21.1147L137.272 28.2252V28.2926H145.294C145.519 28.2926 145.631 28.4049 145.631 28.6296V31.9658C145.631 32.1905 145.519 32.3028 145.294 32.3028H131.678C131.453 32.3028 131.341 32.1905 131.341 31.9658V28.8318Z"/>
<path d="M162.539 28.5077C162.292 28.5077 162.101 28.3954 161.966 28.1707L157.888 21.195H157.787L153.675 28.1707C153.54 28.3954 153.349 28.5077 153.102 28.5077H148.451C148.339 28.5077 148.26 28.474 148.215 28.4066C148.17 28.3167 148.181 28.2157 148.249 28.1033L155.091 16.6793L148.721 5.99673C148.676 5.8844 148.665 5.79454 148.687 5.72714C148.732 5.63728 148.811 5.59235 148.923 5.59235H153.608C153.833 5.59235 154.012 5.70468 154.147 5.92934L157.787 12.13H157.888L161.528 5.92934C161.663 5.70468 161.843 5.59235 162.068 5.59235H166.752C166.865 5.59235 166.932 5.63728 166.955 5.72714C167 5.79454 167 5.8844 166.955 5.99673L160.551 16.6793L167.427 28.1033C167.472 28.2157 167.472 28.3167 167.427 28.4066C167.404 28.474 167.337 28.5077 167.224 28.5077H162.539Z"/>
</mask>
<path d="M54.1422 28.5077C53.9175 28.5077 53.8051 28.3954 53.8051 28.1707V10.2091C53.8051 10.0743 53.7377 10.0069 53.6029 10.0069H47.8058C47.5811 10.0069 47.4688 9.89459 47.4688 9.66993V5.92934C47.4688 5.70468 47.5811 5.59235 47.8058 5.59235H64.759C64.9837 5.59235 65.096 5.70468 65.096 5.92934V9.66993C65.096 9.89459 64.9837 10.0069 64.759 10.0069H58.9619C58.8271 10.0069 58.7597 10.0743 58.7597 10.2091V28.1707C58.7597 28.3954 58.6473 28.5077 58.4226 28.5077H54.1422Z" fill="white"/>
<path d="M76.2063 28.8784C74.9255 28.8784 73.7459 28.6874 72.6674 28.3055C71.5888 27.9236 70.6563 27.3619 69.8699 26.6206C69.106 25.8792 68.4993 24.9581 68.0499 23.8572C67.623 22.7564 67.4095 21.4983 67.4095 20.0829V5.92934C67.4095 5.70468 67.5219 5.59235 67.7466 5.59235H72.027C72.2517 5.59235 72.364 5.70468 72.364 5.92934V20.2177C72.364 21.5882 72.7123 22.6441 73.4089 23.3855C74.1054 24.1268 75.0379 24.4975 76.2063 24.4975C77.3522 24.4975 78.2735 24.1268 78.97 23.3855C79.6666 22.6441 80.0149 21.5882 80.0149 20.2177V5.92934C80.0149 5.70468 80.1272 5.59235 80.3519 5.59235H84.6323C84.857 5.59235 84.9694 5.70468 84.9694 5.92934V20.0829C84.9694 21.4983 84.7447 22.7564 84.2953 23.8572C83.8684 24.9581 83.2617 25.8792 82.4753 26.6206C81.7113 27.3619 80.7901 27.9236 79.7115 28.3055C78.6555 28.6874 77.4871 28.8784 76.2063 28.8784Z" fill="white"/>
<path d="M98.0982 15.5673C99.0419 15.5673 99.7947 15.3089 100.356 14.7922C100.918 14.2755 101.199 13.579 101.199 12.7028C101.199 11.8491 100.918 11.1639 100.356 10.6472C99.7947 10.1305 99.0419 9.87213 98.0982 9.87213H94.0537C93.9189 9.87213 93.8515 9.93952 93.8515 10.0743V15.3651C93.8515 15.4999 93.9189 15.5673 94.0537 15.5673H98.0982ZM101.57 28.5077C101.323 28.5077 101.154 28.3954 101.064 28.1707L97.1208 19.7797H94.0537C93.9189 19.7797 93.8515 19.8471 93.8515 19.9818V28.1707C93.8515 28.3954 93.7392 28.5077 93.5145 28.5077H89.234C89.0093 28.5077 88.897 28.3954 88.897 28.1707V5.92934C88.897 5.70468 89.0093 5.59235 89.234 5.59235H98.3679C99.5363 5.59235 100.592 5.77207 101.536 6.13153C102.502 6.46852 103.322 6.95154 103.996 7.58059C104.693 8.20964 105.221 8.96225 105.581 9.83843C105.963 10.7146 106.154 11.6694 106.154 12.7028C106.154 14.1856 105.794 15.4774 105.075 16.5782C104.356 17.6791 103.356 18.5103 102.075 19.072L106.592 28.1033C106.637 28.2157 106.637 28.3167 106.592 28.4066C106.547 28.474 106.468 28.5077 106.356 28.5077H101.57Z" fill="white"/>
<path d="M109.592 5.92934C109.592 5.70468 109.704 5.59235 109.929 5.59235H113.974C114.221 5.59235 114.412 5.70468 114.547 5.92934L122.636 20.3525H122.804V5.92934C122.804 5.70468 122.917 5.59235 123.141 5.59235H126.95C127.174 5.59235 127.287 5.70468 127.287 5.92934V28.1707C127.287 28.3954 127.174 28.5077 126.95 28.5077H122.939C122.692 28.5077 122.501 28.3954 122.366 28.1707L114.243 13.7812H114.075V28.1707C114.075 28.3954 113.962 28.5077 113.738 28.5077H109.929C109.704 28.5077 109.592 28.3954 109.592 28.1707V5.92934Z" fill="white"/>
<path d="M131.341 28.8318C131.341 28.6521 131.397 28.4948 131.509 28.36L139.564 18.7895C140.014 18.2727 140.351 17.7673 140.576 17.273C140.8 16.7563 140.913 16.2059 140.913 15.6218C140.913 14.8579 140.688 14.2289 140.238 13.7346C139.812 13.2404 139.205 12.9932 138.418 12.9932C136.823 12.9932 135.924 13.8919 135.722 15.6892C135.722 15.9138 135.599 16.0037 135.351 15.9587L131.644 15.3522C131.419 15.3072 131.329 15.1724 131.374 14.9478C131.442 14.1615 131.644 13.4089 131.981 12.6899C132.318 11.971 132.79 11.342 133.397 10.8028C134.026 10.2636 134.767 9.83675 135.621 9.52222C136.497 9.18523 137.486 9.01674 138.587 9.01674C139.688 9.01674 140.665 9.18523 141.519 9.52222C142.396 9.85922 143.137 10.3198 143.744 10.9039C144.35 11.488 144.811 12.1845 145.126 12.9932C145.463 13.7795 145.631 14.6332 145.631 15.5544C145.631 16.6552 145.418 17.6549 144.991 18.5536C144.586 19.4298 144.025 20.2835 143.306 21.1147L137.272 28.2252V28.2926H145.294C145.519 28.2926 145.631 28.4049 145.631 28.6296V31.9658C145.631 32.1905 145.519 32.3028 145.294 32.3028H131.678C131.453 32.3028 131.341 32.1905 131.341 31.9658V28.8318Z" fill="white"/>
<path d="M162.539 28.5077C162.292 28.5077 162.101 28.3954 161.966 28.1707L157.888 21.195H157.787L153.675 28.1707C153.54 28.3954 153.349 28.5077 153.102 28.5077H148.451C148.339 28.5077 148.26 28.474 148.215 28.4066C148.17 28.3167 148.181 28.2157 148.249 28.1033L155.091 16.6793L148.721 5.99673C148.676 5.8844 148.665 5.79454 148.687 5.72714C148.732 5.63728 148.811 5.59235 148.923 5.59235H153.608C153.833 5.59235 154.012 5.70468 154.147 5.92934L157.787 12.13H157.888L161.528 5.92934C161.663 5.70468 161.843 5.59235 162.068 5.59235H166.752C166.865 5.59235 166.932 5.63728 166.955 5.72714C167 5.79454 167 5.8844 166.955 5.99673L160.551 16.6793L167.427 28.1033C167.472 28.2157 167.472 28.3167 167.427 28.4066C167.404 28.474 167.337 28.5077 167.224 28.5077H162.539Z" fill="white"/>
<path d="M54.1422 28.5077C53.9175 28.5077 53.8051 28.3954 53.8051 28.1707V10.2091C53.8051 10.0743 53.7377 10.0069 53.6029 10.0069H47.8058C47.5811 10.0069 47.4688 9.89459 47.4688 9.66993V5.92934C47.4688 5.70468 47.5811 5.59235 47.8058 5.59235H64.759C64.9837 5.59235 65.096 5.70468 65.096 5.92934V9.66993C65.096 9.89459 64.9837 10.0069 64.759 10.0069H58.9619C58.8271 10.0069 58.7597 10.0743 58.7597 10.2091V28.1707C58.7597 28.3954 58.6473 28.5077 58.4226 28.5077H54.1422Z" stroke="black" stroke-opacity="0.1" stroke-width="2" mask="url(#path-1-outside-1_1377_1208)"/>
<path d="M76.2063 28.8784C74.9255 28.8784 73.7459 28.6874 72.6674 28.3055C71.5888 27.9236 70.6563 27.3619 69.8699 26.6206C69.106 25.8792 68.4993 24.9581 68.0499 23.8572C67.623 22.7564 67.4095 21.4983 67.4095 20.0829V5.92934C67.4095 5.70468 67.5219 5.59235 67.7466 5.59235H72.027C72.2517 5.59235 72.364 5.70468 72.364 5.92934V20.2177C72.364 21.5882 72.7123 22.6441 73.4089 23.3855C74.1054 24.1268 75.0379 24.4975 76.2063 24.4975C77.3522 24.4975 78.2735 24.1268 78.97 23.3855C79.6666 22.6441 80.0149 21.5882 80.0149 20.2177V5.92934C80.0149 5.70468 80.1272 5.59235 80.3519 5.59235H84.6323C84.857 5.59235 84.9694 5.70468 84.9694 5.92934V20.0829C84.9694 21.4983 84.7447 22.7564 84.2953 23.8572C83.8684 24.9581 83.2617 25.8792 82.4753 26.6206C81.7113 27.3619 80.7901 27.9236 79.7115 28.3055C78.6555 28.6874 77.4871 28.8784 76.2063 28.8784Z" stroke="black" stroke-opacity="0.1" stroke-width="2" mask="url(#path-1-outside-1_1377_1208)"/>
<path d="M98.0982 15.5673C99.0419 15.5673 99.7947 15.3089 100.356 14.7922C100.918 14.2755 101.199 13.579 101.199 12.7028C101.199 11.8491 100.918 11.1639 100.356 10.6472C99.7947 10.1305 99.0419 9.87213 98.0982 9.87213H94.0537C93.9189 9.87213 93.8515 9.93952 93.8515 10.0743V15.3651C93.8515 15.4999 93.9189 15.5673 94.0537 15.5673H98.0982ZM101.57 28.5077C101.323 28.5077 101.154 28.3954 101.064 28.1707L97.1208 19.7797H94.0537C93.9189 19.7797 93.8515 19.8471 93.8515 19.9818V28.1707C93.8515 28.3954 93.7392 28.5077 93.5145 28.5077H89.234C89.0093 28.5077 88.897 28.3954 88.897 28.1707V5.92934C88.897 5.70468 89.0093 5.59235 89.234 5.59235H98.3679C99.5363 5.59235 100.592 5.77207 101.536 6.13153C102.502 6.46852 103.322 6.95154 103.996 7.58059C104.693 8.20964 105.221 8.96225 105.581 9.83843C105.963 10.7146 106.154 11.6694 106.154 12.7028C106.154 14.1856 105.794 15.4774 105.075 16.5782C104.356 17.6791 103.356 18.5103 102.075 19.072L106.592 28.1033C106.637 28.2157 106.637 28.3167 106.592 28.4066C106.547 28.474 106.468 28.5077 106.356 28.5077H101.57Z" stroke="black" stroke-opacity="0.1" stroke-width="2" mask="url(#path-1-outside-1_1377_1208)"/>
<path d="M109.592 5.92934C109.592 5.70468 109.704 5.59235 109.929 5.59235H113.974C114.221 5.59235 114.412 5.70468 114.547 5.92934L122.636 20.3525H122.804V5.92934C122.804 5.70468 122.917 5.59235 123.141 5.59235H126.95C127.174 5.59235 127.287 5.70468 127.287 5.92934V28.1707C127.287 28.3954 127.174 28.5077 126.95 28.5077H122.939C122.692 28.5077 122.501 28.3954 122.366 28.1707L114.243 13.7812H114.075V28.1707C114.075 28.3954 113.962 28.5077 113.738 28.5077H109.929C109.704 28.5077 109.592 28.3954 109.592 28.1707V5.92934Z" stroke="black" stroke-opacity="0.1" stroke-width="2" mask="url(#path-1-outside-1_1377_1208)"/>
<path d="M131.341 28.8318C131.341 28.6521 131.397 28.4948 131.509 28.36L139.564 18.7895C140.014 18.2727 140.351 17.7673 140.576 17.273C140.8 16.7563 140.913 16.2059 140.913 15.6218C140.913 14.8579 140.688 14.2289 140.238 13.7346C139.812 13.2404 139.205 12.9932 138.418 12.9932C136.823 12.9932 135.924 13.8919 135.722 15.6892C135.722 15.9138 135.599 16.0037 135.351 15.9587L131.644 15.3522C131.419 15.3072 131.329 15.1724 131.374 14.9478C131.442 14.1615 131.644 13.4089 131.981 12.6899C132.318 11.971 132.79 11.342 133.397 10.8028C134.026 10.2636 134.767 9.83675 135.621 9.52222C136.497 9.18523 137.486 9.01674 138.587 9.01674C139.688 9.01674 140.665 9.18523 141.519 9.52222C142.396 9.85922 143.137 10.3198 143.744 10.9039C144.35 11.488 144.811 12.1845 145.126 12.9932C145.463 13.7795 145.631 14.6332 145.631 15.5544C145.631 16.6552 145.418 17.6549 144.991 18.5536C144.586 19.4298 144.025 20.2835 143.306 21.1147L137.272 28.2252V28.2926H145.294C145.519 28.2926 145.631 28.4049 145.631 28.6296V31.9658C145.631 32.1905 145.519 32.3028 145.294 32.3028H131.678C131.453 32.3028 131.341 32.1905 131.341 31.9658V28.8318Z" stroke="black" stroke-opacity="0.1" stroke-width="2" mask="url(#path-1-outside-1_1377_1208)"/>
<path d="M162.539 28.5077C162.292 28.5077 162.101 28.3954 161.966 28.1707L157.888 21.195H157.787L153.675 28.1707C153.54 28.3954 153.349 28.5077 153.102 28.5077H148.451C148.339 28.5077 148.26 28.474 148.215 28.4066C148.17 28.3167 148.181 28.2157 148.249 28.1033L155.091 16.6793L148.721 5.99673C148.676 5.8844 148.665 5.79454 148.687 5.72714C148.732 5.63728 148.811 5.59235 148.923 5.59235H153.608C153.833 5.59235 154.012 5.70468 154.147 5.92934L157.787 12.13H157.888L161.528 5.92934C161.663 5.70468 161.843 5.59235 162.068 5.59235H166.752C166.865 5.59235 166.932 5.63728 166.955 5.72714C167 5.79454 167 5.8844 166.955 5.99673L160.551 16.6793L167.427 28.1033C167.472 28.2157 167.472 28.3167 167.427 28.4066C167.404 28.474 167.337 28.5077 167.224 28.5077H162.539Z" stroke="black" stroke-opacity="0.1" stroke-width="2" mask="url(#path-1-outside-1_1377_1208)"/>
<g filter="url(#filter0_d_1377_1208)">
<mask id="path-2-outside-2_1377_1208" maskUnits="userSpaceOnUse" x="4" y="0" width="35" height="35" fill="black">
<rect fill="white" x="4" width="35" height="35"/>
<path fill-rule="evenodd" clip-rule="evenodd" d="M25.5232 3.14046C28.3772 0.286512 33.0043 0.286512 35.8583 3.14046C38.7122 5.99441 38.7122 10.6216 35.8583 13.4755C35.044 14.2898 34.0853 14.8718 33.0647 15.2214C32.3361 15.5046 31.5693 15.7162 30.7736 15.9358L30.7736 15.9358C29.4182 16.3098 27.9787 16.7071 26.4999 17.5208C28.0115 18.3698 29.4833 18.7759 30.8672 19.1578L30.8675 19.1579C31.3193 19.2826 31.7618 19.4047 32.1932 19.5388C33.5367 19.8194 34.8165 20.4812 35.8595 21.5242C38.7135 24.3782 38.7135 29.0053 35.8595 31.8593C33.0056 34.7132 28.3784 34.7132 25.5245 31.8593C24.478 30.8128 23.8153 29.528 23.5362 28.1796C23.4038 27.7524 23.2829 27.3145 23.1595 26.8674L23.1595 26.8672C22.7744 25.4716 22.3646 23.9867 21.5008 22.4615C20.6371 23.9867 20.2273 25.4716 19.8422 26.8672L19.8421 26.8674C19.7172 27.32 19.5949 27.7631 19.4606 28.1952C19.1797 29.538 18.518 30.8171 17.4755 31.8595C14.6216 34.7135 9.99441 34.7135 7.14046 31.8595C4.28651 29.0056 4.28651 24.3784 7.14046 21.5245C8.18144 20.4835 9.45832 19.8222 10.799 19.5406C11.232 19.406 11.676 19.2834 12.1296 19.1583C13.5143 18.7761 14.987 18.3697 16.4997 17.5197C15.0216 16.7067 13.5828 16.3097 12.2281 15.9358L12.2281 15.9358L12.228 15.9358L12.228 15.9358C11.4385 15.7179 10.6775 15.5079 9.95405 15.2281C8.9264 14.8792 7.96099 14.2951 7.1417 13.4758C4.28775 10.6219 4.28775 5.99469 7.1417 3.14074C9.99565 0.286787 14.6228 0.286787 17.4768 3.14074C18.3001 3.96406 18.8859 4.93495 19.2342 5.96827C19.511 6.68701 19.7195 7.44262 19.9358 8.22641C20.3064 9.56929 20.6998 10.9949 21.4985 12.4594C22.297 10.995 22.6904 9.56961 23.0609 8.22687L23.0609 8.22683C23.2838 7.41931 23.4984 6.6417 23.7879 5.90351C24.1386 4.8943 24.7171 3.94663 25.5232 3.14046Z"/>
</mask>
<path fill-rule="evenodd" clip-rule="evenodd" d="M25.5232 3.14046C28.3772 0.286512 33.0043 0.286512 35.8583 3.14046C38.7122 5.99441 38.7122 10.6216 35.8583 13.4755C35.044 14.2898 34.0853 14.8718 33.0647 15.2214C32.3361 15.5046 31.5693 15.7162 30.7736 15.9358L30.7736 15.9358C29.4182 16.3098 27.9787 16.7071 26.4999 17.5208C28.0115 18.3698 29.4833 18.7759 30.8672 19.1578L30.8675 19.1579C31.3193 19.2826 31.7618 19.4047 32.1932 19.5388C33.5367 19.8194 34.8165 20.4812 35.8595 21.5242C38.7135 24.3782 38.7135 29.0053 35.8595 31.8593C33.0056 34.7132 28.3784 34.7132 25.5245 31.8593C24.478 30.8128 23.8153 29.528 23.5362 28.1796C23.4038 27.7524 23.2829 27.3145 23.1595 26.8674L23.1595 26.8672C22.7744 25.4716 22.3646 23.9867 21.5008 22.4615C20.6371 23.9867 20.2273 25.4716 19.8422 26.8672L19.8421 26.8674C19.7172 27.32 19.5949 27.7631 19.4606 28.1952C19.1797 29.538 18.518 30.8171 17.4755 31.8595C14.6216 34.7135 9.99441 34.7135 7.14046 31.8595C4.28651 29.0056 4.28651 24.3784 7.14046 21.5245C8.18144 20.4835 9.45832 19.8222 10.799 19.5406C11.232 19.406 11.676 19.2834 12.1296 19.1583C13.5143 18.7761 14.987 18.3697 16.4997 17.5197C15.0216 16.7067 13.5828 16.3097 12.2281 15.9358L12.2281 15.9358L12.228 15.9358L12.228 15.9358C11.4385 15.7179 10.6775 15.5079 9.95405 15.2281C8.9264 14.8792 7.96099 14.2951 7.1417 13.4758C4.28775 10.6219 4.28775 5.99469 7.1417 3.14074C9.99565 0.286787 14.6228 0.286787 17.4768 3.14074C18.3001 3.96406 18.8859 4.93495 19.2342 5.96827C19.511 6.68701 19.7195 7.44262 19.9358 8.22641C20.3064 9.56929 20.6998 10.9949 21.4985 12.4594C22.297 10.995 22.6904 9.56961 23.0609 8.22687L23.0609 8.22683C23.2838 7.41931 23.4984 6.6417 23.7879 5.90351C24.1386 4.8943 24.7171 3.94663 25.5232 3.14046Z" fill="white" shape-rendering="crispEdges"/>
<path d="M35.8583 3.14046L36.2118 2.78691V2.78691L35.8583 3.14046ZM25.5232 3.14046L25.8768 3.49402L25.5232 3.14046ZM35.8583 13.4755L36.2118 13.8291L36.2118 13.8291L35.8583 13.4755ZM33.0647 15.2214L32.9027 14.7484L32.893 14.7517L32.8836 14.7554L33.0647 15.2214ZM30.7736 15.9358L30.8949 16.421L30.9066 16.4178L30.7736 15.9358ZM30.7736 15.9358L30.6523 15.4506L30.6405 15.4538L30.7736 15.9358ZM26.4999 17.5208L26.2588 17.0827L25.4708 17.5163L26.255 17.9567L26.4999 17.5208ZM30.8672 19.1578L31.0033 18.6767L31.0002 18.6758L30.8672 19.1578ZM30.8675 19.1579L30.7313 19.639L30.7345 19.6399L30.8675 19.1579ZM32.1932 19.5388L32.0448 20.0162L32.0676 20.0233L32.091 20.0282L32.1932 19.5388ZM35.8595 21.5242L35.506 21.8778L35.8595 21.5242ZM25.5245 31.8593L25.1709 32.2129L25.5245 31.8593ZM23.5362 28.1796L24.0258 28.0782L24.0209 28.0546L24.0138 28.0315L23.5362 28.1796ZM23.1595 26.8674L22.676 26.9946L22.6775 27.0004L23.1595 26.8674ZM23.1595 26.8672L23.6431 26.74L23.6415 26.7342L23.1595 26.8672ZM21.5008 22.4615L21.9359 22.2151L21.5008 21.4469L21.0657 22.2151L21.5008 22.4615ZM19.8422 26.8672L20.3235 27.0025L20.3242 27.0002L19.8422 26.8672ZM19.8421 26.8674L19.3608 26.7321L19.3601 26.7344L19.8421 26.8674ZM19.4606 28.1952L18.9831 28.0468L18.9761 28.0695L18.9712 28.0928L19.4606 28.1952ZM7.14046 21.5245L6.78691 21.1709H6.78691L7.14046 21.5245ZM10.799 19.5406L10.9018 20.03L10.9249 20.0251L10.9475 20.0181L10.799 19.5406ZM12.1296 19.1583L12.2626 19.6402H12.2626L12.1296 19.1583ZM16.4997 17.5197L16.7446 17.9555L17.5287 17.5149L16.7406 17.0815L16.4997 17.5197ZM12.2281 15.9358L12.3612 15.4537L12.3494 15.4508L12.2281 15.9358ZM12.2281 15.9358L12.0863 16.4153L12.0965 16.4183L12.1068 16.4209L12.2281 15.9358ZM12.228 15.9358L12.3698 15.4563L12.3582 15.4529L12.3465 15.4501L12.228 15.9358ZM12.228 15.9358L12.095 16.4178L12.1022 16.4198L12.1095 16.4216L12.228 15.9358ZM9.95405 15.2281L10.1344 14.7618L10.1247 14.758L10.1148 14.7546L9.95405 15.2281ZM7.1417 13.4758L6.78815 13.8294H6.78815L7.1417 13.4758ZM7.1417 3.14074L7.49525 3.49429H7.49525L7.1417 3.14074ZM17.4768 3.14074L17.1232 3.49429L17.4768 3.14074ZM19.2342 5.96827L18.7604 6.12797L18.7638 6.13804L18.7676 6.14796L19.2342 5.96827ZM19.9358 8.22641L19.4538 8.35941V8.35942L19.9358 8.22641ZM21.4985 12.4594L21.0595 12.6988L21.4985 13.5038L21.9375 12.6988L21.4985 12.4594ZM23.0609 8.22687L22.5802 8.08951L22.5789 8.09387L23.0609 8.22687ZM23.0609 8.22683L23.5417 8.3642L23.5429 8.35984L23.0609 8.22683ZM23.7879 5.90351L24.2534 6.08607L24.257 6.07692L24.2602 6.06764L23.7879 5.90351ZM36.2118 2.78691C33.1626 -0.262303 28.2189 -0.262303 25.1697 2.78691L25.8768 3.49402C28.5355 0.835328 32.8461 0.835328 35.5047 3.49402L36.2118 2.78691ZM36.2118 13.8291C39.2611 10.7799 39.2611 5.83612 36.2118 2.78691L35.5047 3.49402C38.1634 6.15271 38.1634 10.4633 35.5047 13.122L36.2118 13.8291ZM33.2267 15.6944C34.3179 15.3207 35.3425 14.6985 36.2118 13.8291L35.5047 13.122C34.7455 13.8812 33.8528 14.4229 32.9027 14.7484L33.2267 15.6944ZM30.9066 16.4178C31.6977 16.1994 32.4895 15.9814 33.2458 15.6875L32.8836 14.7554C32.1828 15.0277 31.441 15.2329 30.6406 15.4538L30.9066 16.4178ZM30.8948 16.4209L30.8949 16.4208L30.6523 15.4507L30.6523 15.4507L30.8948 16.4209ZM26.7409 17.9588C28.1617 17.1771 29.5476 16.7928 30.9066 16.4178L30.6405 15.4538C29.2889 15.8268 27.7957 16.2371 26.2588 17.0827L26.7409 17.9588ZM31.0002 18.6758C29.6127 18.2929 28.1965 17.9002 26.7447 17.0848L26.255 17.9567C27.8265 18.8393 29.3538 19.2589 30.7342 19.6398L31.0002 18.6758ZM31.0036 18.6768L31.0033 18.6767L30.731 19.6389L30.7313 19.639L31.0036 18.6768ZM32.3416 19.0613C31.9012 18.9244 31.4509 18.8002 31.0005 18.6759L30.7345 19.6399C31.1877 19.7649 31.6223 19.8849 32.0448 20.0162L32.3416 19.0613ZM36.2131 21.1707C35.0993 20.0568 33.7313 19.3493 32.2954 19.0493L32.091 20.0282C33.3422 20.2896 34.5338 20.9056 35.506 21.8778L36.2131 21.1707ZM36.2131 32.2129C39.2623 29.1636 39.2623 24.2199 36.2131 21.1707L35.506 21.8778C38.1647 24.5365 38.1647 28.8471 35.506 31.5057L36.2131 32.2129ZM25.1709 32.2129C28.2201 35.2621 33.1639 35.2621 36.2131 32.2129L35.506 31.5057C32.8473 34.1644 28.5367 34.1644 25.878 31.5057L25.1709 32.2129ZM23.0466 28.2809C23.3448 29.7219 24.0534 31.0953 25.1709 32.2129L25.878 31.5057C24.9026 30.5304 24.2857 29.334 24.0258 28.0782L23.0466 28.2809ZM22.6775 27.0004C22.8005 27.4461 22.9235 27.8917 23.0586 28.3276L24.0138 28.0315C23.8841 27.6131 23.7653 27.1828 23.6415 26.7344L22.6775 27.0004ZM22.676 26.9945L22.676 26.9946L23.6431 26.7401L23.643 26.74L22.676 26.9945ZM21.0657 22.7079C21.8952 24.1725 22.2914 25.6011 22.6775 27.0002L23.6415 26.7342C23.2573 25.3422 22.834 23.8009 21.9359 22.2151L21.0657 22.7079ZM20.3242 27.0002C20.7103 25.601 21.1065 24.1725 21.9359 22.7079L21.0657 22.2151C20.1677 23.8008 19.7443 25.3421 19.3602 26.7342L20.3242 27.0002ZM20.3234 27.0028L20.3235 27.0025L19.3609 26.7318L19.3608 26.7321L20.3234 27.0028ZM19.938 28.3437C20.0752 27.9026 20.1996 27.4516 20.3241 27.0005L19.3601 26.7344C19.2348 27.1884 19.1147 27.6237 18.9831 28.0468L19.938 28.3437ZM17.8291 32.2131C18.9424 31.0998 19.6498 29.7326 19.95 28.2976L18.9712 28.0928C18.7096 29.3434 18.0936 30.5343 17.122 31.506L17.8291 32.2131ZM6.78691 32.2131C9.83612 35.2623 14.7799 35.2623 17.8291 32.2131L17.122 31.506C14.4633 34.1647 10.1527 34.1647 7.49402 31.506L6.78691 32.2131ZM6.78691 21.1709C3.7377 24.2201 3.7377 29.1639 6.78691 32.2131L7.49402 31.506C4.83533 28.8473 4.83533 24.5367 7.49402 21.878L6.78691 21.1709ZM10.6962 19.0513C9.26344 19.3522 7.89859 20.0592 6.78691 21.1709L7.49402 21.878C8.46429 20.9078 9.6532 20.2922 10.9018 20.03L10.6962 19.0513ZM11.9965 18.6763C11.5445 18.801 11.0925 18.9257 10.6505 19.0632L10.9475 20.0181C11.3714 19.8862 11.8076 19.7658 12.2626 19.6402L11.9965 18.6763ZM16.2547 17.0838C14.8019 17.9002 13.3849 18.2931 11.9965 18.6763L12.2626 19.6402C13.6437 19.2591 15.1721 18.8393 16.7446 17.9555L16.2547 17.0838ZM12.0951 16.4178C13.4534 16.7927 14.8386 17.1767 16.2587 17.9578L16.7406 17.0815C15.2046 16.2367 13.7121 15.8267 12.3611 15.4539L12.0951 16.4178ZM12.1068 16.4209L12.1068 16.4209L12.3494 15.4508L12.3494 15.4508L12.1068 16.4209ZM12.0862 16.4153L12.0863 16.4153L12.3699 15.4564L12.3698 15.4563L12.0862 16.4153ZM12.1095 16.4216L12.1095 16.4216L12.3465 15.4501L12.3465 15.45L12.1095 16.4216ZM9.77367 15.6944C10.5245 15.9848 11.31 16.2012 12.095 16.4178L12.361 15.4538C11.5669 15.2347 10.8305 15.031 10.1344 14.7618L9.77367 15.6944ZM6.78815 13.8294C7.66285 14.7041 8.69466 15.3285 9.79331 15.7015L10.1148 14.7546C9.15815 14.4298 8.25913 13.8861 7.49525 13.1223L6.78815 13.8294ZM6.78815 2.78718C3.73893 5.8364 3.73893 10.7801 6.78815 13.8294L7.49525 13.1223C4.83656 10.4636 4.83656 6.15298 7.49525 3.49429L6.78815 2.78718ZM17.8303 2.78718C14.7811 -0.262029 9.83736 -0.262029 6.78815 2.78718L7.49525 3.49429C10.1539 0.835602 14.4645 0.835602 17.1232 3.49429L17.8303 2.78718ZM19.708 5.80857C19.3356 4.70386 18.7093 3.6662 17.8303 2.78718L17.1232 3.49429C17.8908 4.26192 18.4361 5.16604 18.7604 6.12797L19.708 5.80857ZM20.4178 8.0934C20.2027 7.31412 19.988 6.53428 19.7008 5.78858L18.7676 6.14796C19.034 6.83974 19.2363 7.57112 19.4538 8.35941L20.4178 8.0934ZM21.9375 12.22C21.17 10.8127 20.7894 9.43996 20.4178 8.0934L19.4538 8.35942C19.8234 9.69862 20.2296 11.177 21.0595 12.6988L21.9375 12.22ZM22.5789 8.09387C22.2074 9.44028 21.8268 10.8129 21.0595 12.2201L21.9375 12.6988C22.7672 11.1772 23.1734 9.69895 23.5429 8.35988L22.5789 8.09387ZM22.5802 8.08947L22.5802 8.08951L23.5417 8.36423L23.5417 8.36419L22.5802 8.08947ZM23.3224 5.72095C23.0217 6.48773 22.8005 7.2911 22.579 8.09383L23.5429 8.35984C23.7671 7.54752 23.9751 6.79568 24.2534 6.08607L23.3224 5.72095ZM25.1697 2.78691C24.309 3.6476 23.6906 4.66042 23.3156 5.73938L24.2602 6.06764C24.5867 5.12817 25.1251 4.24567 25.8768 3.49402L25.1697 2.78691Z" fill="white" fill-opacity="0.4" mask="url(#path-2-outside-2_1377_1208)"/>
</g>
<defs>
<filter id="filter0_d_1377_1208" x="0.5" y="0.5" width="42" height="42" filterUnits="userSpaceOnUse" color-interpolation-filters="sRGB">
<feFlood flood-opacity="0" result="BackgroundImageFix"/>
<feColorMatrix in="SourceAlpha" type="matrix" values="0 0 0 0 0 0 0 0 0 0 0 0 0 0 0 0 0 0 127 0" result="hardAlpha"/>
<feOffset dy="4"/>
<feGaussianBlur stdDeviation="2"/>
<feComposite in2="hardAlpha" operator="out"/>
<feColorMatrix type="matrix" values="0 0 0 0 1 0 0 0 0 1 0 0 0 0 1 0 0 0 0.15 0"/>
<feBlend mode="normal" in2="BackgroundImageFix" result="effect1_dropShadow_1377_1208"/>
<feBlend mode="normal" in="SourceGraphic" in2="effect1_dropShadow_1377_1208" result="shape"/>
</filter>
</defs>
</svg>
