<svg width="163" height="33" viewBox="0 0 163 33" fill="none" xmlns="http://www.w3.org/2000/svg">
<path d="M49.1422 27.5081C48.9175 27.5081 48.8051 27.3958 48.8051 27.1711V9.20954C48.8051 9.07475 48.7377 9.00735 48.6029 9.00735H42.8058C42.5811 9.00735 42.4688 8.89502 42.4688 8.67036V4.92976C42.4688 4.7051 42.5811 4.59277 42.8058 4.59277H59.759C59.9837 4.59277 60.096 4.7051 60.096 4.92976V8.67036C60.096 8.89502 59.9837 9.00735 59.759 9.00735H53.9619C53.8271 9.00735 53.7597 9.07475 53.7597 9.20954V27.1711C53.7597 27.3958 53.6473 27.5081 53.4226 27.5081H49.1422Z" fill="black"/>
<path d="M71.2063 27.8788C69.9255 27.8788 68.7459 27.6879 67.6674 27.3059C66.5888 26.924 65.6563 26.3624 64.8699 25.621C64.106 24.8796 63.4993 23.9585 63.0499 22.8577C62.623 21.7568 62.4095 20.4987 62.4095 19.0834V4.92976C62.4095 4.7051 62.5219 4.59277 62.7466 4.59277H67.027C67.2517 4.59277 67.364 4.7051 67.364 4.92976V19.2182C67.364 20.5886 67.7123 21.6445 68.4089 22.3859C69.1054 23.1273 70.0379 23.4979 71.2063 23.4979C72.3522 23.4979 73.2735 23.1273 73.97 22.3859C74.6666 21.6445 75.0149 20.5886 75.0149 19.2182V4.92976C75.0149 4.7051 75.1272 4.59277 75.3519 4.59277H79.6323C79.857 4.59277 79.9694 4.7051 79.9694 4.92976V19.0834C79.9694 20.4987 79.7447 21.7568 79.2953 22.8577C78.8684 23.9585 78.2617 24.8796 77.4753 25.621C76.7113 26.3624 75.7901 26.924 74.7115 27.3059C73.6555 27.6879 72.4871 27.8788 71.2063 27.8788Z" fill="black"/>
<path d="M93.0982 14.5677C94.0419 14.5677 94.7947 14.3093 95.3564 13.7926C95.9181 13.2759 96.199 12.5795 96.199 11.7033C96.199 10.8496 95.9181 10.1644 95.3564 9.64763C94.7947 9.13091 94.0419 8.87255 93.0982 8.87255H89.0537C88.9189 8.87255 88.8515 8.93995 88.8515 9.07475V14.3655C88.8515 14.5003 88.9189 14.5677 89.0537 14.5677H93.0982ZM96.5698 27.5081C96.3226 27.5081 96.1541 27.3958 96.0642 27.1711L92.1208 18.7801H89.0537C88.9189 18.7801 88.8515 18.8475 88.8515 18.9823V27.1711C88.8515 27.3958 88.7392 27.5081 88.5145 27.5081H84.234C84.0093 27.5081 83.897 27.3958 83.897 27.1711V4.92976C83.897 4.7051 84.0093 4.59277 84.234 4.59277H93.3679C94.5363 4.59277 95.5923 4.7725 96.5361 5.13196C97.5022 5.46895 98.3224 5.95197 98.9965 6.58102C99.693 7.21007 100.221 7.96268 100.581 8.83886C100.963 9.71503 101.154 10.6698 101.154 11.7033C101.154 13.186 100.794 14.4778 100.075 15.5787C99.356 16.6795 98.3561 17.5107 97.0753 18.0724L101.592 27.1038C101.637 27.2161 101.637 27.3172 101.592 27.407C101.547 27.4744 101.468 27.5081 101.356 27.5081H96.5698Z" fill="black"/>
<path d="M104.592 4.92976C104.592 4.7051 104.704 4.59277 104.929 4.59277H108.974C109.221 4.59277 109.412 4.7051 109.547 4.92976L117.636 19.353H117.804V4.92976C117.804 4.7051 117.917 4.59277 118.141 4.59277H121.95C122.174 4.59277 122.287 4.7051 122.287 4.92976V27.1711C122.287 27.3958 122.174 27.5081 121.95 27.5081H117.939C117.692 27.5081 117.501 27.3958 117.366 27.1711L109.243 12.7816H109.075V27.1711C109.075 27.3958 108.962 27.5081 108.738 27.5081H104.929C104.704 27.5081 104.592 27.3958 104.592 27.1711V4.92976Z" fill="black"/>
<path d="M126.341 27.8322C126.341 27.6525 126.397 27.4952 126.509 27.3604L134.564 17.7899C135.014 17.2732 135.351 16.7677 135.576 16.2734C135.8 15.7567 135.913 15.2063 135.913 14.6222C135.913 13.8583 135.688 13.2293 135.238 12.735C134.812 12.2408 134.205 11.9937 133.418 11.9937C131.823 11.9937 130.924 12.8923 130.722 14.6896C130.722 14.9142 130.599 15.0041 130.351 14.9592L126.644 14.3526C126.419 14.3077 126.329 14.1729 126.374 13.9482C126.442 13.1619 126.644 12.4093 126.981 11.6904C127.318 10.9715 127.79 10.3424 128.397 9.80322C129.026 9.26403 129.767 8.83718 130.621 8.52265C131.497 8.18566 132.486 8.01717 133.587 8.01717C134.688 8.01717 135.665 8.18566 136.519 8.52265C137.396 8.85964 138.137 9.3202 138.744 9.90431C139.35 10.4884 139.811 11.1849 140.126 11.9937C140.463 12.78 140.631 13.6337 140.631 14.5548C140.631 15.6556 140.418 16.6554 139.991 17.554C139.586 18.4302 139.025 19.2839 138.306 20.1151L132.272 27.2256V27.293H140.294C140.519 27.293 140.631 27.4054 140.631 27.63V30.9662C140.631 31.1909 140.519 31.3032 140.294 31.3032H126.678C126.453 31.3032 126.341 31.1909 126.341 30.9662V27.8322Z" fill="black"/>
<path d="M157.539 27.5081C157.292 27.5081 157.101 27.3958 156.966 27.1711L152.888 20.1954H152.787L148.675 27.1711C148.54 27.3958 148.349 27.5081 148.102 27.5081H143.451C143.339 27.5081 143.26 27.4744 143.215 27.407C143.17 27.3172 143.181 27.2161 143.249 27.1038L150.091 15.6798L143.721 4.99716C143.676 4.88483 143.665 4.79497 143.687 4.72757C143.732 4.6377 143.811 4.59277 143.923 4.59277H148.608C148.833 4.59277 149.012 4.7051 149.147 4.92976L152.787 11.1304H152.888L156.528 4.92976C156.663 4.7051 156.843 4.59277 157.068 4.59277H161.752C161.865 4.59277 161.932 4.6377 161.955 4.72757C162 4.79497 162 4.88483 161.955 4.99716L155.551 15.6798L162.427 27.1038C162.472 27.2161 162.472 27.3172 162.427 27.407C162.404 27.4744 162.337 27.5081 162.224 27.5081H157.539Z" fill="black"/>
<path fill-rule="evenodd" clip-rule="evenodd" d="M2.1417 2.14046C-0.71225 4.99441 -0.71225 9.62158 2.1417 12.4755C2.96099 13.2948 3.9264 13.8789 4.95405 14.2278C5.67752 14.5077 6.43847 14.7177 7.228 14.9355L7.22802 14.9355L7.22809 14.9356L7.22811 14.9356C9.45377 15.5498 11.9066 16.2266 14.3875 18.7075C16.8684 21.1884 17.5453 23.6413 18.1595 25.8669L18.1595 25.8671C18.2829 26.3142 18.4038 26.7521 18.5362 27.1793C18.8153 28.5277 19.478 29.8126 20.5245 30.859C23.3784 33.713 28.0056 33.713 30.8595 30.859C33.7135 28.0051 33.7135 23.3779 30.8595 20.524C29.8165 19.481 28.5367 18.8191 27.1932 18.5385C26.7617 18.4044 26.3191 18.2822 25.8672 18.1575C23.6415 17.5433 21.1887 16.8664 18.7078 14.3855C16.2269 11.9046 15.55 9.45179 14.9358 7.22613C14.7195 6.44234 14.511 5.68673 14.2342 4.968C13.8859 3.93467 13.3001 2.96378 12.4768 2.14046C9.62282 -0.713488 4.99565 -0.713488 2.1417 2.14046Z" fill="#4579DD"/>
<path fill-rule="evenodd" clip-rule="evenodd" d="M30.8583 2.14046C28.0043 -0.713488 23.3772 -0.713488 20.5232 2.14046C19.7171 2.94663 19.1386 3.8943 18.7879 4.90351C18.4984 5.64171 18.2838 6.41934 18.0609 7.22687C17.4467 9.45253 16.7699 11.9054 14.289 14.3863C11.8081 16.8672 9.35521 17.5441 7.12955 18.1583C6.67605 18.2834 6.23197 18.406 5.79902 18.5406C4.45832 18.8222 3.18144 19.4835 2.14046 20.5245C-0.713488 23.3784 -0.713488 28.0056 2.14046 30.8595C4.99441 33.7135 9.62158 33.7135 12.4755 30.8595C13.518 29.8171 14.1797 28.538 14.4606 27.1952C14.595 26.7631 14.7173 26.3198 14.8422 25.8672C15.4564 23.6415 16.1333 21.1887 18.6141 18.7078C21.095 16.2269 23.5479 15.55 25.7736 14.9358C26.5693 14.7162 27.3361 14.5046 28.0647 14.2214C29.0853 13.8718 30.044 13.2898 30.8583 12.4755C33.7122 9.62158 33.7122 4.99441 30.8583 2.14046Z" fill="#385494"/>
</svg>
