<svg width="33" height="33" viewBox="0 0 33 33" fill="none" xmlns="http://www.w3.org/2000/svg">
<path fill-rule="evenodd" clip-rule="evenodd" d="M30.8583 2.14046C28.0043 -0.713488 23.3772 -0.713488 20.5232 2.14046C19.7171 2.94663 19.1386 3.8943 18.7879 4.90351C18.4984 5.64171 18.2838 6.41934 18.0609 7.22687C17.4467 9.45253 16.7699 11.9054 14.289 14.3863C11.8081 16.8672 9.35521 17.5441 7.12955 18.1583C6.67605 18.2834 6.23197 18.406 5.79902 18.5406C4.45832 18.8222 3.18144 19.4835 2.14046 20.5245C-0.713488 23.3784 -0.713488 28.0056 2.14046 30.8595C4.99441 33.7135 9.62158 33.7135 12.4755 30.8595C13.518 29.8171 14.1797 28.538 14.4606 27.1952C14.595 26.7631 14.7173 26.3198 14.8422 25.8672C15.4564 23.6415 16.1333 21.1887 18.6141 18.7078C21.095 16.2269 23.5479 15.55 25.7736 14.9358C26.5693 14.7162 27.3361 14.5046 28.0647 14.2214C29.0853 13.8718 30.044 13.2898 30.8583 12.4755C33.7122 9.62158 33.7122 4.99441 30.8583 2.14046Z" fill="#385494"/>
</svg>
