<svg width="4961" height="2853" viewBox="0 0 4961 2853" fill="none" xmlns="http://www.w3.org/2000/svg">
<g opacity="0.8">
<g style="mix-blend-mode:multiply" opacity="0.8">
<path fill-rule="evenodd" clip-rule="evenodd" d="M4786.25 2524.2C4553.26 2757.27 4175.5 2757.27 3942.5 2524.2C3876.69 2458.36 3829.47 2380.97 3800.83 2298.55C3777.2 2238.26 3759.68 2174.75 3741.48 2108.81C3691.34 1927.04 3636.08 1726.73 3433.54 1524.12C3231 1321.51 3030.75 1266.23 2849.05 1216.08C2812.03 1205.86 2775.77 1195.85 2740.43 1184.85C2630.97 1161.85 2526.73 1107.85 2441.75 1022.84C2208.75 789.763 2208.75 411.877 2441.75 178.804C2674.74 -54.2683 3052.5 -54.2683 3285.5 178.804C3370.6 263.939 3424.62 368.395 3447.55 478.057C3458.52 513.351 3468.51 549.549 3478.71 586.515C3528.85 768.277 3584.11 968.593 3786.65 1171.2C3989.19 1373.81 4189.44 1429.09 4371.14 1479.24C4436.1 1497.18 4498.7 1514.46 4558.19 1537.58C4641.51 1566.14 4719.77 1613.66 4786.25 1680.16C5019.25 1913.24 5019.25 2291.12 4786.25 2524.2Z" fill="url(#paint0_linear_1712_4301)"/>
</g>
<g style="mix-blend-mode:multiply" opacity="0.8">
<path fill-rule="evenodd" clip-rule="evenodd" d="M3127.48 2067.42C2957.44 2237.53 2681.77 2237.53 2511.73 2067.42C2463.7 2019.36 2429.24 1962.88 2408.34 1902.72C2391.1 1858.72 2378.31 1812.37 2365.03 1764.23C2328.44 1631.57 2288.11 1485.37 2140.31 1337.49C1992.5 1189.61 1846.36 1149.27 1713.76 1112.66C1686.75 1105.2 1660.29 1097.89 1634.49 1089.87C1554.62 1073.08 1478.54 1033.67 1416.52 971.617C1246.49 801.505 1246.49 525.697 1416.52 355.584C1586.56 185.472 1862.23 185.472 2032.27 355.584C2094.38 417.722 2133.8 493.961 2150.53 574C2158.54 599.76 2165.83 626.18 2173.27 653.16C2209.86 785.823 2250.19 932.028 2397.99 1079.9C2545.8 1227.78 2691.94 1268.13 2824.54 1304.74C2871.95 1317.83 2917.63 1330.44 2961.04 1347.32C3021.85 1368.16 3078.96 1402.85 3127.48 1451.38C3297.51 1621.5 3297.51 1897.3 3127.48 2067.42Z" fill="url(#paint1_linear_1712_4301)"/>
</g>
<g style="mix-blend-mode:multiply" opacity="0.8">
<path fill-rule="evenodd" clip-rule="evenodd" d="M1236.64 185.701C1484.17 -61.9005 1885.48 -61.9005 2133.01 185.701C2202.93 255.643 2253.1 337.86 2283.52 425.417C2308.63 489.461 2327.24 556.926 2346.57 626.986C2399.83 820.079 2458.54 1032.88 2673.71 1248.12C2888.88 1463.36 3101.62 1522.08 3294.65 1575.37C3333.98 1586.22 3372.5 1596.86 3410.05 1608.54C3526.33 1632.97 3637.07 1690.34 3727.36 1780.65C3974.88 2028.25 3974.88 2429.7 3727.36 2677.3C3479.83 2924.9 3078.52 2924.9 2830.99 2677.3C2740.58 2586.86 2683.19 2475.89 2658.83 2359.39C2647.17 2321.9 2636.56 2283.44 2625.73 2244.17C2572.46 2051.08 2513.75 1838.28 2298.58 1623.04C2083.42 1407.8 1870.68 1349.08 1677.65 1295.79C1608.63 1276.74 1542.12 1258.38 1478.93 1233.82C1390.41 1203.48 1307.27 1152.99 1236.64 1082.35C989.119 834.745 989.119 433.303 1236.64 185.701Z" fill="url(#paint2_linear_1712_4301)"/>
</g>
<path fill-rule="evenodd" clip-rule="evenodd" d="M3293.48 165.585C3123.44 -4.52819 2847.77 -4.52819 2677.73 165.585C2629.7 213.637 2595.24 270.124 2574.34 330.279C2557.1 374.28 2544.31 420.632 2531.03 468.766C2494.44 601.428 2454.11 747.633 2306.31 895.51C2158.5 1043.39 2012.36 1083.73 1879.76 1120.34C1852.75 1127.8 1826.29 1135.11 1800.49 1143.13C1720.62 1159.92 1644.54 1199.33 1582.52 1261.38C1412.49 1431.5 1412.49 1707.3 1582.52 1877.42C1752.56 2047.53 2028.23 2047.53 2198.27 1877.42C2260.38 1815.28 2299.8 1739.04 2316.53 1659C2324.54 1633.24 2331.83 1606.82 2339.27 1579.84C2375.86 1447.18 2416.19 1300.97 2563.99 1153.1C2711.8 1005.22 2857.94 964.873 2990.54 928.263C3037.95 915.174 3083.63 902.561 3127.04 885.683C3187.85 864.843 3244.96 830.155 3293.48 781.617C3463.51 611.505 3463.51 335.697 3293.48 165.585Z" fill="url(#paint3_linear_1712_4301)"/>
<g style="mix-blend-mode:multiply" opacity="0.8">
<path fill-rule="evenodd" clip-rule="evenodd" d="M174.746 2678.2C407.741 2911.27 785.5 2911.27 1018.5 2678.2C1084.31 2612.36 1131.53 2534.97 1160.17 2452.55C1183.8 2392.26 1201.32 2328.75 1219.52 2262.81C1269.66 2081.04 1324.92 1880.73 1527.46 1678.12C1730 1475.51 1930.25 1420.23 2111.95 1370.08C2148.97 1359.86 2185.23 1349.85 2220.57 1338.85C2330.03 1315.85 2434.27 1261.85 2519.25 1176.84C2752.25 943.763 2752.25 565.877 2519.25 332.804C2286.26 99.7317 1908.5 99.7317 1675.5 332.804C1590.4 417.939 1536.38 522.395 1513.45 632.057C1502.48 667.351 1492.49 703.549 1482.29 740.515C1432.15 922.277 1376.89 1122.59 1174.35 1325.2C971.813 1527.81 771.563 1583.09 589.861 1633.24C524.896 1651.18 462.295 1668.46 402.815 1691.58C319.49 1720.14 241.226 1767.66 174.746 1834.16C-58.2485 2067.24 -58.2485 2445.12 174.746 2678.2Z" fill="url(#paint4_linear_1712_4301)"/>
</g>
</g>
<defs>
<linearGradient id="paint0_linear_1712_4301" x1="3614" y1="2699" x2="3614" y2="4" gradientUnits="userSpaceOnUse">
<stop stop-color="#D3D9F8"/>
<stop offset="1" stop-color="#D3D9F8" stop-opacity="0"/>
</linearGradient>
<linearGradient id="paint1_linear_1712_4301" x1="2272" y1="2195" x2="2272" y2="228" gradientUnits="userSpaceOnUse">
<stop stop-color="#D3D9F8"/>
<stop offset="1" stop-color="#D3D9F8" stop-opacity="0"/>
</linearGradient>
<linearGradient id="paint2_linear_1712_4301" x1="2482" y1="0" x2="2482" y2="2863" gradientUnits="userSpaceOnUse">
<stop stop-color="#D3D9F8"/>
<stop offset="1" stop-color="#D3D9F8" stop-opacity="0"/>
</linearGradient>
<linearGradient id="paint3_linear_1712_4301" x1="1705" y1="1938.5" x2="3010.5" y2="221.5" gradientUnits="userSpaceOnUse">
<stop stop-color="#D3D9F8"/>
<stop offset="1" stop-color="#D3D9F8" stop-opacity="0"/>
</linearGradient>
<linearGradient id="paint4_linear_1712_4301" x1="1347" y1="2853" x2="1347" y2="158" gradientUnits="userSpaceOnUse">
<stop stop-color="#D3D9F8"/>
<stop offset="1" stop-color="#D3D9F8" stop-opacity="0"/>
</linearGradient>
</defs>
</svg>
