<?xml version="1.0" encoding="UTF-8" standalone="no"?>
<!DOCTYPE svg PUBLIC "-//W3C//DTD SVG 1.1//EN" "http://www.w3.org/Graphics/SVG/1.1/DTD/svg11.dtd">
<svg width="100%" height="100%" viewBox="0 0 25 24" version="1.1" xmlns="http://www.w3.org/2000/svg" xmlns:xlink="http://www.w3.org/1999/xlink" xml:space="preserve" xmlns:serif="http://www.serif.com/" style="fill-rule:evenodd;clip-rule:evenodd;stroke-linejoin:round;stroke-miterlimit:2;">
    <g transform="matrix(1,0,0,1,-27,0)">
        <g id="charge" transform="matrix(4.5718,0,0,4.7658,-53.4409,-30.1894)">
            <rect x="17.659" y="6.335" width="5.25" height="5.036" style="fill:none;"/>
            <g transform="matrix(0.152161,0,0,0.145967,20.2839,8.85253)">
                <g transform="matrix(1,0,0,1,-11.5,-16.5)">
                    <path d="M9.857,18.567L9.857,31.145C9.857,31.857 10.328,32.484 11.012,32.682C11.697,32.88 12.429,32.602 12.81,31.999L22.039,17.388C22.039,17.388 22.078,17.41 22.263,17.033C22.491,16.569 22.587,15.94 22.258,15.301C21.938,14.679 21.577,14.585 20.909,14.58L13.053,14.58L13.053,2C13.053,1.288 12.582,0.661 11.898,0.463C11.213,0.265 10.481,0.543 10.1,1.146L0.647,16.113C0.336,16.606 0.317,17.229 0.599,17.739C0.88,18.25 1.417,18.567 2,18.567L9.857,18.567Z"/>
                </g>
            </g>
        </g>
    </g>
</svg>
