<?xml version="1.0" encoding="UTF-8" standalone="no"?>
<!DOCTYPE svg PUBLIC "-//W3C//DTD SVG 1.1//EN" "http://www.w3.org/Graphics/SVG/1.1/DTD/svg11.dtd">
<svg width="100%" height="100%" viewBox="0 0 25 25" version="1.1" xmlns="http://www.w3.org/2000/svg" xmlns:xlink="http://www.w3.org/1999/xlink" xml:space="preserve" xmlns:serif="http://www.serif.com/" style="fill-rule:evenodd;clip-rule:evenodd;stroke-linejoin:round;stroke-miterlimit:2;">
    <g transform="matrix(1,0,0,1,-55,0)">
        <g id="cog" transform="matrix(4.5718,0,0,4.7658,-25.4317,-29.774)">
            <rect x="17.659" y="6.335" width="5.25" height="5.036" style="fill:none;"/>
            <g transform="matrix(0.165279,0,0,0.158551,17.8778,6.41744)">
                <path d="M13.276,29.617C12.914,29.617 12.607,29.513 12.357,29.305C12.106,29.107 11.939,28.824 11.855,28.455L11.131,25.338C10.861,25.243 10.597,25.144 10.336,25.04C10.077,24.936 9.83,24.827 9.598,24.714L6.924,26.386C6.617,26.575 6.301,26.656 5.976,26.627C5.66,26.599 5.377,26.457 5.126,26.202L3.343,24.388C3.093,24.133 2.949,23.836 2.912,23.495C2.884,23.155 2.972,22.834 3.176,22.532L4.806,19.825C4.695,19.58 4.588,19.329 4.486,19.074C4.384,18.819 4.295,18.564 4.221,18.309L1.128,17.558C0.766,17.482 0.488,17.317 0.293,17.062C0.098,16.807 0,16.495 0,16.127L0,13.562C0,13.203 0.098,12.896 0.293,12.64C0.488,12.385 0.766,12.22 1.128,12.145L4.193,11.393C4.277,11.101 4.37,10.827 4.472,10.572C4.583,10.316 4.685,10.076 4.778,9.849L3.148,7.1C2.944,6.797 2.856,6.486 2.884,6.164C2.912,5.834 3.055,5.541 3.315,5.286L5.126,3.458C5.387,3.212 5.665,3.07 5.962,3.033C6.269,2.995 6.575,3.066 6.882,3.245L9.584,4.946C9.816,4.823 10.063,4.709 10.323,4.606C10.592,4.492 10.861,4.388 11.131,4.294L11.855,1.162C11.939,0.803 12.106,0.52 12.357,0.312C12.607,0.104 12.914,0 13.276,0L15.839,0C16.201,0 16.508,0.104 16.759,0.312C17.009,0.52 17.172,0.803 17.246,1.162L17.971,4.322C18.258,4.417 18.528,4.516 18.779,4.62C19.039,4.724 19.28,4.837 19.503,4.96L22.233,3.245C22.54,3.066 22.842,3 23.139,3.047C23.436,3.085 23.715,3.222 23.975,3.458L25.799,5.286C26.06,5.541 26.199,5.834 26.217,6.164C26.245,6.486 26.162,6.797 25.967,7.1L24.323,9.849C24.416,10.076 24.513,10.316 24.615,10.572C24.727,10.827 24.829,11.101 24.922,11.393L27.987,12.145C28.34,12.22 28.613,12.385 28.808,12.64C29.013,12.896 29.115,13.203 29.115,13.562L29.115,16.127C29.115,16.495 29.013,16.807 28.808,17.062C28.613,17.317 28.34,17.482 27.987,17.558L24.894,18.309C24.81,18.564 24.718,18.819 24.615,19.074C24.523,19.329 24.416,19.58 24.295,19.825L25.939,22.532C26.143,22.834 26.227,23.155 26.19,23.495C26.162,23.836 26.022,24.133 25.772,24.388L23.975,26.202C23.724,26.457 23.436,26.599 23.111,26.627C22.795,26.656 22.489,26.575 22.192,26.386L19.503,24.714C19.271,24.827 19.025,24.936 18.765,25.04C18.505,25.144 18.24,25.243 17.971,25.338L17.246,28.455C17.172,28.824 17.009,29.107 16.759,29.305C16.508,29.513 16.201,29.617 15.839,29.617L13.276,29.617ZM14.557,19.811C15.458,19.811 16.28,19.584 17.023,19.131C17.776,18.677 18.37,18.073 18.806,17.317C19.252,16.552 19.475,15.711 19.475,14.794C19.475,13.878 19.252,13.047 18.806,12.3C18.37,11.545 17.776,10.94 17.023,10.487C16.28,10.033 15.458,9.806 14.557,9.806C13.657,9.806 12.835,10.033 12.092,10.487C11.349,10.94 10.754,11.545 10.309,12.3C9.863,13.047 9.64,13.878 9.64,14.794C9.64,15.711 9.858,16.552 10.295,17.317C10.741,18.073 11.335,18.677 12.078,19.131C12.83,19.584 13.657,19.811 14.557,19.811Z" style="fill-rule:nonzero;"/>
            </g>
        </g>
    </g>
</svg>
