<?xml version="1.0" encoding="UTF-8" standalone="no"?>
<!DOCTYPE svg PUBLIC "-//W3C//DTD SVG 1.1//EN" "http://www.w3.org/Graphics/SVG/1.1/DTD/svg11.dtd">
<svg width="100%" height="100%" viewBox="0 0 25 25" version="1.1" xmlns="http://www.w3.org/2000/svg" xmlns:xlink="http://www.w3.org/1999/xlink" xml:space="preserve" xmlns:serif="http://www.serif.com/" style="fill-rule:evenodd;clip-rule:evenodd;stroke-linejoin:round;stroke-miterlimit:2;">
    <g transform="matrix(1,0,0,1,-201,-1)">
        <g id="documents" transform="matrix(4.5718,0,0,4.7658,120.526,-28.757)">
            <rect x="17.659" y="6.335" width="5.25" height="5.036" style="fill:none;"/>
            <g transform="matrix(0.124757,0,0,0.119679,17.664,6.81661)">
                <g transform="matrix(1,0,0,1,1.71409,1.77636e-15)">
                    <path d="M6.518,15.927C7.203,15.927 7.76,15.71 8.19,15.274C8.619,14.831 8.834,14.256 8.834,13.549C8.834,12.864 8.649,12.316 8.28,11.904C7.911,11.492 7.429,11.286 6.834,11.286C6.525,11.286 6.251,11.337 6.01,11.438C5.769,11.539 5.561,11.702 5.388,11.928L5.151,11.928C5.196,11.718 5.283,11.512 5.411,11.31C5.539,11.108 5.701,10.925 5.897,10.762C6.077,10.606 6.273,10.474 6.484,10.365C6.695,10.256 6.924,10.175 7.173,10.12C7.384,10.074 7.527,10.015 7.602,9.945C7.685,9.868 7.727,9.763 7.727,9.631C7.727,9.351 7.565,9.211 7.241,9.211C6.872,9.211 6.476,9.316 6.055,9.526C5.633,9.736 5.264,10.015 4.948,10.365C4.631,10.723 4.394,11.127 4.236,11.578C4.078,12.021 3.999,12.487 3.999,12.977C3.999,13.91 4.244,14.637 4.733,15.158C5.223,15.671 5.817,15.927 6.518,15.927ZM12.685,15.916C13.371,15.916 13.928,15.698 14.357,15.263C14.794,14.82 15.012,14.244 15.012,13.537C15.012,12.853 14.828,12.305 14.459,11.893C14.09,11.481 13.604,11.275 13.002,11.275C12.701,11.275 12.426,11.325 12.177,11.426C11.936,11.527 11.729,11.691 11.556,11.916L11.33,11.916C11.375,11.714 11.458,11.516 11.579,11.321C11.699,11.119 11.853,10.937 12.042,10.773C12.222,10.602 12.422,10.466 12.64,10.365C12.859,10.256 13.096,10.171 13.352,10.109C13.563,10.062 13.706,10.004 13.781,9.934C13.864,9.856 13.906,9.751 13.906,9.619C13.906,9.339 13.74,9.199 13.408,9.199C13.039,9.199 12.64,9.308 12.211,9.526C11.789,9.743 11.428,10.019 11.127,10.354C10.81,10.711 10.573,11.115 10.415,11.566C10.257,12.009 10.178,12.476 10.178,12.966C10.178,13.898 10.423,14.625 10.912,15.146C11.402,15.659 11.993,15.916 12.685,15.916ZM4.993,19.857L14.03,19.857C14.226,19.857 14.391,19.787 14.527,19.647C14.662,19.507 14.73,19.336 14.73,19.134C14.73,18.932 14.662,18.765 14.527,18.632C14.391,18.493 14.226,18.423 14.03,18.423L4.993,18.423C4.79,18.423 4.62,18.493 4.485,18.632C4.349,18.765 4.281,18.932 4.281,19.134C4.281,19.336 4.349,19.507 4.485,19.647C4.62,19.787 4.79,19.857 4.993,19.857ZM4.993,23.926L9.308,23.926C9.511,23.926 9.677,23.86 9.805,23.728C9.941,23.588 10.008,23.417 10.008,23.215C10.008,23.013 9.941,22.842 9.805,22.702C9.677,22.562 9.511,22.492 9.308,22.492L4.993,22.492C4.79,22.492 4.62,22.562 4.485,22.702C4.349,22.842 4.281,23.013 4.281,23.215C4.281,23.417 4.349,23.588 4.485,23.728C4.62,23.86 4.79,23.926 4.993,23.926ZM0,25.454L0,7.765C0,6.552 0.29,5.639 0.87,5.025C1.457,4.411 2.335,4.104 3.502,4.104L15.498,4.104C16.666,4.104 17.539,4.411 18.119,5.025C18.706,5.639 19,6.552 19,7.765L19,25.454C19,26.674 18.706,27.588 18.119,28.194C17.539,28.8 16.666,29.104 15.498,29.104L3.502,29.104C2.335,29.104 1.457,28.8 0.87,28.194C0.29,27.588 0,26.674 0,25.454Z" style="fill-rule:nonzero;"/>
                </g>
                <g transform="matrix(1,0,0,1,-1,0)">
                    <path d="M22.791,32.132L23.383,32.155C23.178,32.155 22.981,32.147 22.791,32.132ZM22.791,32.132L21.525,32.132C20.112,32.132 19.05,31.765 18.339,31.031C17.637,30.297 17.286,29.191 17.286,27.714L17.286,6.301C17.286,4.833 17.637,3.727 18.339,2.984C19.05,2.24 20.112,1.868 21.525,1.868L23.383,1.892C21.97,1.892 20.908,2.263 20.197,3.007C19.495,3.75 19.144,4.856 19.144,6.324L19.144,27.737C19.144,29.214 19.495,30.32 20.197,31.054C20.805,31.681 21.669,32.041 22.791,32.132Z" style="fill:white;fill-rule:nonzero;"/>
                </g>
                <g transform="matrix(1.21053,0,0,1.21053,17.2859,-3.08739)">
                    <path d="M6.518,15.927C7.203,15.927 7.76,15.71 8.19,15.274C8.619,14.831 8.834,14.256 8.834,13.549C8.834,12.864 8.649,12.316 8.28,11.904C7.911,11.492 7.429,11.286 6.834,11.286C6.525,11.286 6.251,11.337 6.01,11.438C5.769,11.539 5.561,11.702 5.388,11.928L5.151,11.928C5.196,11.718 5.283,11.512 5.411,11.31C5.539,11.108 5.701,10.925 5.897,10.762C6.077,10.606 6.273,10.474 6.484,10.365C6.695,10.256 6.924,10.175 7.173,10.12C7.384,10.074 7.527,10.015 7.602,9.945C7.685,9.868 7.727,9.763 7.727,9.631C7.727,9.351 7.565,9.211 7.241,9.211C6.872,9.211 6.476,9.316 6.055,9.526C5.633,9.736 5.264,10.015 4.948,10.365C4.631,10.723 4.394,11.127 4.236,11.578C4.078,12.021 3.999,12.487 3.999,12.977C3.999,13.91 4.244,14.637 4.733,15.158C5.223,15.671 5.817,15.927 6.518,15.927ZM12.685,15.916C13.371,15.916 13.928,15.698 14.357,15.263C14.794,14.82 15.012,14.244 15.012,13.537C15.012,12.853 14.828,12.305 14.459,11.893C14.09,11.481 13.604,11.275 13.002,11.275C12.701,11.275 12.426,11.325 12.177,11.426C11.936,11.527 11.729,11.691 11.556,11.916L11.33,11.916C11.375,11.714 11.458,11.516 11.579,11.321C11.699,11.119 11.853,10.937 12.042,10.773C12.222,10.602 12.422,10.466 12.64,10.365C12.859,10.256 13.096,10.171 13.352,10.109C13.563,10.062 13.706,10.004 13.781,9.934C13.864,9.856 13.906,9.751 13.906,9.619C13.906,9.339 13.74,9.199 13.408,9.199C13.039,9.199 12.64,9.308 12.211,9.526C11.789,9.743 11.428,10.019 11.127,10.354C10.81,10.711 10.573,11.115 10.415,11.566C10.257,12.009 10.178,12.476 10.178,12.966C10.178,13.898 10.423,14.625 10.912,15.146C11.402,15.659 11.993,15.916 12.685,15.916ZM4.993,19.857L14.03,19.857C14.226,19.857 14.391,19.787 14.527,19.647C14.662,19.507 14.73,19.336 14.73,19.134C14.73,18.932 14.662,18.765 14.527,18.632C14.391,18.493 14.226,18.423 14.03,18.423L4.993,18.423C4.79,18.423 4.62,18.493 4.485,18.632C4.349,18.765 4.281,18.932 4.281,19.134C4.281,19.336 4.349,19.507 4.485,19.647C4.62,19.787 4.79,19.857 4.993,19.857ZM4.993,23.926L9.308,23.926C9.511,23.926 9.677,23.86 9.805,23.728C9.941,23.588 10.008,23.417 10.008,23.215C10.008,23.013 9.941,22.842 9.805,22.702C9.677,22.562 9.511,22.492 9.308,22.492L4.993,22.492C4.79,22.492 4.62,22.562 4.485,22.702C4.349,22.842 4.281,23.013 4.281,23.215C4.281,23.417 4.349,23.588 4.485,23.728C4.62,23.86 4.79,23.926 4.993,23.926ZM0,25.454L0,7.765C0,6.552 0.29,5.639 0.87,5.025C1.457,4.411 2.335,4.104 3.502,4.104L15.498,4.104C16.666,4.104 17.539,4.411 18.119,5.025C18.706,5.639 19,6.552 19,7.765L19,25.454C19,26.674 18.706,27.588 18.119,28.194C17.539,28.8 16.666,29.104 15.498,29.104L3.502,29.104C2.335,29.104 1.457,28.8 0.87,28.194C0.29,27.588 0,26.674 0,25.454Z" style="fill-rule:nonzero;"/>
                </g>
            </g>
        </g>
    </g>
</svg>
