<?xml version="1.0" encoding="UTF-8" standalone="no"?>
<!DOCTYPE svg PUBLIC "-//W3C//DTD SVG 1.1//EN" "http://www.w3.org/Graphics/SVG/1.1/DTD/svg11.dtd">
<svg width="100%" height="100%" viewBox="0 0 25 25" version="1.1" xmlns="http://www.w3.org/2000/svg" xmlns:xlink="http://www.w3.org/1999/xlink" xml:space="preserve" xmlns:serif="http://www.serif.com/" style="fill-rule:evenodd;clip-rule:evenodd;stroke-linejoin:round;stroke-miterlimit:2;">
    <g transform="matrix(1,0,0,1,-110,0)">
        <g id="document" transform="matrix(4.5718,0,0,4.7658,29.5336,-29.3792)">
            <rect x="17.659" y="6.335" width="5.25" height="5.036" style="fill:none;"/>
            <g transform="matrix(0.162625,0,0,0.156005,18.4247,6.62784)">
                <path d="M4.214,29.145C2.809,29.145 1.754,28.792 1.047,28.085C0.349,27.378 0,26.313 0,24.89L0,4.268C0,2.855 0.349,1.79 1.047,1.074C1.754,0.358 2.809,0 4.214,0L10.454,0L10.454,9.978C10.454,11.691 11.31,12.547 13.023,12.547L22.865,12.547L22.865,24.89C22.865,26.304 22.512,27.365 21.805,28.071C21.107,28.787 20.056,29.145 18.651,29.145L4.214,29.145ZM13.064,10.685C12.565,10.685 12.316,10.44 12.316,9.951L12.316,0.15C12.597,0.195 12.883,0.317 13.173,0.517C13.463,0.707 13.766,0.965 14.083,1.291L21.574,8.918C21.9,9.253 22.158,9.561 22.349,9.842C22.539,10.123 22.657,10.404 22.702,10.685L13.064,10.685Z" style="fill-rule:nonzero;"/>
            </g>
        </g>
    </g>
</svg>
