<?xml version="1.0" encoding="UTF-8" standalone="no"?>
<!DOCTYPE svg PUBLIC "-//W3C//DTD SVG 1.1//EN" "http://www.w3.org/Graphics/SVG/1.1/DTD/svg11.dtd">
<svg width="100%" height="100%" viewBox="0 0 25 25" version="1.1" xmlns="http://www.w3.org/2000/svg" xmlns:xlink="http://www.w3.org/1999/xlink" xml:space="preserve" xmlns:serif="http://www.serif.com/" style="fill-rule:evenodd;clip-rule:evenodd;stroke-linejoin:round;stroke-miterlimit:2;">
    <g transform="matrix(1,0,0,1,-82,0)">
        <g id="double-pattern" transform="matrix(4.5718,0,0,4.7658,1.62849,-29.3792)">
            <rect x="17.659" y="6.335" width="5.25" height="5.036" style="fill:none;"/>
            <g transform="matrix(0.11213,0,0,0.107565,17.7685,7.35279)">
                <path d="M43.058,1.809C40.646,-0.603 36.736,-0.603 34.324,1.809C33.643,2.49 33.154,3.291 32.858,4.144C32.613,4.767 32.432,5.425 32.244,6.107C31.725,7.988 31.153,10.06 29.056,12.157C26.96,14.253 24.887,14.825 23.007,15.344C22.623,15.45 22.248,15.553 21.882,15.667C20.749,15.905 19.67,16.464 18.791,17.344C16.379,19.755 16.379,23.665 18.791,26.077C21.202,28.488 25.112,28.488 27.524,26.077C28.405,25.196 28.964,24.115 29.201,22.98C29.315,22.615 29.418,22.241 29.524,21.858C30.043,19.977 30.615,17.905 32.711,15.808C34.807,13.712 36.88,13.14 38.761,12.621C39.433,12.435 40.081,12.257 40.697,12.017C41.559,11.722 42.369,11.23 43.058,10.542C45.469,8.13 45.469,4.22 43.058,1.809ZM26.076,1.809C23.664,-0.603 19.754,-0.603 17.342,1.809C16.661,2.49 16.172,3.291 15.876,4.143C15.631,4.767 15.45,5.424 15.262,6.107C14.743,7.987 14.171,10.06 12.074,12.157C9.978,14.253 7.905,14.825 6.025,15.344C5.641,15.45 5.266,15.553 4.9,15.667C3.767,15.905 2.688,16.464 1.809,17.343C-0.603,19.755 -0.603,23.665 1.809,26.077C4.22,28.488 8.13,28.488 10.542,26.077C11.423,25.196 11.982,24.115 12.219,22.98C12.333,22.615 12.436,22.24 12.542,21.858C13.061,19.977 13.633,17.905 15.729,15.808C17.826,13.712 19.898,13.14 21.779,12.621C22.451,12.435 23.099,12.256 23.715,12.017C24.577,11.722 25.388,11.23 26.076,10.542C28.487,8.13 28.487,4.22 26.076,1.809Z"/>
            </g>
        </g>
    </g>
</svg>
