<?xml version="1.0" encoding="UTF-8" standalone="no"?>
<!DOCTYPE svg PUBLIC "-//W3C//DTD SVG 1.1//EN" "http://www.w3.org/Graphics/SVG/1.1/DTD/svg11.dtd">
<svg width="100%" height="100%" viewBox="0 0 20 20" version="1.1" xmlns="http://www.w3.org/2000/svg" xmlns:xlink="http://www.w3.org/1999/xlink" xml:space="preserve" xmlns:serif="http://www.serif.com/" style="fill-rule:evenodd;clip-rule:evenodd;stroke-linejoin:round;stroke-miterlimit:2;">
    <g transform="matrix(1,0,0,1,-0.248993,-0.301507)">
        <path d="M10.244,19.885C8.971,19.893 7.711,19.637 6.542,19.134C5.398,18.647 4.359,17.944 3.481,17.064C2.605,16.183 1.903,15.145 1.412,14.004C0.909,12.835 0.653,11.575 0.661,10.302C0.661,8.991 0.911,7.757 1.412,6.6C2.403,4.301 4.235,2.465 6.533,1.47C7.702,0.966 8.962,0.71 10.235,0.718C11.552,0.718 12.789,0.968 13.945,1.47C15.088,1.962 16.128,2.667 17.007,3.548C17.889,4.423 18.595,5.459 19.085,6.6C19.589,7.769 19.845,9.029 19.837,10.302C19.837,11.613 19.587,12.847 19.085,14.003C18.093,16.308 16.252,18.145 13.945,19.133C12.777,19.636 11.517,19.892 10.245,19.885L10.244,19.885ZM10.254,11.907C10.804,11.907 11.085,11.619 11.098,11.044L11.246,6.387C11.268,6.126 11.168,5.869 10.977,5.691C10.78,5.503 10.516,5.403 10.244,5.413C9.941,5.413 9.697,5.505 9.511,5.691C9.326,5.869 9.23,6.121 9.251,6.377L9.381,11.053C9.4,11.623 9.691,11.907 10.253,11.907L10.254,11.907ZM10.254,15.098C10.563,15.098 10.829,14.999 11.051,14.801C11.27,14.61 11.393,14.331 11.385,14.041C11.391,13.751 11.268,13.472 11.051,13.28C10.835,13.078 10.549,12.969 10.253,12.974C9.938,12.974 9.669,13.076 9.446,13.28C9.229,13.472 9.107,13.75 9.112,14.04C9.112,14.35 9.224,14.603 9.446,14.801C9.676,14.999 9.944,15.098 10.253,15.098L10.254,15.098Z" style="fill-rule:nonzero;"/>
    </g>
</svg>
