<svg width="20" height="20" viewBox="0 0 20 20" fill="none" xmlns="http://www.w3.org/2000/svg">
<path d="M10.2441 19.8853C8.93294 19.8853 7.69906 19.6348 6.54248 19.1338C5.3859 18.639 4.3654 17.9494 3.48096 17.0649C2.6027 16.1805 1.91309 15.16 1.41211 14.0034C0.911133 12.8468 0.660645 11.613 0.660645 10.3018C0.660645 8.99056 0.911133 7.75667 1.41211 6.6001C1.91309 5.44352 2.6027 4.42611 3.48096 3.54785C4.3654 2.66341 5.38281 1.9707 6.5332 1.46973C7.68978 0.96875 8.92367 0.718262 10.2349 0.718262C11.5522 0.718262 12.7892 0.96875 13.9458 1.46973C15.1024 1.9707 16.1229 2.66341 17.0073 3.54785C17.8918 4.42611 18.5845 5.44352 19.0854 6.6001C19.5864 7.75667 19.8369 8.99056 19.8369 10.3018C19.8369 11.613 19.5864 12.8468 19.0854 14.0034C18.5845 15.16 17.8918 16.1805 17.0073 17.0649C16.1229 17.9494 15.1024 18.639 13.9458 19.1338C12.7892 19.6348 11.5553 19.8853 10.2441 19.8853ZM10.2534 11.9067C10.8039 11.9067 11.0853 11.6191 11.0977 11.0439L11.2461 6.38672C11.2585 6.10221 11.1688 5.87028 10.9771 5.69092C10.7853 5.50537 10.541 5.4126 10.2441 5.4126C9.94108 5.4126 9.69678 5.50537 9.51123 5.69092C9.32568 5.87028 9.2391 6.09912 9.25146 6.37744L9.38135 11.0532C9.3999 11.6222 9.69059 11.9067 10.2534 11.9067ZM10.2534 15.0981C10.5627 15.0981 10.8286 14.9992 11.0513 14.8013C11.2739 14.6034 11.3853 14.3498 11.3853 14.0405C11.3853 13.7375 11.2739 13.4839 11.0513 13.2798C10.8286 13.0757 10.5627 12.9736 10.2534 12.9736C9.93799 12.9736 9.66895 13.0757 9.44629 13.2798C9.22363 13.4839 9.1123 13.7375 9.1123 14.0405C9.1123 14.3498 9.22363 14.6034 9.44629 14.8013C9.67513 14.9992 9.94417 15.0981 10.2534 15.0981Z" fill="#EF4444"/>
</svg>
