<svg width="100%" height="100%" viewBox="0 0 40 40" fill="none" xmlns="http://www.w3.org/2000/svg">
<path d="M15.2764 16.616C12.0451 20.3301 12.2521 25.8069 15.9087 29.2562C19.8027 32.9295 26.1343 32.9123 30.0507 29.2179C33.73 25.7473 33.9688 20.2661 30.7559 16.5694C30.7305 16.5261 30.7024 16.4833 30.6715 16.4411L24.221 7.62242C23.6059 6.78149 22.2821 6.79509 21.6763 7.64856L15.2764 16.616Z" fill="white"/>
<path d="M9.78426 16.6219C7.2124 19.7558 7.37711 24.377 10.2876 27.2875C13.387 30.3869 18.4266 30.3725 21.5439 27.2552C24.4723 24.3267 24.6625 19.7017 22.1051 16.5826C22.0849 16.546 22.0626 16.5099 22.038 16.4743L16.9037 9.03323C16.4141 8.32366 15.3605 8.33514 14.8783 9.05529L9.78426 16.6219Z" fill="#B7CDFF"/>
</svg>
