<svg width="72" height="72" viewBox="0 0 72 72" fill="none" xmlns="http://www.w3.org/2000/svg">
<rect x="19.8008" y="28.8" width="32.4" height="28.8" rx="4" fill="white"/>
<path d="M37.9959 18.5907C39.1162 15.6086 42.3471 13.7254 45.5019 14.3225C48.8615 14.9584 50.8624 18.1665 49.9711 21.4879C49.1339 24.6081 46.0419 26.7184 42.8851 26.4354C42.852 26.4383 42.8184 26.4396 42.7842 26.4393L35.639 26.3782C34.9576 26.3724 34.545 25.698 34.8459 25.0819L37.9959 18.5907Z" fill="#B7CDFF"/>
<path d="M34.32 18.5907C33.1998 15.6086 29.9688 13.7254 26.8141 14.3225C23.4545 14.9584 21.4535 18.1665 22.3448 21.4879C23.1821 24.6081 26.274 26.7184 29.4308 26.4354C29.4639 26.4383 29.4976 26.4396 29.5317 26.4393L36.677 26.3782C37.3583 26.3724 37.7709 25.698 37.4701 25.0819L34.32 18.5907Z" fill="#B7CDFF"/>
</svg>
