<svg width="41" height="34" viewBox="0 0 41 34" fill="none" xmlns="http://www.w3.org/2000/svg">
<path d="M6.51784 15.9272C7.20313 15.9272 7.7604 15.7095 8.18966 15.2742C8.61891 14.8311 8.83353 14.2559 8.83353 13.5485C8.83353 12.8644 8.64903 12.3164 8.28002 11.9044C7.91102 11.4924 7.42905 11.2864 6.83413 11.2864C6.52537 11.2864 6.2505 11.3369 6.00951 11.4379C5.76853 11.539 5.56143 11.7022 5.38823 11.9277H5.15101C5.1962 11.7178 5.2828 11.5118 5.41082 11.3097C5.53884 11.1076 5.70075 10.9249 5.89655 10.7616C6.07729 10.6062 6.27309 10.474 6.48395 10.3652C6.69481 10.2563 6.92449 10.1747 7.17301 10.1203C7.38387 10.0737 7.52695 10.0154 7.60226 9.9454C7.6851 9.86766 7.72652 9.76272 7.72652 9.63057C7.72652 9.35072 7.56461 9.21079 7.24078 9.21079C6.87178 9.21079 6.47642 9.31574 6.0547 9.52562C5.63298 9.73551 5.26397 10.0154 4.94768 10.3652C4.63139 10.7228 4.39417 11.127 4.23603 11.5779C4.07788 12.021 3.99881 12.4874 3.99881 12.9771C3.99881 13.91 4.24356 14.6368 4.73306 15.1576C5.22255 15.6707 5.81748 15.9272 6.51784 15.9272ZM12.6855 15.9155C13.3708 15.9155 13.9281 15.6979 14.3573 15.2626C14.7941 14.8195 15.0125 14.2442 15.0125 13.5368C15.0125 12.8527 14.828 12.3047 14.459 11.8927C14.09 11.4807 13.6042 11.2747 13.0018 11.2747C12.7006 11.2747 12.4257 11.3252 12.1772 11.4263C11.9362 11.5273 11.7291 11.6906 11.5559 11.916H11.33C11.3751 11.7139 11.458 11.5157 11.5785 11.3213C11.699 11.1192 11.8533 10.9365 12.0416 10.7733C12.2224 10.6023 12.4219 10.4662 12.6403 10.3652C12.8587 10.2563 13.0959 10.1708 13.352 10.1086C13.5628 10.062 13.7059 10.0037 13.7812 9.93374C13.8641 9.856 13.9055 9.75106 13.9055 9.61891C13.9055 9.33906 13.7398 9.19913 13.4084 9.19913C13.0394 9.19913 12.6403 9.30796 12.2111 9.52562C11.7893 9.74329 11.4279 10.0192 11.1266 10.3535C10.8103 10.7111 10.5731 11.1153 10.415 11.5662C10.2568 12.0093 10.1778 12.4757 10.1778 12.9655C10.1778 13.8983 10.4225 14.6251 10.912 15.146C11.4015 15.659 11.9927 15.9155 12.6855 15.9155ZM4.99287 19.8568H14.0297C14.2255 19.8568 14.3912 19.7868 14.5268 19.6469C14.6623 19.507 14.7301 19.3359 14.7301 19.1338C14.7301 18.9317 14.6623 18.7646 14.5268 18.6324C14.3912 18.4925 14.2255 18.4225 14.0297 18.4225H4.99287C4.78954 18.4225 4.6201 18.4925 4.48454 18.6324C4.34899 18.7646 4.28121 18.9317 4.28121 19.1338C4.28121 19.3359 4.34899 19.507 4.48454 19.6469C4.6201 19.7868 4.78954 19.8568 4.99287 19.8568ZM4.99287 23.9263H9.30797C9.5113 23.9263 9.67697 23.8602 9.80499 23.728C9.94055 23.5881 10.0083 23.4171 10.0083 23.215C10.0083 23.0129 9.94055 22.8419 9.80499 22.7019C9.67697 22.562 9.5113 22.492 9.30797 22.492H4.99287C4.78954 22.492 4.6201 22.562 4.48454 22.7019C4.34899 22.8419 4.28121 23.0129 4.28121 23.215C4.28121 23.4171 4.34899 23.5881 4.48454 23.728C4.6201 23.8602 4.78954 23.9263 4.99287 23.9263ZM0 25.4538V7.7649C0 6.55221 0.289933 5.63881 0.869798 5.02469C1.45719 4.41057 2.33452 4.10352 3.50178 4.10352H15.4982C16.6655 4.10352 17.539 4.41057 18.1189 5.02469C18.7063 5.63881 19 6.55221 19 7.7649V25.4538C19 26.6743 18.7063 27.5877 18.1189 28.194C17.539 28.8003 16.6655 29.1035 15.4982 29.1035H3.50178C2.33452 29.1035 1.45719 28.8003 0.869798 28.194C0.289933 27.5877 0 26.6743 0 25.4538Z" fill="#487AEE"/>
<path d="M24.7383 8.95524C24.7382 8.95534 24.7357 8.9552 24.7312 8.95454C24.7361 8.95482 24.7384 8.95515 24.7383 8.95524ZM24.3348 8.27352C24.3601 8.21153 24.396 8.15555 24.4381 8.10879L24.5098 8.44351L24.61 8.91108C24.5797 8.89491 24.5457 8.87296 24.5102 8.84323C24.4271 8.77363 24.3673 8.68636 24.3327 8.59931C24.3005 8.51837 24.2983 8.45939 24.2983 8.44351C24.2983 8.41238 24.3035 8.35033 24.3348 8.27352ZM29.2482 12.3314C29.2482 12.256 29.2502 12.1816 29.2543 12.1079H29.6348H29.9066H30.3899L30.6901 11.7293C30.798 11.5934 30.9089 11.5138 31.0261 11.4653C31.1935 11.4002 31.3963 11.3602 31.6467 11.3602C32.1264 11.3602 32.4329 11.5074 32.666 11.7596C32.9035 12.0165 33.0664 12.3936 33.0664 12.9975C33.0664 13.5889 32.8877 13.9908 32.577 14.2961C32.2738 14.5939 31.868 14.7706 31.266 14.7706C30.7035 14.7706 30.2489 14.5813 29.847 14.1745C29.4878 13.8028 29.2482 13.2341 29.2482 12.3314ZM32.1586 8.94115C32.1639 8.94151 32.1664 8.9419 32.1663 8.94201C32.1662 8.94212 32.1635 8.94194 32.1586 8.94115ZM28.5337 10.7001L28.5336 10.7001L28.5337 10.7001ZM16.3351 2.37133L16.3351 2.37131L16.3306 2.37593C15.3868 3.34422 15 4.7027 15 6.26848V26.8904C15 28.462 15.3854 29.8255 16.3351 30.7875L16.3351 30.7875L16.3396 30.7921C17.2991 31.7516 18.6531 32.1453 20.2141 32.1453H34.6509C36.2096 32.1453 37.562 31.7527 38.514 30.7899C39.4741 29.8284 39.8651 28.4641 39.8651 26.8904V6.26848C39.8651 4.70071 39.4726 3.34132 38.5185 2.37356C37.5671 1.39899 36.2129 1 34.6509 1H20.2141C18.6498 1 17.2941 1.40005 16.3351 2.37133Z" fill="#487AEE" stroke="white" stroke-width="2"/>
</svg>
