<?xml version="1.0" encoding="UTF-8" standalone="no"?>
<!DOCTYPE svg PUBLIC "-//W3C//DTD SVG 1.1//EN" "http://www.w3.org/Graphics/SVG/1.1/DTD/svg11.dtd">
<svg width="100%" height="100%" viewBox="0 0 25 25" version="1.1" xmlns="http://www.w3.org/2000/svg" xmlns:xlink="http://www.w3.org/1999/xlink" xml:space="preserve" xmlns:serif="http://www.serif.com/" style="fill-rule:evenodd;clip-rule:evenodd;stroke-linejoin:round;stroke-miterlimit:2;">
    <g transform="matrix(1,0,0,1,-140,0)">
        <g id="helix" transform="matrix(4.5718,0,0,4.7658,59.3165,-29.2274)">
            <rect x="17.659" y="6.335" width="5.25" height="5.036" style="fill:none;"/>
            <g transform="matrix(0.154441,0,0,0.148155,17.7685,6.66031)">
                <path d="M13.996,10.363L12.099,9.264C11.71,9.03 11.422,8.758 11.238,8.446C11.053,8.125 10.96,7.731 10.96,7.264L10.96,4.024C10.96,3.548 11.053,3.149 11.238,2.828C11.422,2.507 11.71,2.234 12.099,2.01L14.945,0.39C15.869,-0.125 16.769,-0.13 17.644,0.376L20.49,2.025C20.889,2.258 21.176,2.531 21.351,2.842C21.527,3.154 21.614,3.548 21.614,4.024L21.614,7.264C21.614,7.741 21.522,8.14 21.337,8.461C21.162,8.772 20.88,9.04 20.49,9.264L18.695,10.304L18.695,17.436L23.594,19.909L26.313,18.37C26.693,18.156 27.068,18.049 27.437,18.049C27.817,18.04 28.201,18.147 28.59,18.37L31.421,20.005C31.83,20.248 32.122,20.525 32.297,20.837C32.482,21.148 32.574,21.537 32.574,22.004L32.56,25.273C32.56,26.314 32.107,27.098 31.203,27.623L28.371,29.243C27.972,29.467 27.593,29.584 27.233,29.593C26.873,29.603 26.484,29.486 26.065,29.243L23.278,27.623C22.86,27.38 22.563,27.107 22.388,26.806C22.212,26.504 22.12,26.12 22.11,25.653L22.099,24.394L16.346,21.494L10.475,24.453L10.464,25.638C10.454,26.096 10.362,26.475 10.187,26.776C10.012,27.088 9.715,27.365 9.297,27.608L6.494,29.228C6.076,29.472 5.687,29.588 5.327,29.579C4.977,29.569 4.602,29.452 4.203,29.228L1.372,27.608C0.467,27.083 0.015,26.3 0.015,25.259L0,21.975C0,21.518 0.088,21.134 0.263,20.822C0.448,20.501 0.744,20.224 1.153,19.99L3.984,18.356C4.373,18.122 4.753,18.01 5.123,18.02C5.492,18.03 5.872,18.142 6.261,18.356L9.046,19.931L13.996,17.436L13.996,10.363Z" style="fill-rule:nonzero;"/>
            </g>
        </g>
    </g>
</svg>
