<?xml version="1.0" encoding="UTF-8" standalone="no"?>
<!DOCTYPE svg PUBLIC "-//W3C//DTD SVG 1.1//EN" "http://www.w3.org/Graphics/SVG/1.1/DTD/svg11.dtd">
<svg width="100%" height="100%" viewBox="0 0 25 25" version="1.1" xmlns="http://www.w3.org/2000/svg" xmlns:xlink="http://www.w3.org/1999/xlink" xml:space="preserve" xmlns:serif="http://www.serif.com/" style="fill-rule:evenodd;clip-rule:evenodd;stroke-linejoin:round;stroke-miterlimit:2;">
    <g transform="matrix(1,0,0,1,-169,-1)">
        <g id="logo" transform="matrix(4.5718,0,0,4.7658,88.4661,-28.8887)">
            <rect x="17.659" y="6.335" width="5.25" height="5.036" style="fill:none;"/>
            <g transform="matrix(0.162589,0,0,0.15597,-3.39884,1.27581)">
                <g transform="matrix(1,0,0,1,130.862,33.7796)">
                    <path d="M1.921,1.92C-0.639,4.479 -0.639,8.629 1.921,11.189C2.656,11.924 3.521,12.448 4.443,12.761C5.092,13.012 5.774,13.2 6.483,13.395L6.483,13.395C8.479,13.946 10.679,14.553 12.904,16.778C15.129,19.003 15.736,21.203 16.287,23.199L16.287,23.2C16.397,23.601 16.506,23.993 16.625,24.376C16.875,25.586 17.469,26.738 18.408,27.677C20.967,30.236 25.117,30.236 27.677,27.677C30.237,25.117 30.237,20.967 27.677,18.407C26.742,17.472 25.594,16.878 24.389,16.627C24.002,16.506 23.605,16.397 23.2,16.285C21.203,15.734 19.004,15.127 16.779,12.902C14.553,10.677 13.946,8.477 13.396,6.481C13.201,5.778 13.015,5.1 12.766,4.456C12.454,3.529 11.929,2.658 11.19,1.92C8.63,-0.64 4.48,-0.64 1.921,1.92Z"/>
                </g>
                <g transform="matrix(1,0,0,1,130.862,33.7796)">
                    <path d="M27.676,1.92C25.116,-0.64 20.966,-0.64 18.407,1.92C17.684,2.643 17.165,3.493 16.85,4.398C16.591,5.06 16.398,5.757 16.198,6.482C15.866,7.685 15.514,8.962 14.799,10.274C14.328,11.139 13.699,12.019 12.815,12.903C11.985,13.733 11.159,14.337 10.345,14.798C8.978,15.573 7.646,15.94 6.394,16.286C5.988,16.398 5.589,16.508 5.201,16.629C3.999,16.881 2.853,17.474 1.92,18.408C-0.64,20.967 -0.64,25.117 1.92,27.677C4.479,30.237 8.629,30.237 11.189,27.677C12.124,26.742 12.717,25.595 12.969,24.391C13.09,24.003 13.2,23.606 13.312,23.2C13.657,21.948 14.024,20.616 14.799,19.249C15.26,18.435 15.865,17.608 16.695,16.779C17.576,15.897 18.454,15.269 19.317,14.798C20.631,14.081 21.911,13.728 23.116,13.396C23.829,13.198 24.517,13.009 25.17,12.755C26.086,12.441 26.946,11.919 27.676,11.189C30.236,8.629 30.236,4.479 27.676,1.92Z"/>
                </g>
            </g>
        </g>
    </g>
</svg>
