<svg width="100%" height="100%" viewBox="0 0 24 24" fill="none" xmlns="http://www.w3.org/2000/svg">
  <rect width="24" height="24" fill="white"/>
  <path d="M1 12.3644C1 11.8121 1.44772 11.3644 2 11.3644H22C22.5523 11.3644 23 11.8121 23 12.3644C23 12.9166 22.5523 13.3644 22 13.3644H2C1.44772 13.3644 1 12.9166 1 12.3644Z" fill="#487AEE"/>
  <path d="M14.9285 5.29289C15.3191 4.90237 15.9522 4.90237 16.3428 5.29289L22.707 11.6572C23.0976 12.0477 23.0976 12.6809 22.707 13.0714C22.3165 13.4619 21.6833 13.4619 21.2928 13.0714L14.9285 6.70711C14.538 6.31658 14.538 5.68342 14.9285 5.29289Z" fill="#487AEE"/>
  <path d="M14.92 19.4468C15.3103 19.8371 15.9431 19.8371 16.3334 19.4468L22.6982 13.082C23.0885 12.6917 23.0885 12.0589 22.6982 11.6686C22.3079 11.2783 21.6751 11.2783 21.2848 11.6686L14.92 18.0334C14.5297 18.4237 14.5297 19.0565 14.92 19.4468Z" fill="#487AEE"/>
</svg>
