<svg width="72" height="72" viewBox="0 0 72 72" fill="none" xmlns="http://www.w3.org/2000/svg">
<path fill-rule="evenodd" clip-rule="evenodd" d="M48.6373 59.4004C53.5945 59.4073 57.607 55.6427 57.5996 50.9919C57.5975 49.6781 57.2749 48.4342 56.7012 47.3253C56.3102 46.4874 55.82 45.6782 55.3109 44.8379C53.9077 42.522 52.3613 39.9698 52.3548 35.9269C52.3484 31.884 53.8867 29.336 55.2826 27.024C55.567 26.5529 55.8455 26.0916 56.1038 25.6295C57.0215 24.3089 57.5536 22.7304 57.5509 21.034C57.5435 16.3832 53.519 12.6073 48.5619 12.6004C43.6048 12.5935 39.5922 16.3581 39.5996 21.0089C39.6023 22.7077 40.141 24.2898 41.0653 25.6141C41.3247 26.0761 41.6041 26.5373 41.8895 27.0083C43.2927 29.3242 44.8391 31.8765 44.8455 35.9194C44.852 39.9623 43.3136 42.5102 41.9178 44.8222C41.4188 45.6488 40.9379 46.4454 40.5523 47.2692C39.9714 48.3849 39.6462 49.6397 39.6483 50.9667C39.6557 55.6176 43.6802 59.3934 48.6373 59.4004Z" fill="white"/>
<circle cx="21.9596" cy="49.7272" r="9.36" fill="#B7CDFF"/>
</svg>
