<svg width="72" height="72" viewBox="0 0 72 72" fill="none" xmlns="http://www.w3.org/2000/svg">
<path fill-rule="evenodd" clip-rule="evenodd" d="M41.6907 37.2004C38.7185 39.6966 34.8846 41.2 30.6996 41.2C21.2555 41.2 13.5996 33.5441 13.5996 24.1C13.5996 14.6559 21.2555 7 30.6996 7C38.1411 7 44.4724 11.7533 46.8228 18.3894C47.9791 18.007 49.2152 17.8 50.4996 17.8C56.9613 17.8 62.1996 23.0383 62.1996 29.5C62.1996 35.9617 56.9613 41.2 50.4996 41.2C46.9866 41.2 43.8353 39.6518 41.6907 37.2004Z" fill="#B7CDFF"/>
<path d="M15.4004 38.2596L28.8976 17V38.2596H15.4004Z" fill="#487AEE"/>
<path d="M42.4004 37.1404L28.9032 58.4V37.1404H42.4004Z" fill="#487AEE"/>
<path d="M15.4004 38.2596L28.8976 17V38.2596H15.4004Z" stroke="#487AEE" stroke-width="6" stroke-linejoin="round"/>
<path d="M42.4004 37.1404L28.9032 58.4V37.1404H42.4004Z" stroke="#487AEE" stroke-width="6" stroke-linejoin="round"/>
</svg>
