<?xml version="1.0" encoding="UTF-8" standalone="no"?>
<!DOCTYPE svg PUBLIC "-//W3C//DTD SVG 1.1//EN" "http://www.w3.org/Graphics/SVG/1.1/DTD/svg11.dtd">
<svg width="100%" height="100%" viewBox="0 0 20 20" version="1.1" xmlns="http://www.w3.org/2000/svg" xmlns:xlink="http://www.w3.org/1999/xlink" xml:space="preserve" xmlns:serif="http://www.serif.com/" style="fill-rule:evenodd;clip-rule:evenodd;stroke-linejoin:round;stroke-miterlimit:2;">
    <g transform="matrix(1,0,0,1,-0.248993,-0.301507)">
        <path d="M10.244,19.885C8.971,19.893 7.711,19.637 6.542,19.134C5.398,18.647 4.359,17.944 3.481,17.064C2.605,16.183 1.903,15.145 1.412,14.004C0.909,12.835 0.653,11.575 0.661,10.302C0.661,8.991 0.911,7.757 1.412,6.6C2.403,4.301 4.235,2.465 6.533,1.47C7.702,0.966 8.962,0.71 10.235,0.718C11.552,0.718 12.789,0.968 13.945,1.47C15.088,1.962 16.128,2.667 17.007,3.548C17.889,4.423 18.595,5.459 19.085,6.6C19.589,7.769 19.845,9.029 19.837,10.302C19.837,11.613 19.587,12.847 19.085,14.003C18.093,16.308 16.252,18.145 13.945,19.133C12.777,19.636 11.517,19.892 10.245,19.885L10.244,19.885ZM9.214,14.875C9.388,14.875 9.545,14.835 9.687,14.755C9.836,14.675 9.966,14.554 10.077,14.393L14.419,7.621C14.481,7.521 14.536,7.416 14.586,7.305C14.633,7.2 14.658,7.086 14.66,6.971C14.666,6.743 14.563,6.526 14.382,6.387C14.211,6.242 13.994,6.162 13.77,6.164C13.467,6.164 13.216,6.324 13.018,6.646L9.178,12.788L7.396,10.524C7.298,10.393 7.175,10.283 7.034,10.2C6.911,10.137 6.774,10.105 6.635,10.107C6.406,10.104 6.187,10.199 6.032,10.367C5.874,10.527 5.787,10.745 5.791,10.97C5.791,11.087 5.813,11.204 5.856,11.313C5.899,11.424 5.961,11.533 6.042,11.638L8.314,14.402C8.451,14.569 8.59,14.69 8.732,14.764C8.874,14.838 9.035,14.876 9.214,14.876L9.214,14.875Z" style="fill-rule:nonzero;"/>
    </g>
</svg>
