<svg width="20" height="20" viewBox="0 0 20 20" fill="none" xmlns="http://www.w3.org/2000/svg">
<path d="M10.2441 19.8853C8.93294 19.8853 7.69906 19.6348 6.54248 19.1338C5.3859 18.639 4.3654 17.9494 3.48096 17.0649C2.6027 16.1805 1.91309 15.16 1.41211 14.0034C0.911133 12.8468 0.660645 11.613 0.660645 10.3018C0.660645 8.99056 0.911133 7.75667 1.41211 6.6001C1.91309 5.44352 2.6027 4.42611 3.48096 3.54785C4.3654 2.66341 5.38281 1.9707 6.5332 1.46973C7.68978 0.96875 8.92367 0.718262 10.2349 0.718262C11.5522 0.718262 12.7892 0.96875 13.9458 1.46973C15.1024 1.9707 16.1229 2.66341 17.0073 3.54785C17.8918 4.42611 18.5845 5.44352 19.0854 6.6001C19.5864 7.75667 19.8369 8.99056 19.8369 10.3018C19.8369 11.613 19.5864 12.8468 19.0854 14.0034C18.5845 15.16 17.8918 16.1805 17.0073 17.0649C16.1229 17.9494 15.1024 18.639 13.9458 19.1338C12.7892 19.6348 11.5553 19.8853 10.2441 19.8853ZM9.21436 14.8755C9.38753 14.8755 9.54525 14.8353 9.6875 14.7549C9.83594 14.6745 9.96582 14.5539 10.0771 14.3931L14.4189 7.62061C14.4808 7.52165 14.5365 7.4165 14.5859 7.30518C14.6354 7.18766 14.6602 7.07633 14.6602 6.97119C14.6602 6.72998 14.5674 6.53516 14.3818 6.38672C14.2025 6.23828 13.9984 6.16406 13.7695 6.16406C13.4665 6.16406 13.216 6.32487 13.0181 6.64648L9.17725 12.7881L7.396 10.5244C7.2723 10.3698 7.15169 10.2616 7.03418 10.1997C6.91667 10.1379 6.78369 10.1069 6.63525 10.1069C6.40023 10.1069 6.19922 10.1935 6.03223 10.3667C5.87142 10.5337 5.79102 10.7347 5.79102 10.9697C5.79102 11.0872 5.81266 11.2017 5.85596 11.313C5.89925 11.4243 5.9611 11.5326 6.0415 11.6377L8.31445 14.4023C8.45052 14.5693 8.58968 14.6899 8.73193 14.7642C8.87419 14.8384 9.03499 14.8755 9.21436 14.8755Z" fill="#19AA86"/>
</svg>
