<svg width="100%" height="100%" viewBox="0 0 40 40" fill="none" xmlns="http://www.w3.org/2000/svg">
<path fill-rule="evenodd" clip-rule="evenodd" d="M8.6874 8.68643C6.43883 10.935 6.43883 14.5806 8.6874 16.8292C9.3329 17.4747 10.0935 17.9349 10.9032 18.2098C11.4732 18.4303 12.0727 18.5957 12.6948 18.7674L12.6948 18.7674L12.6949 18.7674L12.6949 18.7674C14.4484 19.2513 16.381 19.7846 18.3356 21.7393C20.2903 23.6939 20.8236 25.6265 21.3075 27.38L21.3075 27.3801C21.4047 27.7324 21.4999 28.0774 21.6043 28.414C21.8241 29.4764 22.3463 30.4887 23.1708 31.3132C25.4194 33.5617 29.065 33.5617 31.3136 31.3132C33.5621 29.0646 33.5621 25.419 31.3136 23.1704C30.4918 22.3486 29.4835 21.8272 28.4249 21.6061C28.0849 21.5004 27.7363 21.4042 27.3802 21.3059C25.6266 20.822 23.6941 20.2887 21.7394 18.3341C19.7848 16.3794 19.2515 14.4469 18.7676 12.6933C18.5972 12.0758 18.4329 11.4805 18.2148 10.9142C17.9404 10.1 17.4789 9.3351 16.8302 8.68643C14.5816 6.43786 10.936 6.43786 8.6874 8.68643Z" fill="#487AEE"/>
<path fill-rule="evenodd" clip-rule="evenodd" d="M31.3126 8.68643C29.064 6.43786 25.4184 6.43786 23.1698 8.68643C22.5346 9.32159 22.0789 10.0682 21.8026 10.8634C21.5745 11.445 21.4054 12.0577 21.2298 12.6939C20.7459 14.4475 20.2126 16.38 18.258 18.3346C16.3033 20.2893 14.3708 20.8226 12.6172 21.3065C12.2599 21.4051 11.91 21.5017 11.5689 21.6078C10.5126 21.8296 9.50659 22.3506 8.68643 23.1708C6.43786 25.4194 6.43786 29.065 8.68643 31.3136C10.935 33.5621 14.5806 33.5621 16.8292 31.3136C17.6505 30.4922 18.1719 29.4845 18.3932 28.4265C18.4991 28.086 18.5954 27.7368 18.6938 27.3802C19.1777 25.6266 19.711 23.6941 21.6657 21.7394C23.6203 19.7848 25.5529 19.2515 27.3064 18.7676C27.9334 18.5946 28.5375 18.4279 29.1116 18.2048C29.9157 17.9293 30.671 17.4708 31.3126 16.8292C33.5612 14.5806 33.5612 10.935 31.3126 8.68643Z" fill="#487AEE"/>
</svg>
