<?xml version="1.0" encoding="UTF-8" standalone="no"?>
<!DOCTYPE svg PUBLIC "-//W3C//DTD SVG 1.1//EN" "http://www.w3.org/Graphics/SVG/1.1/DTD/svg11.dtd">
<svg width="100%" height="100%" viewBox="0 0 222 563" version="1.1" xmlns="http://www.w3.org/2000/svg" xmlns:xlink="http://www.w3.org/1999/xlink" xml:space="preserve" xmlns:serif="http://www.serif.com/" style="fill-rule:evenodd;clip-rule:evenodd;">
    <g>
        <g transform="matrix(-3.82857e-16,-1,1,-3.82857e-16,-83,123)">
            <path d="M122,116C122,108.825 116.175,103 109,103L33,103C25.825,103 20,108.825 20,116L20,192C20,199.175 25.825,205 33,205L109,205C116.175,205 122,199.175 122,192L122,116Z" style="fill:none;stroke:rgb(214,227,255);stroke-width:2px;"/>
        </g>
        <path d="M52.903,81.3C52.903,81.233 52.937,81.2 53.003,81.2L57.263,81.2C57.33,81.2 57.363,81.233 57.363,81.3L57.363,82.16C57.363,82.227 57.33,82.26 57.263,82.26L54.143,82.26C54.103,82.26 54.083,82.28 54.083,82.32L54.083,83.98C54.083,84.02 54.103,84.04 54.143,84.04L56.773,84.04C56.84,84.04 56.873,84.073 56.873,84.14L56.873,85C56.873,85.067 56.84,85.1 56.773,85.1L54.143,85.1C54.103,85.1 54.083,85.12 54.083,85.16L54.083,86.88C54.083,86.92 54.103,86.94 54.143,86.94L57.263,86.94C57.33,86.94 57.363,86.973 57.363,87.04L57.363,87.9C57.363,87.967 57.33,88 57.263,88L53.003,88C52.937,88 52.903,87.967 52.903,87.9L52.903,81.3ZM59.006,81.3C59.006,81.233 59.04,81.2 59.106,81.2L60.026,81.2C60.1,81.2 60.156,81.233 60.196,81.3L62.966,85.99L63.006,85.99L63.006,81.3C63.006,81.233 63.04,81.2 63.106,81.2L63.976,81.2C64.043,81.2 64.076,81.233 64.076,81.3L64.076,87.9C64.076,87.967 64.043,88 63.976,88L63.066,88C62.993,88 62.936,87.967 62.896,87.9L60.116,83.22L60.076,83.22L60.076,87.9C60.076,87.967 60.043,88 59.976,88L59.106,88C59.04,88 59.006,87.967 59.006,87.9L59.006,81.3ZM65.979,81.3C65.979,81.233 66.012,81.2 66.079,81.2L70.339,81.2C70.405,81.2 70.439,81.233 70.439,81.3L70.439,82.16C70.439,82.227 70.405,82.26 70.339,82.26L67.219,82.26C67.179,82.26 67.159,82.28 67.159,82.32L67.159,83.98C67.159,84.02 67.179,84.04 67.219,84.04L69.849,84.04C69.915,84.04 69.949,84.073 69.949,84.14L69.949,85C69.949,85.067 69.915,85.1 69.849,85.1L67.219,85.1C67.179,85.1 67.159,85.12 67.159,85.16L67.159,86.88C67.159,86.92 67.179,86.94 67.219,86.94L70.339,86.94C70.405,86.94 70.439,86.973 70.439,87.04L70.439,87.9C70.439,87.967 70.405,88 70.339,88L66.079,88C66.012,88 65.979,87.967 65.979,87.9L65.979,81.3ZM74.772,84.19C75.085,84.19 75.335,84.103 75.522,83.93C75.715,83.757 75.812,83.523 75.812,83.23C75.812,82.93 75.715,82.693 75.522,82.52C75.335,82.347 75.085,82.26 74.772,82.26L73.322,82.26C73.282,82.26 73.262,82.28 73.262,82.32L73.262,84.13C73.262,84.17 73.282,84.19 73.322,84.19L74.772,84.19ZM75.942,88C75.869,88 75.819,87.967 75.792,87.9L74.492,85.25L73.322,85.25C73.282,85.25 73.262,85.27 73.262,85.31L73.262,87.9C73.262,87.967 73.229,88 73.162,88L72.182,88C72.115,88 72.082,87.967 72.082,87.9L72.082,81.3C72.082,81.233 72.115,81.2 72.182,81.2L74.812,81.2C75.125,81.2 75.412,81.25 75.672,81.35C75.939,81.45 76.169,81.59 76.362,81.77C76.555,81.943 76.705,82.157 76.812,82.41C76.925,82.657 76.982,82.93 76.982,83.23C76.982,83.677 76.865,84.063 76.632,84.39C76.399,84.717 76.085,84.953 75.692,85.1L77.122,87.87C77.142,87.903 77.142,87.933 77.122,87.96C77.109,87.987 77.085,88 77.052,88L75.942,88ZM78.624,86.47C78.591,86.363 78.561,86.257 78.534,86.15C78.514,86.043 78.497,85.92 78.484,85.78C78.471,85.64 78.461,85.477 78.454,85.29C78.447,85.097 78.444,84.867 78.444,84.6C78.444,84.333 78.447,84.107 78.454,83.92C78.461,83.727 78.471,83.56 78.484,83.42C78.497,83.28 78.514,83.157 78.534,83.05C78.561,82.943 78.591,82.837 78.624,82.73C78.797,82.19 79.094,81.783 79.514,81.51C79.934,81.23 80.447,81.09 81.054,81.09C81.374,81.09 81.664,81.13 81.924,81.21C82.184,81.29 82.414,81.397 82.614,81.53C82.814,81.657 82.981,81.81 83.114,81.99C83.247,82.163 83.351,82.343 83.424,82.53C83.451,82.59 83.437,82.637 83.384,82.67L82.544,83.04C82.484,83.06 82.441,83.043 82.414,82.99C82.261,82.717 82.077,82.51 81.864,82.37C81.651,82.223 81.377,82.15 81.044,82.15C80.697,82.15 80.421,82.23 80.214,82.39C80.007,82.543 79.857,82.76 79.764,83.04C79.744,83.1 79.724,83.17 79.704,83.25C79.691,83.33 79.677,83.43 79.664,83.55C79.657,83.67 79.651,83.817 79.644,83.99L79.644,85.22C79.651,85.387 79.657,85.53 79.664,85.65C79.677,85.77 79.691,85.87 79.704,85.95C79.724,86.03 79.744,86.1 79.764,86.16C79.857,86.44 80.007,86.66 80.214,86.82C80.421,86.973 80.697,87.05 81.044,87.05C81.344,87.05 81.611,86.98 81.844,86.84C82.077,86.693 82.241,86.48 82.334,86.2C82.367,86.093 82.394,85.97 82.414,85.83C82.434,85.683 82.444,85.513 82.444,85.32C82.444,85.28 82.424,85.26 82.384,85.26L81.264,85.26C81.197,85.26 81.164,85.227 81.164,85.16L81.164,84.36C81.164,84.293 81.197,84.26 81.264,84.26L83.514,84.26C83.581,84.26 83.614,84.293 83.614,84.36L83.614,84.95C83.614,85.23 83.601,85.507 83.574,85.78C83.547,86.047 83.507,86.267 83.454,86.44C83.287,86.973 82.991,87.387 82.564,87.68C82.144,87.967 81.641,88.11 81.054,88.11C80.447,88.11 79.934,87.973 79.514,87.7C79.094,87.42 78.797,87.01 78.624,86.47ZM86.675,88C86.609,88 86.575,87.967 86.575,87.9L86.575,85.22L84.605,81.3C84.579,81.233 84.605,81.2 84.685,81.2L85.695,81.2C85.762,81.2 85.809,81.233 85.835,81.3L87.165,83.94L87.195,83.94L88.535,81.3C88.562,81.233 88.609,81.2 88.675,81.2L89.645,81.2C89.725,81.2 89.752,81.233 89.725,81.3L87.755,85.22L87.755,87.9C87.755,87.967 87.722,88 87.655,88L86.675,88Z" style="fill:rgb(56,84,148);fill-opacity:0.9;fill-rule:nonzero;"/>
        <path d="M61,42.142L69.932,28L69.932,42.142L61,42.142Z" style="fill:rgb(56,84,148);fill-rule:nonzero;stroke:rgb(56,84,148);stroke-width:4px;stroke-linejoin:round;"/>
        <path d="M78.868,41.398L69.936,55.54L69.936,41.398L78.868,41.398Z" style="fill:rgb(56,84,148);fill-rule:nonzero;stroke:rgb(56,84,148);stroke-width:4px;stroke-linejoin:round;"/>
        <path d="M72,103C72,102.448 71.552,102 71,102C70.448,102 70,102.448 70,103L72,103ZM70.293,206.707C70.683,207.098 71.317,207.098 71.707,206.707L78.071,200.343C78.462,199.953 78.462,199.319 78.071,198.929C77.681,198.538 77.047,198.538 76.657,198.929L71,204.586L65.343,198.929C64.953,198.538 64.32,198.538 63.929,198.929C63.538,199.319 63.538,199.953 63.929,200.343L70.293,206.707ZM70,103L70,206L72,206L72,103L70,103Z" style="fill:rgb(214,227,255);fill-rule:nonzero;"/>
        <g transform="matrix(-3.82857e-16,-1,1,-3.82857e-16,-543,581)">
            <path d="M121,575C121,567.825 115.175,562 108,562L32,562C24.825,562 19,567.825 19,575L19,651C19,658.175 24.825,664 32,664L108,664C115.175,664 121,658.175 121,651L121,575Z" style="fill:none;stroke:rgb(214,227,255);stroke-width:2px;"/>
        </g>
        <path d="M54.594,516.94C54.594,516.82 54.654,516.76 54.774,516.76L57.06,516.76C57.18,516.76 57.24,516.82 57.24,516.94L57.24,521.53C57.24,521.602 57.276,521.638 57.348,521.638L61.344,521.638C61.416,521.638 61.452,521.602 61.452,521.53L61.452,516.94C61.452,516.82 61.512,516.76 61.632,516.76L63.918,516.76C64.038,516.76 64.098,516.82 64.098,516.94L64.098,528.82C64.098,528.94 64.038,529 63.918,529L61.632,529C61.512,529 61.452,528.94 61.452,528.82L61.452,524.104C61.452,524.032 61.416,523.996 61.344,523.996L57.348,523.996C57.276,523.996 57.24,524.032 57.24,524.104L57.24,528.82C57.24,528.94 57.18,529 57.06,529L54.774,529C54.654,529 54.594,528.94 54.594,528.82L54.594,516.94ZM66.442,527.146C66.442,527.05 66.472,526.966 66.531,526.894L70.834,521.782C71.074,521.506 71.254,521.236 71.374,520.972C71.494,520.696 71.554,520.402 71.554,520.09C71.554,519.682 71.434,519.346 71.194,519.082C70.966,518.818 70.641,518.686 70.222,518.686C69.37,518.686 68.89,519.166 68.781,520.126C68.781,520.246 68.716,520.294 68.584,520.27L66.604,519.946C66.484,519.922 66.436,519.85 66.46,519.73C66.496,519.31 66.604,518.908 66.784,518.524C66.964,518.14 67.216,517.804 67.54,517.516C67.876,517.228 68.272,517 68.728,516.832C69.196,516.652 69.724,516.562 70.312,516.562C70.9,516.562 71.422,516.652 71.878,516.832C72.346,517.012 72.742,517.258 73.066,517.57C73.39,517.882 73.635,518.254 73.804,518.686C73.984,519.106 74.074,519.562 74.074,520.054C74.074,520.642 73.96,521.176 73.732,521.656C73.516,522.124 73.216,522.58 72.832,523.024L69.61,526.822L69.61,526.858L73.894,526.858C74.013,526.858 74.074,526.918 74.074,527.038L74.074,528.82C74.074,528.94 74.013,529 73.894,529L66.622,529C66.501,529 66.442,528.94 66.442,528.82L66.442,527.146ZM80.925,526.858C81.429,526.858 81.843,526.738 82.167,526.498C82.491,526.258 82.719,525.928 82.851,525.508C82.887,525.4 82.917,525.28 82.941,525.148C82.965,525.004 82.983,524.836 82.995,524.644C83.019,524.44 83.031,524.194 83.031,523.906C83.043,523.618 83.049,523.276 83.049,522.88C83.049,522.484 83.043,522.142 83.031,521.854C83.031,521.566 83.019,521.326 82.995,521.134C82.983,520.93 82.965,520.762 82.941,520.63C82.917,520.486 82.887,520.36 82.851,520.252C82.719,519.832 82.491,519.502 82.167,519.262C81.843,519.022 81.429,518.902 80.925,518.902C80.421,518.902 80.007,519.022 79.683,519.262C79.359,519.502 79.131,519.832 78.999,520.252C78.963,520.36 78.933,520.486 78.909,520.63C78.885,520.762 78.861,520.93 78.837,521.134C78.825,521.326 78.813,521.566 78.801,521.854L78.801,523.906C78.813,524.194 78.825,524.44 78.837,524.644C78.861,524.836 78.885,525.004 78.909,525.148C78.933,525.28 78.963,525.4 78.999,525.508C79.131,525.928 79.359,526.258 79.683,526.498C80.007,526.738 80.421,526.858 80.925,526.858ZM80.925,529.198C79.857,529.198 78.921,528.952 78.117,528.46C77.325,527.968 76.773,527.224 76.461,526.228C76.389,526.012 76.329,525.802 76.281,525.598C76.245,525.394 76.215,525.166 76.191,524.914C76.167,524.662 76.149,524.374 76.137,524.05C76.125,523.726 76.119,523.336 76.119,522.88C76.119,522.424 76.125,522.034 76.137,521.71C76.149,521.386 76.167,521.098 76.191,520.846C76.215,520.594 76.245,520.366 76.281,520.162C76.329,519.958 76.389,519.748 76.461,519.532C76.773,518.548 77.325,517.81 78.117,517.318C78.921,516.814 79.857,516.562 80.925,516.562C81.993,516.562 82.923,516.814 83.715,517.318C84.519,517.81 85.077,518.548 85.389,519.532C85.461,519.748 85.515,519.958 85.551,520.162C85.599,520.366 85.635,520.594 85.659,520.846C85.683,521.098 85.701,521.386 85.713,521.71C85.725,522.034 85.731,522.424 85.731,522.88C85.731,523.336 85.725,523.726 85.713,524.05C85.701,524.374 85.683,524.662 85.659,524.914C85.635,525.166 85.599,525.394 85.551,525.598C85.515,525.802 85.461,526.012 85.389,526.228C85.077,527.224 84.519,527.968 83.715,528.46C82.923,528.952 81.993,529.198 80.925,529.198Z" style="fill:rgb(56,84,148);fill-rule:nonzero;"/>
        <path d="M58.85,547C58.79,547 58.75,546.967 58.73,546.9L57.43,542.25L57.41,542.25L56.1,546.9C56.08,546.967 56.04,547 55.98,547L55.23,547C55.17,547 55.13,546.967 55.11,546.9L53.44,540.3C53.427,540.233 53.453,540.2 53.52,540.2L54.46,540.2C54.527,540.2 54.567,540.233 54.58,540.3L55.66,544.88L55.68,544.88L56.95,540.3C56.97,540.233 57.01,540.2 57.07,540.2L57.77,540.2C57.83,540.2 57.87,540.233 57.89,540.3L59.19,544.88L59.21,544.88L60.26,540.3C60.267,540.233 60.307,540.2 60.38,540.2L61.31,540.2C61.377,540.2 61.403,540.233 61.39,540.3L59.73,546.9C59.717,546.967 59.677,547 59.61,547L58.85,547ZM65.551,544.53L64.651,541.89L64.621,541.89L63.711,544.53L65.551,544.53ZM64.061,540.3C64.081,540.233 64.124,540.2 64.191,540.2L65.111,540.2C65.178,540.2 65.221,540.233 65.241,540.3L67.541,546.9C67.561,546.967 67.538,547 67.471,547L66.491,547C66.425,547 66.381,546.967 66.361,546.9L65.911,545.58L63.351,545.58L62.901,546.9C62.881,546.967 62.838,547 62.771,547L61.801,547C61.734,547 61.711,546.967 61.731,546.9L64.061,540.3ZM69.787,547C69.721,547 69.687,546.967 69.687,546.9L69.687,541.32C69.687,541.28 69.667,541.26 69.627,541.26L67.847,541.26C67.781,541.26 67.747,541.227 67.747,541.16L67.747,540.3C67.747,540.233 67.781,540.2 67.847,540.2L72.707,540.2C72.774,540.2 72.807,540.233 72.807,540.3L72.807,541.16C72.807,541.227 72.774,541.26 72.707,541.26L70.927,541.26C70.887,541.26 70.867,541.28 70.867,541.32L70.867,546.9C70.867,546.967 70.834,547 70.767,547L69.787,547ZM74.175,540.3C74.175,540.233 74.209,540.2 74.275,540.2L78.535,540.2C78.602,540.2 78.635,540.233 78.635,540.3L78.635,541.16C78.635,541.227 78.602,541.26 78.535,541.26L75.415,541.26C75.375,541.26 75.355,541.28 75.355,541.32L75.355,542.98C75.355,543.02 75.375,543.04 75.415,543.04L78.045,543.04C78.112,543.04 78.145,543.073 78.145,543.14L78.145,544C78.145,544.067 78.112,544.1 78.045,544.1L75.415,544.1C75.375,544.1 75.355,544.12 75.355,544.16L75.355,545.88C75.355,545.92 75.375,545.94 75.415,545.94L78.535,545.94C78.602,545.94 78.635,545.973 78.635,546.04L78.635,546.9C78.635,546.967 78.602,547 78.535,547L74.275,547C74.209,547 74.175,546.967 74.175,546.9L74.175,540.3ZM82.969,543.19C83.282,543.19 83.532,543.103 83.719,542.93C83.912,542.757 84.009,542.523 84.009,542.23C84.009,541.93 83.912,541.693 83.719,541.52C83.532,541.347 83.282,541.26 82.969,541.26L81.519,541.26C81.479,541.26 81.459,541.28 81.459,541.32L81.459,543.13C81.459,543.17 81.479,543.19 81.519,543.19L82.969,543.19ZM84.138,547C84.065,547 84.015,546.967 83.989,546.9L82.689,544.25L81.519,544.25C81.479,544.25 81.459,544.27 81.459,544.31L81.459,546.9C81.459,546.967 81.425,547 81.359,547L80.379,547C80.312,547 80.278,546.967 80.278,546.9L80.278,540.3C80.278,540.233 80.312,540.2 80.379,540.2L83.009,540.2C83.322,540.2 83.609,540.25 83.869,540.35C84.135,540.45 84.365,540.59 84.559,540.77C84.752,540.943 84.902,541.157 85.009,541.41C85.122,541.657 85.179,541.93 85.179,542.23C85.179,542.677 85.062,543.063 84.829,543.39C84.595,543.717 84.282,543.953 83.888,544.1L85.319,546.87C85.339,546.903 85.339,546.933 85.319,546.96C85.305,546.987 85.282,547 85.249,547L84.138,547Z" style="fill:rgb(56,84,148);fill-opacity:0.9;fill-rule:nonzero;"/>
        <path d="M73.411,502.203C75.279,500.372 75.309,497.373 73.478,495.505C72.961,494.977 72.351,494.596 71.699,494.362C71.223,494.169 70.72,494.025 70.198,493.875C68.76,493.463 67.175,493.008 65.583,491.384C63.992,489.76 63.569,488.165 63.186,486.719C63.108,486.424 63.031,486.136 62.947,485.854C62.773,484.983 62.353,484.152 61.685,483.47C59.854,481.602 56.856,481.571 54.987,483.402C53.119,485.233 53.089,488.232 54.92,490.1C55.588,490.783 56.413,491.22 57.281,491.411C57.56,491.501 57.847,491.583 58.139,491.667C59.578,492.08 61.163,492.534 62.754,494.158C64.346,495.783 64.768,497.377 65.152,498.823C65.289,499.34 65.421,499.839 65.6,500.313C65.82,500.977 66.19,501.602 66.713,502.135C68.544,504.003 71.542,504.034 73.411,502.203Z" style="fill:rgb(56,84,148);"/>
        <path d="M85.411,483.402C87.279,485.233 87.309,488.231 85.478,490.1C84.961,490.628 84.351,491.009 83.699,491.243C83.223,491.435 82.72,491.579 82.198,491.729C80.76,492.142 79.175,492.597 77.583,494.221C75.992,495.845 75.569,497.439 75.186,498.885C75.108,499.18 75.031,499.469 74.947,499.75C74.773,500.621 74.353,501.453 73.685,502.134C71.854,504.003 68.856,504.033 66.987,502.202C65.119,500.371 65.089,497.373 66.92,495.504C67.588,494.822 68.413,494.385 69.281,494.194C69.56,494.104 69.847,494.022 70.139,493.938C71.578,493.525 73.163,493.07 74.754,491.446C76.346,489.822 76.768,488.228 77.152,486.781C77.289,486.264 77.421,485.766 77.6,485.292C77.82,484.628 78.19,484.003 78.713,483.47C80.544,481.601 83.542,481.571 85.411,483.402Z" style="fill:rgb(56,84,148);"/>
        <path d="M72,460C72,460.552 71.552,461 71,461C70.448,461 70,460.552 70,460L72,460ZM70.293,354.293C70.683,353.902 71.317,353.902 71.707,354.293L78.071,360.657C78.462,361.047 78.462,361.681 78.071,362.071C77.681,362.462 77.047,362.462 76.657,362.071L71,356.414L65.343,362.071C64.953,362.462 64.32,362.462 63.929,362.071C63.538,361.681 63.538,361.047 63.929,360.657L70.293,354.293ZM70,460L70,355L72,355L72,460L70,460Z" style="fill:rgb(214,227,255);fill-rule:nonzero;"/>
        <g transform="matrix(0.707107,-0.707107,0.707107,0.707107,-198.493,82.2183)">
            <path d="M100,292.711C100,286.088 94.623,280.711 88,280.711L12,280.711C5.377,280.711 0,286.088 0,292.711L0,368.711C0,375.334 5.377,380.711 12,380.711L88,380.711C94.623,380.711 100,375.334 100,368.711L100,292.711Z" style="fill:none;stroke:rgb(214,227,255);stroke-width:2px;"/>
        </g>
        <path d="M36.804,293.259C36.804,293.192 36.837,293.159 36.904,293.159L41.164,293.159C41.231,293.159 41.264,293.192 41.264,293.259L41.264,294.119C41.264,294.186 41.231,294.219 41.164,294.219L38.044,294.219C38.004,294.219 37.984,294.239 37.984,294.279L37.984,295.939C37.984,295.979 38.004,295.999 38.044,295.999L40.674,295.999C40.741,295.999 40.774,296.032 40.774,296.099L40.774,296.959C40.774,297.026 40.741,297.059 40.674,297.059L38.044,297.059C38.004,297.059 37.984,297.079 37.984,297.119L37.984,298.839C37.984,298.879 38.004,298.899 38.044,298.899L41.164,298.899C41.231,298.899 41.264,298.932 41.264,298.999L41.264,299.859C41.264,299.926 41.231,299.959 41.164,299.959L36.904,299.959C36.837,299.959 36.804,299.926 36.804,299.859L36.804,293.259ZM42.907,293.259C42.907,293.192 42.94,293.159 43.007,293.159L43.987,293.159C44.054,293.159 44.087,293.192 44.087,293.259L44.087,298.839C44.087,298.879 44.107,298.899 44.147,298.899L47.267,298.899C47.334,298.899 47.367,298.932 47.367,298.999L47.367,299.859C47.367,299.926 47.334,299.959 47.267,299.959L43.007,299.959C42.94,299.959 42.907,299.926 42.907,299.859L42.907,293.259ZM48.756,293.259C48.756,293.192 48.79,293.159 48.856,293.159L53.116,293.159C53.183,293.159 53.216,293.192 53.216,293.259L53.216,294.119C53.216,294.186 53.183,294.219 53.116,294.219L49.996,294.219C49.956,294.219 49.936,294.239 49.936,294.279L49.936,295.939C49.936,295.979 49.956,295.999 49.996,295.999L52.626,295.999C52.693,295.999 52.726,296.032 52.726,296.099L52.726,296.959C52.726,297.026 52.693,297.059 52.626,297.059L49.996,297.059C49.956,297.059 49.936,297.079 49.936,297.119L49.936,298.839C49.936,298.879 49.956,298.899 49.996,298.899L53.116,298.899C53.183,298.899 53.216,298.932 53.216,298.999L53.216,299.859C53.216,299.926 53.183,299.959 53.116,299.959L48.856,299.959C48.79,299.959 48.756,299.926 48.756,299.859L48.756,293.259ZM54.839,298.399C54.806,298.292 54.776,298.189 54.749,298.089C54.729,297.982 54.713,297.862 54.699,297.729C54.686,297.589 54.676,297.429 54.669,297.249C54.663,297.062 54.659,296.832 54.659,296.559C54.659,296.292 54.663,296.066 54.669,295.879C54.676,295.692 54.686,295.532 54.699,295.399C54.713,295.259 54.729,295.139 54.749,295.039C54.776,294.932 54.806,294.826 54.839,294.719C55.013,294.159 55.303,293.742 55.709,293.469C56.123,293.189 56.619,293.049 57.199,293.049C57.746,293.049 58.216,293.179 58.609,293.439C59.009,293.699 59.306,294.056 59.499,294.509C59.519,294.569 59.503,294.609 59.449,294.629L58.599,295.039C58.539,295.072 58.496,295.056 58.469,294.989C58.356,294.749 58.199,294.542 57.999,294.369C57.806,294.196 57.539,294.109 57.199,294.109C56.873,294.109 56.609,294.189 56.409,294.349C56.216,294.509 56.073,294.729 55.979,295.009C55.959,295.082 55.939,295.156 55.919,295.229C55.906,295.302 55.893,295.399 55.879,295.519C55.873,295.632 55.866,295.772 55.859,295.939L55.859,297.189C55.866,297.349 55.873,297.489 55.879,297.609C55.893,297.722 55.906,297.819 55.919,297.899C55.939,297.972 55.959,298.042 55.979,298.109C56.073,298.389 56.216,298.609 56.409,298.769C56.609,298.929 56.873,299.009 57.199,299.009C57.539,299.009 57.806,298.922 57.999,298.749C58.199,298.576 58.356,298.369 58.469,298.129C58.496,298.062 58.539,298.046 58.599,298.079L59.449,298.489C59.503,298.509 59.519,298.549 59.499,298.609C59.306,299.062 59.009,299.419 58.609,299.679C58.216,299.939 57.746,300.069 57.199,300.069C56.619,300.069 56.123,299.932 55.709,299.659C55.303,299.379 55.013,298.959 54.839,298.399ZM62.346,299.959C62.279,299.959 62.246,299.926 62.246,299.859L62.246,294.279C62.246,294.239 62.225,294.219 62.185,294.219L60.406,294.219C60.339,294.219 60.306,294.186 60.306,294.119L60.306,293.259C60.306,293.192 60.339,293.159 60.406,293.159L65.266,293.159C65.332,293.159 65.365,293.192 65.365,293.259L65.365,294.119C65.365,294.186 65.332,294.219 65.266,294.219L63.486,294.219C63.446,294.219 63.426,294.239 63.426,294.279L63.426,299.859C63.426,299.926 63.392,299.959 63.326,299.959L62.346,299.959ZM69.424,296.149C69.737,296.149 69.987,296.062 70.174,295.889C70.367,295.716 70.464,295.482 70.464,295.189C70.464,294.889 70.367,294.652 70.174,294.479C69.987,294.306 69.737,294.219 69.424,294.219L67.974,294.219C67.934,294.219 67.914,294.239 67.914,294.279L67.914,296.089C67.914,296.129 67.934,296.149 67.974,296.149L69.424,296.149ZM70.594,299.959C70.52,299.959 70.47,299.926 70.444,299.859L69.144,297.209L67.974,297.209C67.934,297.209 67.914,297.229 67.914,297.269L67.914,299.859C67.914,299.926 67.88,299.959 67.814,299.959L66.834,299.959C66.767,299.959 66.734,299.926 66.734,299.859L66.734,293.259C66.734,293.192 66.767,293.159 66.834,293.159L69.464,293.159C69.777,293.159 70.064,293.209 70.324,293.309C70.59,293.409 70.82,293.549 71.014,293.729C71.207,293.902 71.357,294.116 71.464,294.369C71.577,294.616 71.634,294.889 71.634,295.189C71.634,295.636 71.517,296.022 71.284,296.349C71.05,296.676 70.737,296.912 70.344,297.059L71.774,299.829C71.794,299.862 71.794,299.892 71.774,299.919C71.76,299.946 71.737,299.959 71.704,299.959L70.594,299.959ZM75.676,299.009C76.016,299.009 76.289,298.932 76.496,298.779C76.702,298.619 76.852,298.399 76.946,298.119C76.966,298.059 76.982,297.989 76.996,297.909C77.009,297.829 77.019,297.729 77.026,297.609C77.039,297.489 77.049,297.346 77.056,297.179C77.062,297.006 77.066,296.799 77.066,296.559C77.066,296.319 77.062,296.116 77.056,295.949C77.049,295.776 77.039,295.629 77.026,295.509C77.019,295.389 77.009,295.289 76.996,295.209C76.982,295.129 76.966,295.059 76.946,294.999C76.852,294.719 76.702,294.502 76.496,294.349C76.289,294.189 76.016,294.109 75.676,294.109C75.336,294.109 75.062,294.189 74.856,294.349C74.656,294.502 74.509,294.719 74.416,294.999C74.396,295.059 74.376,295.129 74.356,295.209C74.342,295.289 74.329,295.389 74.316,295.509C74.309,295.629 74.302,295.776 74.296,295.949L74.296,297.179C74.302,297.346 74.309,297.489 74.316,297.609C74.329,297.729 74.342,297.829 74.356,297.909C74.376,297.989 74.396,298.059 74.416,298.119C74.509,298.399 74.656,298.619 74.856,298.779C75.062,298.932 75.336,299.009 75.676,299.009ZM75.676,300.069C75.089,300.069 74.586,299.932 74.166,299.659C73.746,299.379 73.449,298.969 73.276,298.429C73.242,298.322 73.212,298.216 73.186,298.109C73.166,298.002 73.149,297.879 73.136,297.739C73.122,297.599 73.112,297.436 73.106,297.249C73.099,297.056 73.096,296.826 73.096,296.559C73.096,296.292 73.099,296.066 73.106,295.879C73.112,295.686 73.122,295.519 73.136,295.379C73.149,295.239 73.166,295.116 73.186,295.009C73.212,294.902 73.242,294.796 73.276,294.689C73.449,294.149 73.746,293.742 74.166,293.469C74.586,293.189 75.089,293.049 75.676,293.049C76.269,293.049 76.776,293.189 77.196,293.469C77.616,293.742 77.912,294.149 78.086,294.689C78.119,294.796 78.146,294.902 78.166,295.009C78.192,295.116 78.212,295.239 78.226,295.379C78.239,295.519 78.249,295.686 78.256,295.879C78.262,296.066 78.266,296.292 78.266,296.559C78.266,296.826 78.262,297.056 78.256,297.249C78.249,297.436 78.239,297.599 78.226,297.739C78.212,297.879 78.192,298.002 78.166,298.109C78.146,298.216 78.119,298.322 78.086,298.429C77.912,298.969 77.616,299.379 77.196,299.659C76.776,299.932 76.269,300.069 75.676,300.069ZM79.965,293.259C79.965,293.192 79.999,293.159 80.065,293.159L81.045,293.159C81.112,293.159 81.145,293.192 81.145,293.259L81.145,298.839C81.145,298.879 81.165,298.899 81.205,298.899L84.325,298.899C84.392,298.899 84.425,298.932 84.425,298.999L84.425,299.859C84.425,299.926 84.392,299.959 84.325,299.959L80.065,299.959C79.999,299.959 79.965,299.926 79.965,299.859L79.965,293.259ZM86.415,299.959C86.348,299.959 86.315,299.926 86.315,299.859L86.315,297.179L84.345,293.259C84.318,293.192 84.345,293.159 84.425,293.159L85.435,293.159C85.501,293.159 85.548,293.192 85.575,293.259L86.905,295.899L86.935,295.899L88.275,293.259C88.301,293.192 88.348,293.159 88.415,293.159L89.385,293.159C89.465,293.159 89.491,293.192 89.465,293.259L87.495,297.179L87.495,299.859C87.495,299.926 87.461,299.959 87.395,299.959L86.415,299.959ZM92.622,300.069C92.369,300.069 92.122,300.046 91.882,299.999C91.642,299.952 91.412,299.889 91.192,299.809C90.979,299.729 90.779,299.636 90.592,299.529C90.412,299.416 90.255,299.296 90.122,299.169C90.069,299.116 90.062,299.066 90.102,299.019L90.722,298.299C90.769,298.246 90.815,298.242 90.862,298.289C90.969,298.376 91.089,298.462 91.222,298.549C91.362,298.636 91.509,298.712 91.662,298.779C91.822,298.846 91.989,298.902 92.162,298.949C92.335,298.989 92.519,299.009 92.712,299.009C93.119,299.009 93.432,298.919 93.652,298.739C93.879,298.552 93.992,298.316 93.992,298.029C93.992,297.782 93.902,297.582 93.722,297.429C93.542,297.269 93.219,297.156 92.752,297.089L92.392,297.039C91.732,296.946 91.225,296.742 90.872,296.429C90.519,296.109 90.342,295.666 90.342,295.099C90.342,294.792 90.395,294.512 90.502,294.259C90.609,294.006 90.762,293.789 90.962,293.609C91.162,293.429 91.402,293.292 91.682,293.199C91.969,293.099 92.289,293.049 92.642,293.049C93.069,293.049 93.472,293.112 93.852,293.239C94.239,293.359 94.569,293.522 94.842,293.729C94.889,293.769 94.895,293.816 94.862,293.869L94.382,294.609C94.342,294.662 94.295,294.672 94.242,294.639C93.962,294.459 93.692,294.326 93.432,294.239C93.172,294.152 92.899,294.109 92.612,294.109C92.265,294.109 91.999,294.196 91.812,294.369C91.632,294.536 91.542,294.752 91.542,295.019C91.542,295.252 91.635,295.449 91.822,295.609C92.009,295.762 92.332,295.872 92.792,295.939L93.152,295.989C93.812,296.082 94.315,296.289 94.662,296.609C95.009,296.922 95.182,297.372 95.182,297.959C95.182,298.259 95.129,298.539 95.022,298.799C94.915,299.059 94.752,299.282 94.532,299.469C94.319,299.656 94.052,299.802 93.732,299.909C93.412,300.016 93.042,300.069 92.622,300.069ZM96.751,293.259C96.751,293.192 96.784,293.159 96.851,293.159L97.831,293.159C97.898,293.159 97.931,293.192 97.931,293.259L97.931,299.859C97.931,299.926 97.898,299.959 97.831,299.959L96.851,299.959C96.784,299.959 96.751,299.926 96.751,299.859L96.751,293.259ZM101.967,300.069C101.714,300.069 101.467,300.046 101.227,299.999C100.987,299.952 100.757,299.889 100.537,299.809C100.324,299.729 100.124,299.636 99.937,299.529C99.757,299.416 99.6,299.296 99.467,299.169C99.414,299.116 99.407,299.066 99.447,299.019L100.067,298.299C100.114,298.246 100.16,298.242 100.207,298.289C100.314,298.376 100.434,298.462 100.567,298.549C100.707,298.636 100.854,298.712 101.007,298.779C101.167,298.846 101.334,298.902 101.507,298.949C101.68,298.989 101.864,299.009 102.057,299.009C102.464,299.009 102.777,298.919 102.997,298.739C103.224,298.552 103.337,298.316 103.337,298.029C103.337,297.782 103.247,297.582 103.067,297.429C102.887,297.269 102.564,297.156 102.097,297.089L101.737,297.039C101.077,296.946 100.57,296.742 100.217,296.429C99.864,296.109 99.687,295.666 99.687,295.099C99.687,294.792 99.74,294.512 99.847,294.259C99.954,294.006 100.107,293.789 100.307,293.609C100.507,293.429 100.747,293.292 101.027,293.199C101.314,293.099 101.634,293.049 101.987,293.049C102.414,293.049 102.817,293.112 103.197,293.239C103.584,293.359 103.914,293.522 104.187,293.729C104.234,293.769 104.24,293.816 104.207,293.869L103.727,294.609C103.687,294.662 103.64,294.672 103.587,294.639C103.307,294.459 103.037,294.326 102.777,294.239C102.517,294.152 102.244,294.109 101.957,294.109C101.61,294.109 101.344,294.196 101.157,294.369C100.977,294.536 100.887,294.752 100.887,295.019C100.887,295.252 100.98,295.449 101.167,295.609C101.354,295.762 101.677,295.872 102.137,295.939L102.497,295.989C103.157,296.082 103.66,296.289 104.007,296.609C104.354,296.922 104.527,297.372 104.527,297.959C104.527,298.259 104.474,298.539 104.367,298.799C104.26,299.059 104.097,299.282 103.877,299.469C103.664,299.656 103.397,299.802 103.077,299.909C102.757,300.016 102.387,300.069 101.967,300.069Z" style="fill:rgb(56,84,148);fill-opacity:0.9;fill-rule:nonzero;"/>
        <path d="M62.26,253C60.459,253 59,254.459 59,256.26L59,260.266C59,260.29 59,260.315 59.001,260.339L59.001,271.244C59.001,273.318 60.682,275 62.757,275C64.831,275 66.513,273.318 66.513,271.244L66.513,263.525L73.449,263.525L73.449,271.244C73.449,273.318 75.13,275 77.205,275C79.279,275 80.961,273.318 80.961,271.244L80.961,260.38C80.962,260.342 80.963,260.304 80.963,260.266L80.963,256.26C80.963,254.459 79.504,253 77.703,253L62.26,253Z" style="fill:rgb(56,84,148);"/>
        <path d="M137,280C136.448,280 136,280.448 136,281C136,281.552 136.448,282 137,282L137,280ZM221.707,281.707C222.098,281.317 222.098,280.683 221.707,280.293L215.343,273.929C214.953,273.538 214.319,273.538 213.929,273.929C213.538,274.319 213.538,274.953 213.929,275.343L219.586,281L213.929,286.657C213.538,287.047 213.538,287.681 213.929,288.071C214.319,288.462 214.953,288.462 215.343,288.071L221.707,281.707ZM137,282L221,282L221,280L137,280L137,282Z" style="fill:rgb(214,227,255);fill-rule:nonzero;"/>
    </g>
</svg>
