<svg width="380" height="294" viewBox="0 0 380 294" fill="none" xmlns="http://www.w3.org/2000/svg">
<rect width="380" height="294" fill="#3259B3"/>
<path opacity="0.6" fill-rule="evenodd" clip-rule="evenodd" d="M266.217 71.5223C251.122 56.4275 226.647 56.4275 211.552 71.5223C207.288 75.7862 204.229 80.7985 202.374 86.1363C200.842 90.0407 199.707 94.1536 198.529 98.4248C195.28 110.196 191.7 123.17 178.578 136.292C165.456 149.413 152.482 152.993 140.71 156.242C138.311 156.904 135.962 157.552 133.672 158.264C126.581 159.754 119.827 163.251 114.321 168.757C99.2262 183.852 99.2262 208.325 114.321 223.42C129.417 238.515 153.891 238.515 168.986 223.42C174.5 217.906 178 211.141 179.485 204.039C180.196 201.753 180.843 199.409 181.504 197.015C184.752 185.243 188.333 172.27 201.455 159.148C214.577 146.027 227.55 142.446 239.322 139.198C243.531 138.036 247.587 136.917 251.441 135.42C256.839 133.57 261.91 130.492 266.217 126.185C281.312 111.091 281.312 86.6171 266.217 71.5223Z" fill="#F9FAFB"/>
<path opacity="0.6" fill-rule="evenodd" clip-rule="evenodd" d="M114.322 74.581C99.2271 89.6761 99.2271 114.15 114.322 129.245C118.656 133.578 123.762 136.668 129.198 138.513C133.024 139.993 137.049 141.104 141.225 142.256L141.225 142.256L141.225 142.257L141.226 142.257C152.998 145.505 165.971 149.085 179.093 162.207C192.215 175.329 195.796 188.303 199.044 200.075L199.044 200.075C199.697 202.44 200.336 204.756 201.037 207.016C202.513 214.148 206.018 220.944 211.553 226.478C226.648 241.574 251.122 241.574 266.218 226.478C281.313 211.383 281.313 186.91 266.218 171.815C260.701 166.298 253.932 162.797 246.825 161.313C244.543 160.604 242.202 159.958 239.812 159.298C228.04 156.049 215.066 152.469 201.944 139.347C188.822 126.225 185.242 113.252 181.993 101.48C180.849 97.3344 179.746 93.3379 178.282 89.5364C176.44 84.0709 173.342 78.9357 168.987 74.581C153.892 59.486 129.418 59.486 114.322 74.581Z" fill="#F9FAFB"/>
</svg>
