<svg width="380" height="294" viewBox="0 0 380 294" fill="none" xmlns="http://www.w3.org/2000/svg">
<rect width="380" height="294" fill="#3259B3"/>
<path fill-rule="evenodd" clip-rule="evenodd" d="M194.062 128.76C198.005 124.817 204.4 124.817 208.343 128.76C212.287 132.704 212.287 139.098 208.343 143.042C207.218 144.167 205.893 144.971 204.483 145.454C203.476 145.846 202.417 146.138 201.317 146.441L201.317 146.442C199.236 147.016 197.012 147.63 194.729 149.028C197.056 150.483 199.325 151.109 201.445 151.694C202.069 151.866 202.681 152.035 203.277 152.22C205.134 152.608 206.902 153.523 208.343 154.964C212.287 158.908 212.287 165.302 208.343 169.245C204.4 173.189 198.005 173.189 194.062 169.245C192.616 167.799 191.7 166.024 191.314 164.161C191.131 163.57 190.964 162.965 190.794 162.347L190.794 162.347L190.794 162.347C190.229 160.301 189.626 158.116 188.276 155.873C187.235 157.835 186.708 159.745 186.211 161.547L186.211 161.547C186.038 162.173 185.869 162.785 185.684 163.382C185.296 165.238 184.381 167.005 182.941 168.446C178.997 172.389 172.603 172.389 168.659 168.446C164.715 164.502 164.715 158.108 168.659 154.164C170.098 152.726 171.862 151.812 173.715 151.423C174.313 151.237 174.927 151.067 175.553 150.894C177.233 150.431 179.006 149.942 180.828 149.035C179.053 148.17 177.326 147.694 175.688 147.242L175.688 147.242L175.688 147.241L175.688 147.241C174.597 146.94 173.545 146.65 172.545 146.264C171.125 145.781 169.791 144.974 168.659 143.842C164.715 139.898 164.715 133.504 168.659 129.561C172.603 125.617 178.997 125.617 182.941 129.561C184.078 130.698 184.888 132.04 185.369 133.468C185.752 134.461 186.04 135.505 186.339 136.588L186.339 136.588C186.816 138.318 187.321 140.147 188.281 142.027C189.534 139.867 190.114 137.763 190.659 135.789C190.967 134.673 191.264 133.599 191.664 132.579C192.148 131.184 192.948 129.874 194.062 128.76Z" fill="#F9FAFB"/>
<path opacity="0.6" fill-rule="evenodd" clip-rule="evenodd" d="M230.025 125.375C242.718 125.375 253.008 135.665 253.008 148.358C253.008 161.052 242.718 171.341 230.025 171.341C226.404 171.341 222.978 170.503 219.931 169.011C217.681 168.02 215.505 166.786 213.247 165.504L213.247 165.504C208.974 163.08 204.407 160.488 198.482 159.065C199.887 165.152 202.53 169.81 205 174.163L205 174.163C205.728 175.445 206.44 176.701 207.101 177.959C209.465 181.571 210.839 185.889 210.839 190.527C210.84 203.221 200.55 213.511 187.857 213.51C175.164 213.51 164.874 203.22 164.873 190.527C164.873 185.873 166.257 181.542 168.635 177.922C169.29 176.678 169.995 175.435 170.715 174.167L170.715 174.167L170.715 174.166C173.099 169.965 175.645 165.478 177.083 159.696C172.25 161.179 168.329 163.404 164.629 165.503L164.629 165.504C163.345 166.232 162.087 166.946 160.827 167.608C157.217 169.969 152.901 171.342 148.264 171.342C135.571 171.342 125.281 161.052 125.281 148.359C125.281 135.665 135.571 125.376 148.264 125.376C152.893 125.376 157.203 126.745 160.811 129.1C162.073 129.764 163.333 130.479 164.62 131.209C168.069 133.166 171.709 135.232 176.1 136.704C174.636 132.457 172.623 128.911 170.715 125.548L170.715 125.547L170.715 125.547L170.715 125.547C169.443 123.307 168.218 121.148 167.232 118.917C165.722 115.855 164.874 112.409 164.874 108.766C164.874 96.0723 175.164 85.7824 187.857 85.7826C200.55 85.7827 210.84 96.0728 210.84 108.766C210.84 112.428 209.984 115.89 208.461 118.962C207.478 121.176 206.261 123.32 204.999 125.544C202.984 129.096 200.853 132.852 199.373 137.421C204.865 135.961 209.184 133.51 213.238 131.21C215.529 129.91 217.736 128.658 220.021 127.66C223.045 126.196 226.439 125.375 230.025 125.375Z" fill="#F9FAFB"/>
<path opacity="0.6" fill-rule="evenodd" clip-rule="evenodd" d="M209.783 71.5223C224.878 56.4275 249.352 56.4275 264.448 71.5223C279.543 86.6171 279.543 111.091 264.448 126.185C260.141 130.492 255.07 133.57 249.672 135.42C245.818 136.917 241.763 138.036 237.554 139.198L237.553 139.198C229.59 141.396 221.076 143.745 212.339 149.097C221.247 154.664 229.929 157.06 238.041 159.299L238.042 159.299C240.432 159.958 242.773 160.604 245.055 161.314C252.161 162.798 258.931 166.299 264.447 171.815C279.542 186.91 279.542 211.384 264.447 226.479C249.352 241.574 224.878 241.574 209.783 226.479C204.248 220.944 200.742 214.149 199.266 207.016C198.566 204.757 197.927 202.441 197.274 200.076L197.274 200.075C195.113 192.244 192.805 183.882 187.639 175.297C183.655 182.808 181.638 190.118 179.735 197.015L179.734 197.017C179.074 199.41 178.427 201.754 177.716 204.039C176.231 211.141 172.731 217.906 167.217 223.42C152.122 238.515 127.648 238.515 112.552 223.42C97.4571 208.325 97.4571 183.852 112.552 168.757C118.058 163.251 124.812 159.754 131.903 158.264C134.193 157.552 136.542 156.904 138.941 156.242C145.37 154.468 152.157 152.595 159.131 149.123C152.337 145.812 145.726 143.988 139.455 142.257L139.455 142.257L139.455 142.257L139.455 142.257C135.278 141.105 131.254 139.994 127.427 138.514C121.992 136.669 116.885 133.579 112.552 129.246C97.4567 114.151 97.4567 89.6769 112.552 74.5818C127.647 59.4868 152.121 59.4868 167.216 74.5818C171.571 78.9365 174.67 84.0717 176.512 89.5371C177.976 93.3387 179.079 97.3352 180.223 101.481C182.05 108.102 183.982 115.104 187.659 122.299C192.452 114.031 194.674 105.981 196.759 98.4248C197.938 94.1536 199.073 90.0407 200.604 86.1363C202.459 80.7985 205.519 75.7862 209.783 71.5223Z" fill="#F9FAFB"/>
</svg>
