<svg width="112" height="40" viewBox="0 0 112 40" fill="none" xmlns="http://www.w3.org/2000/svg">
<path fill-rule="evenodd" clip-rule="evenodd" d="M13.3101 35.5537H15.6727V22.9322H13.3101V35.5537ZM21.9707 35.3644H24.0867V27.401L32.9937 35.5537V23.1215H30.8836V30.9488L21.9707 22.9322V35.3644ZM37.8244 32.3076C38.9761 33.2049 40.3586 33.7236 41.8406 33.7236C43.2842 33.7236 44.2969 33.2266 44.2969 32.1291C44.2969 31.1727 43.651 30.798 42.52 30.3789L40.6889 29.7429C39.0008 29.1434 37.7169 28.2678 37.7169 26.2552C37.7169 24.1027 39.6604 22.9322 41.9846 22.9322C43.4084 22.9322 44.7061 23.2902 45.7197 23.9242V26.059C44.6657 25.28 43.512 24.7436 42.0299 24.7436C40.754 24.7436 39.8005 25.2199 39.8005 26.2128C39.8005 27.1101 40.399 27.4691 41.4531 27.83L43.4932 28.5458C45.4703 29.241 46.3774 30.3188 46.3774 32.0917C46.3774 34.3221 44.4152 35.5537 41.8406 35.5537C40.1485 35.5537 38.7099 35.0804 37.8244 34.4829V32.3076ZM51.8895 35.5537H54.2511V22.9322H51.8895V35.5537ZM65.3304 33.6437C67.9927 33.6437 69.4156 31.9359 69.4156 29.24C69.4156 26.5244 67.9917 24.8225 65.3304 24.8225H62.6976V33.6437H65.3304ZM60.548 22.9322H65.4093C69.1513 22.9322 71.5711 25.3974 71.5711 29.24C71.5711 33.0856 69.1513 35.5537 65.4093 35.5537H60.548V22.9322ZM83.382 22.9322V24.8225H77.6659V27.8595H82.7924V29.7281H77.6649V33.6437H83.382V35.5537H75.5084V22.9322H83.382ZM91.7655 28.6474H94.1093C95.4967 28.6474 96.2786 27.8862 96.2786 26.7157C96.2786 25.5453 95.4967 24.783 94.1093 24.783H91.7655V28.6474ZM91.7655 30.4321V35.5537H89.68V22.9322H94.1488C96.6967 22.9322 98.3454 24.2447 98.3454 26.7157C98.3454 28.8288 97.4303 30.0427 95.4809 30.3542L99.9152 35.5537H97.5428L93.2495 30.4331H91.7665L91.7655 30.4321ZM12.4848 10.4981C13.4088 10.1599 14.1286 9.14523 14.1286 7.74996C14.1286 5.42485 12.4848 4.21989 9.85502 4.21989H5.4375V17.1993H10.2652C12.895 17.1993 14.5388 15.9096 14.5388 13.4789C14.5388 12.1044 13.676 10.8994 12.4848 10.4981ZM7.51216 9.67375V6.12297H9.8353C11.2947 6.12297 12.0746 6.6515 12.0746 7.87716C12.0746 9.10283 11.2937 9.67375 9.8353 9.67375H7.51216ZM7.51216 11.492H10.2238C11.6634 11.492 12.4434 12.2099 12.4434 13.3941C12.4434 14.5567 11.6625 15.2972 10.2248 15.2972H7.51314V11.491L7.51216 11.492ZM24.1774 17.4103C27.1977 17.4103 29.2319 15.592 29.2319 12.0413V4.21989H27.0952V11.7869C27.0952 14.2816 26.0677 15.4451 24.1774 15.4451C22.2872 15.4451 21.2607 14.2816 21.2607 11.7869V4.21989H19.1239V12.0196C19.1239 15.592 21.1779 17.4103 24.1774 17.4103ZM34.2628 16.2685C35.1463 16.9035 36.5849 17.4103 38.2691 17.4103C40.8378 17.4103 42.7892 16.0989 42.7892 13.7323C42.7892 11.851 41.886 10.7091 39.9129 9.96957L37.8796 9.20833C36.8315 8.8287 36.2359 8.44809 36.2359 7.49655C36.2359 6.4395 37.1805 5.93266 38.4545 5.93266C39.9336 5.93266 41.0843 6.5026 42.1325 7.32793V5.06494C41.1257 4.38949 39.831 4.00887 38.4131 4.00887C36.0919 4.00887 34.1602 5.25623 34.1602 7.53895C34.1602 9.67375 35.4342 10.6036 37.1184 11.2376L38.9475 11.9141C40.0775 12.3578 40.7145 12.7601 40.7145 13.7747C40.7145 14.9373 39.7078 15.4658 38.2691 15.4658C36.79 15.4658 35.4135 14.9156 34.2628 13.9651V16.2685ZM50.4242 4.21989H48.2884V17.1983H50.4242V4.21989ZM56.52 17.1825H58.5789V8.73897L67.2443 17.3837V4.20017H65.1913V12.4998L56.52 4V17.1825ZM80.5964 4.22285V6.16636H75.0489V9.29018H80.0235V11.212H75.0489V15.2381H80.5964V17.2023H72.9545V4.22285H80.5964ZM85.5711 16.2596C86.4546 16.8946 87.8923 17.4015 89.5774 17.4015C92.1451 17.4015 94.0975 16.091 94.0975 13.7235C94.0975 11.8421 93.1933 10.7012 91.2212 9.96069L89.1869 9.20045C88.1388 8.81983 87.5432 8.43921 87.5432 7.48767C87.5432 6.43062 88.4878 5.92379 89.7618 5.92379C91.2409 5.92379 92.3916 6.49471 93.4398 7.31906V5.05705C92.433 4.38062 91.1383 4 89.7204 4C87.3992 4 85.4675 5.24736 85.4675 7.53007C85.4675 9.66488 86.7415 10.5947 88.4257 11.2288L90.2548 11.9052C91.3849 12.3489 92.0218 12.7512 92.0218 13.7659C92.0218 14.9284 91.0161 15.457 89.5764 15.457C88.0974 15.457 86.7208 14.9077 85.5711 13.9562V16.2596ZM98.4746 16.2596C99.3581 16.8946 100.797 17.4015 102.481 17.4015C105.05 17.4015 107.001 16.091 107.001 13.7235C107.001 11.8421 106.097 10.7012 104.125 9.96069L102.09 9.20045C101.043 8.81983 100.447 8.43921 100.447 7.48767C100.447 6.43062 101.392 5.92379 102.665 5.92379C104.144 5.92379 105.296 6.49471 106.343 7.31906V5.05705C105.338 4.38062 104.043 4 102.625 4C100.303 4 98.372 5.24736 98.372 7.53007C98.372 9.66488 99.646 10.5947 101.33 11.2288L103.159 11.9052C104.289 12.3489 104.926 12.7512 104.926 13.7659C104.926 14.9284 103.92 15.457 102.481 15.457C101.002 15.457 99.6253 14.9077 98.4746 13.9562V16.2596Z" fill="#111827"/>
</svg>
