<svg width="307" height="40" viewBox="0 0 307 40" fill="none" xmlns="http://www.w3.org/2000/svg">
<path d="M132.179 20.5505C132.179 22.9898 133.094 25.3274 134.822 27.0552C136.55 28.783 138.887 29.6978 141.326 29.6978C146.408 29.6978 150.474 25.6323 150.474 20.5505C150.575 18.1113 149.661 15.672 147.933 13.9442C146.205 12.2164 143.766 11.2 141.326 11.3016C136.245 11.4033 132.179 15.4687 132.179 20.5505ZM135.635 20.5505C135.635 17.2982 137.972 14.2491 141.428 14.2491C144.884 14.2491 147.221 16.79 147.221 20.5505C147.323 22.1767 146.713 23.7012 145.595 24.9209C144.477 26.1405 142.953 26.7503 141.428 26.7503C137.972 26.852 135.635 24.2094 135.635 20.5505Z" fill="#111827"/>
<path d="M112.157 20.5501C112.056 22.9893 112.97 25.4286 114.698 27.1564C116.426 28.8842 118.865 29.7989 121.305 29.6973C124.049 29.7989 126.691 28.4777 128.317 26.2417L128.419 26.14L125.878 24.0057L125.777 24.209C124.862 25.9368 123.134 26.9531 121.203 26.8515C117.747 26.8515 115.41 24.1073 115.41 20.5501C115.308 18.9239 115.918 17.3994 116.934 16.1797C118.052 14.9601 119.577 14.2486 121.203 14.2486C123.032 14.2486 124.76 15.265 125.777 16.7895L125.878 16.8912L128.419 14.8585L128.317 14.7568C126.59 12.6225 123.947 11.4028 121.203 11.4028C118.764 11.4028 116.426 12.3176 114.8 14.0454C113.174 15.7732 112.157 18.1108 112.157 20.5501Z" fill="#111827"/>
<path d="M241.032 21.9727V29.2905H244.284V21.9727L250.687 11.8091H247.13L242.658 18.822L238.389 11.8091H234.629L241.032 21.9727Z" fill="#111827"/>
<path d="M181.575 11.8091V29.2905H184.929V22.7858C185.132 22.7858 185.437 22.8874 185.742 22.8874C190.01 22.8874 192.958 21.058 192.958 17.3991C192.958 13.9434 190.417 11.8091 185.64 11.8091H181.575ZM184.929 14.4516H185.742C188.486 14.4516 189.604 15.468 189.604 17.2974C189.604 19.1269 188.384 20.1432 185.742 20.1432C185.437 20.1432 185.234 20.1432 184.929 20.0416V14.4516Z" fill="#111827"/>
<path d="M159.418 19.8388L164.906 29.7991L170.293 19.8388L172.427 29.2909H175.883L171.309 11.5046L165.008 23.2944L158.503 11.5046L154.133 29.3926H157.385L159.418 19.8388Z" fill="#111827"/>
<path d="M69.6734 22.1764L58.0869 11.5046V29.3926H61.2376V19.0257L72.9258 29.7991V11.8095H69.6734V22.1764Z" fill="#111827"/>
<path d="M47.1106 11.8091V29.2905H50.4646V11.8091H47.1106Z" fill="#111827"/>
<path d="M42.8414 29.2908L34.304 11.4028L25.7666 29.2908H29.1206L30.8484 25.5302H37.5564L39.1825 29.2908H42.8414ZM32.068 22.7861L34.304 17.7043L36.3367 22.7861H32.068Z" fill="#111827"/>
<path d="M19.8718 20.0416C21.2947 19.4318 22.2094 17.9072 22.2094 16.3827C22.2094 13.3336 19.7702 11.8091 15.6031 11.8091H11.436V29.2905H16.4162C20.8882 29.2905 23.3274 27.461 23.3274 24.2087C23.2258 22.176 21.8029 20.4481 19.8718 20.0416ZM16.2129 21.871C18.5506 21.871 19.8718 22.4809 19.8718 24.3103C19.8718 25.9365 18.6522 26.6479 16.2129 26.6479H14.79V21.871H16.2129ZM14.79 19.2285V14.4516H15.3998C17.8391 14.4516 19.0587 15.0614 19.0587 16.8909C19.0587 18.7203 17.8391 19.2285 15.5015 19.2285H14.79Z" fill="#111827"/>
<path d="M97.928 29.3924H101.79C101.79 29.3924 98.8427 26.0384 98.3345 25.4286C98.741 24.9204 101.282 21.0582 101.282 21.0582H98.1312L96.6067 23.3959L93.8625 20.2452C96.2001 19.0255 97.6231 17.2977 97.6231 15.4683C97.6231 13.029 95.4887 11.4028 92.7445 11.4028C89.6954 11.4028 87.6627 13.2323 87.6627 15.6715C87.7644 17.2977 88.4758 18.7206 89.5938 19.8386C87.7644 20.855 86.1382 22.3795 86.1382 24.9204C86.1382 27.6646 88.3742 29.7989 91.6265 29.7989C93.456 29.7989 95.2854 29.0875 96.5051 27.6646L97.928 29.3924ZM90.7118 15.7732C90.7118 15.265 90.9151 14.6552 91.3216 14.3503C91.7282 13.9437 92.2363 13.7405 92.7445 13.7405C93.2527 13.7405 93.7609 13.8421 94.1674 14.2486C94.574 14.5535 94.7772 15.0617 94.6756 15.5699C94.6756 16.7895 93.456 17.7043 92.2363 18.3141C91.4233 17.7043 90.8134 16.7895 90.7118 15.7732ZM94.6756 25.7335C94.0658 26.5466 93.0494 27.0548 91.9314 27.0548C91.22 27.1564 90.6102 26.8515 90.102 26.445C89.5938 25.9368 89.2889 25.327 89.2889 24.6155C89.3905 23.3959 90.102 22.3795 91.1183 21.7697H91.22L94.6756 25.7335Z" fill="#111827"/>
<path d="M227.413 22.1764L215.826 11.5046V29.2909H219.079V19.0257L230.665 29.7991V11.8095H227.413V22.1764Z" fill="#111827"/>
<path d="M211.557 29.2908L203.02 11.4028L194.482 29.2908H197.836L199.564 25.5302H206.272L207.898 29.2908H211.557ZM200.784 22.7861L203.02 17.7043L205.052 22.7861H200.784Z" fill="#111827"/>
<path d="M284.938 21.3634L282.092 8.76053L274.266 18.9241L284.938 21.3634ZM295 20.5503C295 29.0877 287.987 36.1006 279.45 36.1006C270.912 36.1006 263.899 29.0877 263.899 20.5503C263.899 12.0129 270.912 5 279.45 5C280.263 5 281.076 5.10164 281.889 5.20327L280.568 6.93108H279.45C275.994 6.93108 272.742 8.25235 270.201 10.59C267.762 13.0292 266.339 16.2816 266.339 19.7372C266.339 26.9534 272.234 32.8483 279.45 32.8483C286.666 32.8483 292.561 26.9534 292.561 19.7372C292.561 14.4521 289.207 9.67525 284.227 7.84581L283.718 5.71145C290.426 7.5409 295 13.6391 295 20.5503Z" fill="#111827"/>
</svg>
