<svg width="150" height="40" viewBox="0 0 150 40" fill="none" xmlns="http://www.w3.org/2000/svg">
<path d="M41.1428 15.7483C41.4575 16.9848 42.5202 18.2486 43.9781 18.5653H48.3846L48.6094 18.6547V29.8566H51.361V18.6547L51.611 18.5653H56.0213C57.4956 18.1826 58.5354 16.9848 58.8446 15.7483V15.7209H41.1428V15.7483Z" fill="#111827"/>
<path d="M68.3767 29.8887H78.8449C80.3013 29.597 81.3837 28.3043 81.6872 27.053H65.5344C65.8359 28.3047 66.9343 29.597 68.3767 29.8887Z" fill="#111827"/>
<path d="M68.3767 24.142H78.8449C80.3013 23.8527 81.3837 22.5595 81.6872 21.3066H65.5344C65.8359 22.5599 66.9343 23.8527 68.3767 24.142Z" fill="#111827"/>
<path d="M68.3767 18.5508H78.8449C80.3013 18.2584 81.3837 16.9665 81.6872 15.7144H65.5344C65.8359 16.9665 66.9343 18.2584 68.3767 18.5508Z" fill="#111827"/>
<path d="M92.251 18.5239H101.922C103.38 18.0972 104.604 16.9782 104.903 15.7378H89.5401V24.0989H102.114V27.033L92.251 27.0408C90.7055 27.475 89.3948 28.5206 88.741 29.9015L89.5401 29.8867H104.815V21.319H92.251V18.5239Z" fill="#111827"/>
<path d="M125.162 29.8907C126.535 29.3043 127.274 28.2899 127.557 27.103H115.342L115.35 15.7344L112.612 15.7422V29.8907H125.162Z" fill="#111827"/>
<path d="M135.83 18.5621H146.302C147.756 18.2709 148.838 16.9778 149.143 15.7268H132.989C133.291 16.9781 134.389 18.2709 135.83 18.5621Z" fill="#111827"/>
<path d="M133.41 21.3301V29.8852H136.133V24.1892H146.045V29.8852H148.766V21.3449L133.41 21.3301Z" fill="#111827"/>
<path d="M17.946 38L22.9666 9.55398C27.7521 9.55398 29.2616 10.0826 29.4795 12.2405C29.4795 12.2405 32.6898 11.0346 34.3089 8.58548C27.9906 5.63593 21.6421 5.50291 21.6421 5.50291L17.9376 10.0484L17.946 10.0479L14.2415 5.5022C14.2415 5.5022 7.89292 5.63536 1.57544 8.58491C3.19316 11.034 6.40469 12.2399 6.40469 12.2399C6.62391 10.0819 8.13153 9.55327 12.8849 9.54984L17.946 38Z" fill="#111827"/>
<path d="M17.9437 4.18992C23.0512 4.15057 28.8972 4.98591 34.8819 7.61367C35.6817 6.16327 35.8874 5.52227 35.8874 5.52227C29.3453 2.91475 23.2187 2.02238 17.943 2C12.6675 2.02238 6.54123 2.91489 0 5.52227C0 5.52227 0.291815 6.31183 1.0048 7.61367C6.98829 4.98591 12.8354 4.15057 17.943 4.18992H17.9437Z" fill="#111827"/>
</svg>
