<svg width="150" height="40" viewBox="0 0 150 40" fill="none" xmlns="http://www.w3.org/2000/svg">
<path d="M1 28.9997V25.8432H2.51199V13.1565H1V10H12.223C13.4622 10 14.3559 10.9399 14.3559 12.0773V26.9224C14.3559 28.1283 13.3921 28.9997 12.223 28.9997H1ZM10.5707 13.1565H6.36731V25.8432H10.5707V13.1565ZM16.4862 28.9997V25.8432H18.0086V13.1565H16.4966V10H29.7798V15.5023H26.0648V13.1565H21.8639V17.4504H27.5066V20.5385H21.8639V25.8432H26.0648V22.6158H29.7798V28.9997H16.4862ZM40.3144 28.9997V25.8432H41.551V20.6094H37.0046V25.8432H38.1737V28.9997H31.6373V25.8432H33.1493V13.1565H31.6373V10H43.063C44.3022 10 45.2062 10.9399 45.2062 12.0773V16.9868C45.2062 17.8583 44.6477 18.5904 43.8865 18.9248C44.788 19.1933 45.4089 20.004 45.4089 20.9438V25.8432H46.8481V28.9997H40.3144ZM41.3483 13.1565H37.0046V17.5213H41.3483V13.1565ZM56.2864 28.9997C55.7174 29.0092 55.1719 28.792 54.764 28.3968C54.3691 28.0092 54.1457 27.4747 54.1561 26.9224V22.6158H58.0114V25.8432H62.2044V20.6778H54.1561V12.0773C54.1561 10.8715 55.1199 10 56.2864 10H63.8567C65.1063 10 66 10.9399 66 12.0773V15.6416H62.1421V13.1565H58.0114V17.5213H66.0598V26.9224C66.0598 28.1283 65.1063 28.9997 63.9295 28.9997H56.2864ZM68.1303 28.9997V25.8432H69.6423V13.1565H68.1303V10H79.556C80.7952 10 81.6889 10.9399 81.6889 12.0773V19.1933C81.6889 20.4093 80.725 21.2808 79.556 21.2808H73.4976V25.8432H75.0096V28.9997H68.1303ZM77.8413 13.1565H73.4976V18.1243H77.8413V13.1565ZM83.484 28.9997V25.8432H84.996V13.1565H83.484V10H90.3633V13.1565H88.8513V25.8432H90.3633V28.9997H83.484ZM92.1611 28.9997V25.8432H93.6731V13.1565H92.1611V10H105.444V15.5023H101.729V13.1565H97.5284V17.4504H103.171V20.5385H97.5284V25.8432H101.729V22.6158H105.444V28.9997H92.1611ZM109.778 28.9997C109.209 29.0092 108.671 28.792 108.266 28.4069C107.86 28.0092 107.637 27.4747 107.647 26.9325V12.0773C107.647 10.8715 108.611 10 109.778 10H117.428C118.668 10 119.561 10.9399 119.561 12.0672V15.6214H115.703V13.1464H111.503V25.7926H115.703V21.0426H113.228V17.9571H119.561V28.9997H109.778ZM121.622 28.9997V25.8432H123.144V13.1565H121.622V10H134.915V15.5023H131.19V13.1565H126.989V17.4504H132.642V20.5385H126.989V25.8432H131.19V22.6158H134.915V28.9997H121.622ZM136.773 28.9997V25.8432H138.285V13.1565H136.773V10H143.795V13.1565H142.14V25.8432H145.865V21.676H149.437V28.9997H136.773Z" fill="#111827"/>
</svg>
