<svg width="206" height="40" viewBox="0 0 206 40" fill="none" xmlns="http://www.w3.org/2000/svg">
<path fill-rule="evenodd" clip-rule="evenodd" d="M203.118 4.15794V10.3349C199.947 9.1268 197.124 8.51598 194.653 8.51598C193.189 8.51598 192.024 8.78949 191.147 9.31829C190.271 9.85164 189.824 10.5081 189.824 11.2831C189.824 12.3133 190.813 13.2296 192.805 14.0502L198.56 16.8765C203.213 19.1148 205.521 22.087 205.521 25.8206C205.521 28.925 204.297 31.4003 201.826 33.2329C199.373 35.0838 196.071 36 191.96 36C190.063 36 188.36 35.918 186.847 35.7447C185.334 35.5807 183.595 35.2433 181.666 34.76V28.2959C185.203 29.504 188.424 30.1148 191.324 30.1148C194.784 30.1148 196.505 29.1028 196.505 27.0605C196.505 26.0439 195.8 25.2234 194.368 24.5806L187.976 21.8317C185.618 20.7559 183.866 19.4522 182.718 17.9068C181.589 16.3477 181.015 14.5608 181.015 12.5185C181.015 9.66015 182.208 7.35804 184.566 5.60751C186.942 3.87066 190.095 3 194.016 3C195.29 3 196.758 3.11392 198.384 3.32364C200.024 3.54702 201.6 3.82053 203.118 4.15794Z" fill="#111827"/>
<path fill-rule="evenodd" clip-rule="evenodd" d="M22.0888 4.15794V10.3349C18.9178 9.1268 16.0991 8.51598 13.6282 8.51598C12.1601 8.51598 10.9993 8.78949 10.1229 9.31829C9.24661 9.85164 8.79939 10.5081 8.79939 11.2831C8.79939 12.3133 9.8022 13.2296 11.7943 14.0502L17.5491 16.8765C22.1837 19.1148 24.4965 22.087 24.4965 25.8206C24.4965 28.925 23.2678 31.4003 20.815 33.2329C18.3441 35.0838 15.0602 36 10.9361 36C9.03881 36 7.3313 35.918 5.81806 35.7447C4.30482 35.5807 2.58378 35.2433 0.641481 34.76V28.2959C4.19194 29.504 7.41268 30.1148 10.2946 30.1148C13.7547 30.1148 15.4758 29.1028 15.4758 27.0605C15.4758 26.0439 14.7756 25.2234 13.3572 24.5806L6.96546 21.8317C4.58939 20.7559 2.83673 19.4522 1.7075 17.9068C0.560102 16.3477 0 14.5608 0 12.5185C0 9.66015 1.18352 7.35804 3.55498 5.60751C5.91299 3.87066 9.07041 3 12.9913 3C14.2787 3 15.7287 3.11392 17.3729 3.32364C18.9991 3.54702 20.5756 3.82053 22.0888 4.15794Z" fill="#111827"/>
<path fill-rule="evenodd" clip-rule="evenodd" d="M28.6838 3.57886H38.057V35.421H28.6838V3.57886Z" fill="#111827"/>
<path fill-rule="evenodd" clip-rule="evenodd" d="M68.2539 3.57886V9.46415H54.3275V16.5254H66.4065V21.8317H54.3275V29.2441H68.5385V35.421H45.3069V3.57886H68.2539Z" fill="#111827"/>
<path fill-rule="evenodd" clip-rule="evenodd" d="M112.011 3.57886V35.421H103.261V14.4193L94.1823 35.7128H88.7799L80.0482 14.4193V35.421H73.7197V3.57886H85.1616L92.9717 23.0716L101.143 3.57886H112.011Z" fill="#111827"/>
<path fill-rule="evenodd" clip-rule="evenodd" d="M142.195 3.57886V9.46415H128.345V16.5254H140.424V21.8317H128.345V29.2441H142.48V35.421H119.249V3.57886H142.195Z" fill="#111827"/>
<path fill-rule="evenodd" clip-rule="evenodd" d="M175.084 3.57886V35.421H165.143L153.986 14.9983V35.421H147.661V3.57886H157.893L168.761 23.6506V3.57886H175.084Z" fill="#111827"/>
</svg>
