<svg width="136" height="40" viewBox="0 0 136 40" fill="none" xmlns="http://www.w3.org/2000/svg">
<path fill-rule="evenodd" clip-rule="evenodd" d="M27.6461 4.06789C33.6582 7.1222 37.7651 13.2116 37.7651 20.2308C37.7651 27.25 33.6582 33.3586 27.6461 36.3942V34.3071C29.9453 32.9785 31.8902 31.1194 33.3054 28.919L27.6461 26.6999V23.323L33.8549 28.0089C35.1519 25.6943 35.8789 23.0571 35.8789 20.2303C35.8789 14.2734 32.5774 9.03792 27.6461 6.15402V4.06789ZM18.9024 2C22.0464 2 25.0129 2.74018 27.6461 4.06789V6.15498C25.2291 4.75046 22.3997 3.9162 19.4133 3.82116L21.5743 18.7514L27.6461 23.323V26.6999L18.8627 23.2664L10.1384 26.7191V23.361L16.2494 18.7509L18.3911 3.82068C15.3649 3.91572 12.5554 4.75046 10.1384 6.15402V4.06789C12.7522 2.74018 15.7386 2 18.9024 2ZM27.6461 36.3942C25.0129 37.7219 22.0459 38.4804 18.9024 38.4804C15.7391 38.4804 12.7527 37.7219 10.1389 36.413V34.3071C12.6936 35.8053 15.6994 36.6592 18.9024 36.6592C22.0856 36.6592 25.0726 35.8053 27.6461 34.3071V36.3942ZM10.1389 36.413C4.10646 33.3586 0 27.25 0 20.2308C0 13.2116 4.10596 7.1222 10.1384 4.06789L10.1389 6.15498C5.18724 9.0384 1.88627 14.2552 1.88627 20.2308C1.88627 23.0571 2.63312 25.7327 3.93006 28.0468L10.1384 23.361V26.7191L4.49952 28.9569C5.91422 31.1395 7.83974 32.979 10.1389 34.3071V36.413Z" fill="#111827"/>
<path d="M88.7106 14.334C87.95 14.5561 87.2646 14.6897 86.4132 14.7903V15.0744C87.3712 15.0744 87.4935 15.1922 87.4935 16.0621V18.987C86.9302 17.9842 86.4884 17.6837 85.6673 17.6837C84.0386 17.6837 82.8987 19.3715 82.8987 21.7794C82.8987 24.1873 84.0544 25.8765 85.7133 25.8765C86.5805 25.8765 87.1736 25.4426 87.5992 24.5062C87.6605 25.141 87.6611 25.208 87.813 25.8437C88.4368 25.626 88.695 25.5583 89.5933 25.442L89.8208 25.4079V25.1237C88.8016 25.0905 88.7106 25.0065 88.7106 23.9871V14.334ZM47.6558 14.4556C47.0773 14.5229 46.7725 14.5403 46.2099 14.5403C45.7835 14.5403 45.5558 14.524 44.963 14.4733V14.89C46.0125 14.9573 46.2249 15.1247 46.2249 15.8941V15.9952L45.9054 24.2043C45.8751 25.1075 45.7238 25.2406 44.6584 25.3245V25.7262C45.4501 25.6589 45.7532 25.6429 46.1789 25.6429C46.6053 25.6429 46.9091 25.6589 47.6856 25.7262V25.3245C46.6202 25.2406 46.4225 25.0899 46.4225 24.3546V24.2043L46.7271 15.5266L49.2222 22.9338L49.4049 23.5185L49.6187 24.1702L49.8313 24.8232L49.9992 25.3587H50.2279L50.3945 24.8068L50.5922 24.1702L50.8047 23.5527L50.9875 22.9994L53.4987 15.543L53.6355 24.2043V24.2877C53.6355 25.0737 53.4075 25.2572 52.3724 25.3246V25.7262C53.3311 25.6256 53.696 25.5923 54.2745 25.5923C54.8521 25.5923 55.2178 25.6257 56.1765 25.7262V25.3246C55.0809 25.2406 54.9435 25.1075 54.9284 24.2043L54.7618 15.9952V15.8777C54.7618 15.1249 54.9897 14.9573 56.0249 14.89V14.4733C55.4464 14.5241 55.203 14.5403 54.8227 14.5403C54.366 14.5403 54.047 14.5229 53.362 14.4556L50.4865 22.9174L47.6558 14.4556ZM106.845 14.5225V14.9419C107.941 15.0084 108.093 15.1412 108.093 16.0444V24.1538C108.093 25.0569 107.972 25.1734 106.845 25.274V25.6756H110.695C111.821 25.6756 112.429 25.5255 113.068 25.0909C113.83 24.5558 114.331 23.5352 114.331 22.4816C114.331 21.5793 113.981 20.7608 113.388 20.2589C113.068 19.9914 112.733 19.8405 112.186 19.7234C113.281 19.2722 113.86 18.4192 113.86 17.2493C113.86 16.3794 113.525 15.6093 112.946 15.125C112.429 14.707 111.836 14.5225 110.847 14.5225L106.845 14.5225ZM109.371 15.0416H110.664C111.943 15.0416 112.505 15.7267 112.505 17.2821C112.505 18.0506 112.339 18.603 112.004 19.0376C111.669 19.4555 111.258 19.5895 110.405 19.5895H109.371V15.0416ZM74.3755 17.4324L73.964 18.2848C73.4771 17.7664 73.0665 17.5826 72.4125 17.5826C70.6168 17.5826 69.399 19.2885 69.399 21.7794C69.399 24.2205 70.6018 25.8601 72.3665 25.8601C73.7366 25.8601 74.6033 24.8893 74.8006 23.1005H74.1766C73.9944 24.572 73.4307 25.3081 72.4871 25.3081C71.3159 25.3081 70.723 24.1209 70.723 21.7794C70.723 19.3881 71.3934 18.0348 72.5343 18.0348C73.4628 18.0348 74.0247 18.7366 74.2984 20.1906H74.6341V17.4324L74.3755 17.4324ZM101.64 17.4829L101.381 18.1674C100.864 17.7835 100.423 17.6332 99.8296 17.6332C98.4906 17.6332 97.5472 18.5362 97.5472 19.8573C97.5472 20.8269 97.898 21.2949 99.0079 21.8641L99.7078 22.2138L100.286 22.498C101.031 22.8661 101.321 23.2507 101.321 23.8191C101.321 24.6724 100.651 25.3245 99.7538 25.3245C98.6885 25.3245 98.0492 24.589 97.7747 23.0677L97.4415 23.0841V25.8765H97.715L98.0792 25.1237C98.6577 25.6256 99.2053 25.8259 99.9055 25.8259C101.336 25.8259 102.356 24.8238 102.356 23.4188C102.356 22.4325 101.944 21.8967 100.788 21.345L100.149 21.0444C98.7639 20.3756 98.5367 20.1586 98.5367 19.4898C98.5367 18.7038 99.1604 18.1018 99.9664 18.1018C100.925 18.1018 101.427 18.7376 101.564 20.0745H101.914V17.4829H101.64ZM124.133 17.4829C123.526 17.7172 123.007 17.8505 122.124 17.9843V18.2685C122.2 18.2685 122.277 18.2848 122.323 18.2848C123.084 18.2848 123.174 18.3863 123.189 19.0717V19.3217V24.4885C123.189 25.2072 123.038 25.3416 122.11 25.3915V25.7262C122.902 25.6423 123.22 25.6264 123.752 25.6264C124.3 25.6264 124.605 25.6422 125.397 25.7262V25.3915C124.605 25.3583 124.407 25.1906 124.407 24.5226V20.4748C124.407 19.1038 124.955 18.3859 125.99 18.3859C126.963 18.3859 127.359 18.9707 127.359 20.4256V24.5226C127.359 25.1906 127.161 25.3583 126.339 25.3915V25.7262C127.13 25.6423 127.434 25.6265 127.998 25.6265C128.545 25.6265 128.851 25.6422 129.657 25.7262V25.3915C128.729 25.3416 128.576 25.2072 128.576 24.4885V20.4748C128.576 19.84 128.5 19.372 128.347 18.9706C128.043 18.1514 127.252 17.6332 126.339 17.6332C125.458 17.6332 124.832 18.0347 124.284 18.9379C124.253 18.3022 124.209 17.8676 124.133 17.4829ZM65.5725 17.5157C64.9479 17.7159 64.4308 17.817 63.5635 17.901V18.2015H63.7612C64.5521 18.2181 64.6287 18.3025 64.6439 19.0212V19.289V24.4885C64.6439 25.2072 64.4771 25.3416 63.5486 25.3915V25.7262C64.3856 25.6422 64.7048 25.6251 65.253 25.6251C65.7853 25.6251 66.105 25.6422 66.9413 25.7262V25.3915C66.0135 25.3416 65.8609 25.2072 65.8609 24.4885V20.9939C65.8609 19.3379 66.363 18.2862 67.1538 18.2862C67.4275 18.2862 67.6113 18.4522 67.6113 18.6865V18.8368L67.5803 19.0048C67.5652 19.0721 67.5504 19.1382 67.5504 19.1715C67.5504 19.5063 67.8244 19.7398 68.1745 19.7398C68.5548 19.7398 68.8135 19.4217 68.8135 18.9365C68.8135 18.1347 68.2501 17.5827 67.4895 17.5827C66.6986 17.5827 66.0434 18.1351 65.7093 19.0881V18.9037C65.6783 18.4018 65.6481 18.1347 65.5725 17.5157ZM59.8725 17.5826C58.0465 17.5826 56.9063 19.2045 56.9063 21.7794C56.9063 24.3543 58.0464 25.8601 60.0093 25.8601C61.5003 25.8601 62.474 24.8393 62.6722 23.1169H62.0642C61.8812 24.5385 61.2116 25.3081 60.1311 25.3081C58.7467 25.3081 58.1385 24.1384 58.1234 21.5294H62.6572C62.627 18.9545 61.6683 17.5826 59.8725 17.5826ZM78.8522 17.5826C77.0262 17.5826 75.8847 19.2045 75.8847 21.7794C75.8847 24.3543 77.0261 25.8601 78.9889 25.8601C80.48 25.8601 81.4545 24.8393 81.6518 23.1169H81.0427C80.8605 24.5385 80.1912 25.3081 79.1108 25.3081C77.7264 25.3081 77.1169 24.1384 77.1018 21.5294H81.6369C81.6059 18.9545 80.6479 17.5826 78.8522 17.5826ZM93.3651 17.5826C91.5391 17.5826 90.3976 19.2045 90.3976 21.7794C90.3976 24.3543 91.539 25.8601 93.5019 25.8601C94.9929 25.8601 95.9666 24.8393 96.1647 23.1169H95.5556C95.3726 24.5385 94.7042 25.3081 93.6237 25.3081C92.2393 25.3081 91.6298 24.1384 91.6147 21.5294H96.1498C96.1188 18.9545 95.16 17.5826 93.3651 17.5826ZM118.535 17.5826C116.709 17.5826 115.567 19.2045 115.567 21.7794C115.567 24.3543 116.708 25.8601 118.671 25.8601C120.162 25.8601 121.136 24.8393 121.334 23.1169H120.725C120.543 24.5385 119.874 25.3081 118.794 25.3081C117.409 25.3081 116.801 24.1384 116.785 21.5294H121.319C121.288 18.9545 120.33 17.5826 118.535 17.5826ZM130.766 17.7835L130.414 19.957H130.72C131.268 18.4523 131.511 18.2179 132.5 18.2179H134.37L130.248 25.6756H135.482L135.878 23.2685H135.559C135.101 24.7898 134.676 25.2412 133.64 25.2412H131.861L136 17.7835L130.766 17.7835ZM59.8576 18.0171C60.8466 18.0171 61.3487 18.9536 61.4402 20.9269H58.1532C58.3052 19.0043 58.8837 18.0171 59.8576 18.0171ZM78.836 18.0171C79.825 18.0171 80.3271 18.9536 80.4186 20.9269H77.1316C77.2836 19.0043 77.8622 18.0171 78.836 18.0171ZM93.3502 18.0171C94.3392 18.0171 94.8412 18.9536 94.9327 20.9269H91.6458C91.7977 19.0043 92.3763 18.0171 93.3502 18.0171ZM118.52 18.0171C119.509 18.0171 120.011 18.9536 120.102 20.9269H116.815C116.967 19.0043 117.546 18.0171 118.52 18.0171ZM85.8041 18.151C86.9299 18.151 87.5085 19.4228 87.5085 21.8805C87.5085 24.2045 86.9457 25.4079 85.8501 25.4079C84.7545 25.4079 84.1767 24.1543 84.1767 21.763C84.1767 19.3385 84.7085 18.151 85.8041 18.151ZM109.371 20.1086H110.817C111.624 20.1086 112.079 20.2581 112.429 20.6428C112.779 21.0275 112.976 21.7459 112.976 22.5485C112.976 24.2203 112.216 25.1579 110.862 25.1579H110.315C109.508 25.1579 109.371 25.0229 109.371 24.2876V20.1086ZM103.268 20.7712V21.636H106.668V20.7712H103.268Z" fill="#111827"/>
</svg>
