<svg width="209" height="40" viewBox="0 0 209 40" fill="none" xmlns="http://www.w3.org/2000/svg">
<path d="M65.5371 17.268L58.9396 22.9677C59.5076 24.4705 61.8537 25.9733 64.1811 23.2792L65.0605 24.2322C63.6863 25.9 61.1755 26.3765 59.086 25.9367C57.1986 25.5335 55.6775 23.7557 55.1644 21.9597C54.5227 19.7055 55.0724 17.3596 56.8688 15.8935C58.4265 14.519 62.3851 12.8696 65.5371 17.268ZM63.6314 17.3413C63.3565 16.5716 62.6051 15.7286 61.7069 15.4903C60.9372 15.252 60.039 15.5453 59.3613 16.1318C57.8214 17.6162 57.8397 19.8155 58.4448 21.7214L63.6314 17.3413Z" fill="#111827"/>
<path d="M130.377 17.268L123.779 22.9677C124.348 24.4705 126.693 25.9733 129.021 23.2792L129.901 24.2322C128.526 25.9 126.015 26.3765 123.926 25.9367C122.038 25.5335 120.517 23.7557 120.004 21.9597C119.363 19.7055 119.912 17.3596 121.708 15.8935C123.266 14.519 127.243 12.8696 130.377 17.268ZM128.471 17.3413C128.196 16.5716 127.445 15.7286 126.547 15.4903C125.777 15.252 124.879 15.5453 124.201 16.1318C122.661 17.6162 122.68 19.8155 123.285 21.7214L128.471 17.3413Z" fill="#111827"/>
<path d="M155.561 17.268L148.963 22.9677C149.531 24.4705 151.877 25.9733 154.205 23.2792L155.084 24.2322C153.71 25.9 151.199 26.3765 149.109 25.9367C147.222 25.5335 145.701 23.7557 145.188 21.9597C144.546 19.7055 145.096 17.3596 146.892 15.8935C148.468 14.519 152.427 12.8696 155.561 17.268ZM153.673 17.3413C153.398 16.5716 152.646 15.7286 151.749 15.4903C150.979 15.252 150.081 15.5453 149.403 16.1318C147.863 17.6162 147.881 19.8155 148.487 21.7214L153.673 17.3413Z" fill="#111827"/>
<path d="M95.5949 15.6745C95.5583 15.7295 94.7337 16.8474 94.7337 16.8474C93.3224 15.7478 91.0316 14.9415 89.3638 15.7112C88.1175 16.3343 88.3558 17.7455 90.1334 18.222C91.2882 18.5885 95.1 18.9184 95.5217 21.7774C95.6681 22.9503 95.1183 23.995 94.184 24.728C92.0213 26.3774 88.5941 25.9926 86.2114 25.1679C86.1931 25.1312 86.7615 23.2802 86.7615 23.2802C87.5129 23.775 88.1541 24.0133 88.8872 24.2882C92.5527 25.6077 94.6601 23.3718 92.3693 22.0523C91.3614 21.4475 90.042 21.3925 88.7592 20.8793C87.8061 20.4945 86.8164 19.7614 86.505 18.6985C86.1931 17.5989 86.4131 16.316 87.0913 15.6379C89.2906 13.5852 93.2126 14.3733 95.5949 15.6745Z" fill="#111827"/>
<path d="M17.9062 12.1523C17.9062 11.3276 18.566 10.6678 19.3907 10.6678C20.2154 10.6678 20.8752 11.3276 20.8752 12.1523C20.8752 12.977 20.2154 13.6368 19.3907 13.6368C18.566 13.6185 17.9062 12.9587 17.9062 12.1523Z" fill="#111827"/>
<path d="M138.203 24.598C140.476 24.6896 143.078 24.2314 145.186 23.7549C145.094 23.9199 144.452 25.441 144.452 25.441H134.061L141.245 9.14838C140.494 9.14838 139.009 9.16671 139.009 9.16671C136.168 9.16671 135.215 9.53324 132.668 11.091L132.851 8.12207H145.24L138.203 24.598Z" fill="#111827"/>
<path d="M110.879 12.4282V16.955C112.565 15.4339 114.966 13.8394 117.22 14.9757C118.704 15.9103 118.503 17.5964 118.466 19.3925C118.411 22.2698 118.246 25.422 118.246 25.422H115.406C115.497 21.7017 115.515 18.9526 115.314 17.7797C115.204 17.2299 115.075 16.6617 114.471 16.3868C113.115 15.8554 111.832 17.1199 110.915 18.1096V25.4037H107.708V13.2713H106.535V12.4282H110.879Z" fill="#111827"/>
<path d="M166.243 15.3375L166.426 25.4356H163.238L163.384 15.3375H161.387V14.4945H163.384V14.0363C163.384 14.0363 164.154 13.7431 164.813 13.4315C165.73 13.01 166.243 12.6251 166.243 12.6251V14.4761H172.603C172.603 14.4761 171.888 21.5503 172.713 23.5846C172.914 24.0978 173.391 24.3177 173.959 24.1894C175.04 23.8962 176.085 23.1814 176.983 22.4117V15.3375H175.297V14.4945H180.172V25.4356H176.964V23.7496C176.415 24.0245 171.961 26.9568 170.257 25.1974C169.249 24.0794 169.212 22.0268 169.157 20.2308C169.121 18.5814 169.432 16.8953 169.579 15.3192H166.243V15.3375Z" fill="#111827"/>
<path d="M20.3816 14.4967C20.3816 14.4967 19.6668 21.5709 20.4915 23.6052C20.6931 24.1184 21.1697 24.3383 21.7378 24.21C22.8191 23.9168 23.8637 23.202 24.7617 22.4323V15.3398H23.0756V14.4967H27.9506V25.4379H24.7434V23.7518C24.1936 24.0267 19.7401 26.959 18.0358 25.1996C17.0278 24.0817 16.9911 22.0291 16.9361 20.2331C16.8995 18.5836 17.211 16.8976 17.3576 15.3214H15.7266V14.4784L20.3816 14.4967Z" fill="#111827"/>
<path d="M70.3192 14.4967C70.3192 14.4967 69.6044 21.5709 70.429 23.6052C70.6307 24.1184 71.1072 24.3383 71.6752 24.21C72.7563 23.9168 73.8013 23.202 74.6991 22.4323V15.3398H73.0129V14.4967H77.8881V25.4379H74.6808V23.7518C74.1311 24.0267 69.6776 26.959 67.9731 25.1996C66.9652 24.0817 66.9286 22.0291 66.8737 20.2331C66.8371 18.5836 67.1486 16.8976 67.2949 15.3214H65.6641V14.4784L70.3192 14.4967Z" fill="#111827"/>
<path d="M24.6133 12.1523C24.6133 11.3276 25.2731 10.6678 26.0978 10.6678C26.9225 10.6678 27.5822 11.3276 27.5822 12.1523C27.5822 12.977 26.9225 13.6368 26.0978 13.6368C25.2731 13.6185 24.6133 12.9587 24.6133 12.1523Z" fill="#111827"/>
<path d="M160.325 14.4984V25.4396H157.136V15.3415H155.523V14.4984H160.325Z" fill="#111827"/>
<path d="M157.227 12.1523C157.227 11.3276 157.886 10.6678 158.711 10.6678C159.536 10.6678 160.196 11.3276 160.196 12.1523C160.196 12.977 159.536 13.6368 158.711 13.6368C157.886 13.6185 157.227 12.9587 157.227 12.1523Z" fill="#111827"/>
<path d="M84.0678 14.4945H86.3037V15.3375H84.0678L84.2512 25.4356H81.0622L81.2085 15.3375H78.9727V14.4945H81.2085V14.0363C81.2085 14.0363 81.9782 13.7431 82.6382 13.4315C83.5547 13.01 84.0678 12.6251 84.0678 12.6251V14.4945Z" fill="#111827"/>
<path d="M105.986 15.9097L105.344 16.8444C104.465 15.5981 102.669 15.1949 101.661 15.7447C99.6443 16.9176 99.6443 19.6667 100.011 21.8476C100.268 23.0755 101.074 24.5417 102.412 24.7616C103.457 24.9082 104.574 24.1568 104.996 23.7719L106.041 24.9265C106.041 24.9265 105.418 25.403 104.703 25.6046C102.669 26.3194 100.286 26.0262 98.7283 24.5966C97.0604 23.0572 96.4558 21.0412 96.8587 18.8786C97.1889 17.0276 98.9299 15.2866 100.726 14.7917C102.504 14.3152 104.648 14.7001 105.986 15.9097Z" fill="#111827"/>
<path d="M36.5626 12.4282V13.2713H37.6438V16.1486C37.6438 16.1486 35.4996 13.6928 32.2557 15.3972C30.3131 16.5518 29.5067 18.6227 29.7266 20.7486C29.8732 22.6546 30.8262 24.6156 32.6956 25.3854C34.4366 26.0268 36.3793 25.4403 37.6255 24.2124V25.4587H40.5945V12.4465H36.5626V12.4282ZM37.7721 20.1072C37.7721 20.1072 37.6255 24.414 35.188 24.414C32.7505 24.414 32.8422 20.0889 32.8422 20.0889C32.8422 20.0889 32.8788 16.0203 35.4263 16.0203C37.9554 16.0203 37.7721 20.1072 37.7721 20.1072Z" fill="#111827"/>
<path d="M49.0975 12.4282V13.2713H50.1791V16.1486C50.1791 16.1486 48.0347 13.6928 44.7909 15.3972C42.8482 16.5518 42.0418 18.6227 42.2618 20.7486C42.4084 22.6546 43.3614 24.6156 45.2307 25.3854C46.9719 26.0268 48.9146 25.4403 50.1608 24.2124V25.4587H53.1111V12.4465H49.0975V12.4282ZM50.3255 20.1072C50.3255 20.1072 50.1791 24.414 47.7416 24.414C45.304 24.414 45.3956 20.0889 45.3956 20.0889C45.3956 20.0889 45.4323 16.0203 47.9798 16.0203C50.5089 16.0203 50.3255 20.1072 50.3255 20.1072Z" fill="#111827"/>
<path d="M193.936 19.2264C193.954 21.169 193.973 23.0384 193.899 25.4209C192.946 25.4209 190.765 25.4209 190.765 25.4209C190.967 22.8918 191.792 16.9722 189.665 16.514C188.309 16.2207 187.063 17.2471 186.11 18.2917V25.4209H183.013V15.3411H181.785V14.498H186.092V17.0455C187.576 15.6343 189.556 14.0948 191.626 14.5164C192.25 14.6446 193.881 15.1028 193.936 19.2264Z" fill="#111827"/>
<path d="M14.8998 10.4852L16.0177 9.55055L16.5309 10.027L13.9651 12.208C11.491 10.3203 8.24709 8.6342 4.9849 9.55055C4.14188 9.82545 3.00561 10.5585 2.96896 11.6215C2.93231 13.5275 6.68933 14.4988 6.68933 14.4988C6.68933 14.4988 11.7292 16.0383 13.8002 17.9809C14.7532 18.8423 15.0647 20.2352 14.8081 21.6097C13.232 28.3723 3.90363 25.0918 1.66775 23.2591L0.513152 24.432L0 23.9738L2.60242 21.3348C4.67337 22.8742 5.13152 23.1491 7.03754 23.9555C11.9675 25.8065 13.5802 22.9475 12.224 21.1332C9.93317 18.4391 6.02954 18.8973 3.26219 16.973C1.79604 15.9283 0.751403 14.3889 1.00798 12.5378C1.17292 10.7784 2.98729 9.20234 4.54507 8.61587C8.08218 7.22303 12.0591 8.34097 14.8998 10.4852Z" fill="#111827"/>
<path d="M209.001 16.2567C209.001 15.4503 208.341 14.7905 207.535 14.7905C206.931 14.7905 206.399 15.1571 206.179 15.6885C206.179 15.6885 205.996 16.1284 206.032 16.5682C205.959 16.4399 205.629 16.1284 205.428 15.9634C203.595 14.3873 200.571 14.1674 198.464 15.2304C196.191 16.4033 195.018 18.7675 195.348 21.2966C195.549 23.4225 197.456 25.4018 199.38 26.0616C199.05 26.2082 198.079 26.4281 198.024 27.5644C197.987 29.507 201.084 28.4807 202.605 29.0122C202.99 29.2138 203.192 29.5987 203.118 30.0569C203.009 30.4234 202.679 30.6983 202.33 30.8083C200.901 31.2848 199.416 30.4967 198.39 29.5254L197.291 30.3867C197.95 30.9182 198.61 31.413 199.343 31.6696C200.608 32.1461 203.54 32.366 204.896 30.4601C205.19 30.0752 205.299 29.2505 205.024 28.7556C204.016 27.0695 201.707 27.8576 200.351 27.6744C199.6 27.5827 199.068 26.4648 201.799 26.2448C203.87 26.1532 205.776 24.9436 206.857 23.0926C207.755 21.5165 207.499 19.189 206.82 17.6495C207.151 17.7228 207.388 17.7595 207.59 17.7228C208.378 17.6862 209.001 17.0448 209.001 16.2567ZM201.396 25.1636C199.728 25.1636 198.39 23.0376 198.39 20.3985C198.39 17.7778 199.746 15.6336 201.396 15.6336C203.063 15.6336 204.402 17.7595 204.402 20.3985C204.402 23.0376 203.063 25.1636 201.396 25.1636Z" fill="#111827"/>
</svg>
