<svg width="320" height="40" viewBox="0 0 320 40" fill="none" xmlns="http://www.w3.org/2000/svg">
<path d="M135.882 19.5003C135.882 22.2454 136.911 24.8761 138.856 26.8206C140.8 28.765 143.431 29.7944 146.176 29.7944C151.895 29.7944 156.47 25.2193 156.47 19.5003C156.584 16.7552 155.555 14.0101 153.611 12.0657C151.666 10.1212 148.921 8.97745 146.176 9.09183C140.457 9.20621 135.882 13.7814 135.882 19.5003ZM139.771 19.5003C139.771 15.8402 142.401 12.4088 146.29 12.4088C150.179 12.4088 152.81 15.2683 152.81 19.5003C152.924 21.3304 152.238 23.0461 150.98 24.4186C149.722 25.7912 148.006 26.4774 146.29 26.4774C142.401 26.5918 139.771 23.618 139.771 19.5003Z" fill="#111827"/>
<path d="M113.349 19.4997C113.235 22.2448 114.264 24.9899 116.209 26.9343C118.153 28.8788 120.898 29.9082 123.644 29.7938C126.732 29.9082 129.706 28.4213 131.536 25.9049L131.65 25.7905L128.791 23.3886L128.676 23.6173C127.647 25.5618 125.702 26.7056 123.529 26.5912C119.64 26.5912 117.01 23.503 117.01 19.4997C116.895 17.6696 117.581 15.9539 118.725 14.5814C119.983 13.2088 121.699 12.4082 123.529 12.4082C125.588 12.4082 127.532 13.552 128.676 15.2677L128.791 15.382L131.65 13.0945L131.536 12.9801C129.591 10.5781 126.617 9.20557 123.529 9.20557C120.784 9.20557 118.153 10.235 116.323 12.1794C114.493 14.1239 113.349 16.7546 113.349 19.4997Z" fill="#111827"/>
<path d="M258.382 21.101V29.3363H262.042V21.101L269.248 9.66309H265.245L260.212 17.5552L255.408 9.66309H251.176L258.382 21.101Z" fill="#111827"/>
<path d="M191.47 9.66309V29.3363H195.245V22.016C195.473 22.016 195.817 22.1304 196.16 22.1304C200.964 22.1304 204.281 20.0716 204.281 15.9539C204.281 12.065 201.421 9.66309 196.045 9.66309H191.47ZM195.245 12.6369H196.16C199.248 12.6369 200.506 13.7807 200.506 15.8396C200.506 17.8984 199.134 19.0422 196.16 19.0422C195.817 19.0422 195.588 19.0422 195.245 18.9278V12.6369Z" fill="#111827"/>
<path d="M166.536 18.6994L172.712 29.9085L178.774 18.6994L181.176 29.3367H185.065L179.918 9.32031L172.826 22.5883L165.506 9.32031L160.588 29.451H164.248L166.536 18.6994Z" fill="#111827"/>
<path d="M65.5392 21.3301L52.5 9.32031V29.451H56.0457V17.7844L69.1993 29.9085V9.66345H65.5392V21.3301Z" fill="#111827"/>
<path d="M40.1472 9.66309V29.3363H43.9217V9.66309H40.1472Z" fill="#111827"/>
<path d="M35.3431 29.3363L25.7353 9.20557L16.1274 29.3363H19.902L21.8464 25.1043H29.3954L31.2255 29.3363H35.3431ZM23.2189 22.016L25.7353 16.2971L28.0229 22.016H23.2189Z" fill="#111827"/>
<path d="M9.49346 18.9278C11.0948 18.2415 12.1242 16.5258 12.1242 14.8101C12.1242 11.3788 9.37908 9.66309 4.68954 9.66309H0V29.3363H5.60457C10.6373 29.3363 13.3824 27.2775 13.3824 23.6173C13.268 21.3298 11.6667 19.3853 9.49346 18.9278ZM5.37582 20.9866C8.00653 20.9866 9.49346 21.6729 9.49346 23.7317C9.49346 25.5618 8.12091 26.3624 5.37582 26.3624H3.77451V20.9866H5.37582ZM3.77451 18.0128V12.6369H4.46078C7.20588 12.6369 8.57843 13.3232 8.57843 15.382C8.57843 17.4409 7.20588 18.0128 4.57516 18.0128H3.77451Z" fill="#111827"/>
<path d="M97.3361 29.4507H101.682C101.682 29.4507 98.3655 25.6762 97.7936 24.9899C98.2511 24.418 101.111 20.0716 101.111 20.0716H97.5649L95.8492 22.7023L92.7609 19.1565C95.3916 17.784 96.993 15.8396 96.993 13.7807C96.993 11.0356 94.591 9.20557 91.5028 9.20557C88.0714 9.20557 85.7838 11.2644 85.7838 14.0095C85.8982 15.8396 86.6988 17.4409 87.957 18.699C85.8982 19.8428 84.0681 21.5585 84.0681 24.418C84.0681 27.5062 86.5845 29.9082 90.2446 29.9082C92.3034 29.9082 94.3622 29.1075 95.7348 27.5062L97.3361 29.4507ZM89.2152 14.1239C89.2152 13.552 89.4439 12.8657 89.9014 12.5226C90.359 12.065 90.9309 11.8363 91.5028 11.8363C92.0747 11.8363 92.6465 11.9507 93.1041 12.4082C93.5616 12.7513 93.7903 13.3232 93.676 13.8951C93.676 15.2677 92.3034 16.2971 90.9309 16.9833C90.0158 16.2971 89.3296 15.2677 89.2152 14.1239ZM93.676 25.333C92.9897 26.248 91.8459 26.8199 90.5877 26.8199C89.7871 26.9343 89.1008 26.5912 88.5289 26.1337C87.957 25.5618 87.6139 24.8755 87.6139 24.0748C87.7282 22.7023 88.5289 21.5585 89.6727 20.8722H89.7871L93.676 25.333Z" fill="#111827"/>
<path d="M243.056 21.3301L230.017 9.32031V29.3367H233.677V17.7844L246.716 29.9085V9.66345H243.056V21.3301Z" fill="#111827"/>
<path d="M225.212 29.3363L215.604 9.20557L205.997 29.3363H209.771L211.716 25.1043H219.265L221.095 29.3363H225.212ZM213.088 22.016L215.604 16.2971L217.892 22.016H213.088Z" fill="#111827"/>
<path d="M307.794 20.415L304.591 6.23203L295.784 17.6699L307.794 20.415ZM319.117 19.5C319.117 29.1078 311.225 37 301.617 37C292.009 37 284.117 29.1078 284.117 19.5C284.117 9.89216 292.009 2 301.617 2C302.532 2 303.447 2.11438 304.362 2.22876L302.875 4.1732H301.617C297.728 4.1732 294.068 5.66013 291.209 8.29085C288.464 11.0359 286.862 14.6961 286.862 18.585C286.862 26.7059 293.496 33.3399 301.617 33.3399C309.738 33.3399 316.372 26.7059 316.372 18.585C316.372 12.6373 312.598 7.26144 306.993 5.20261L306.421 2.80065C313.97 4.85948 319.117 11.7222 319.117 19.5Z" fill="#111827"/>
</svg>
