<svg width="121" height="40" viewBox="0 0 121 40" fill="none" xmlns="http://www.w3.org/2000/svg">
<path d="M28.7316 3.13753C33.3906 7.84596 30.9919 17.94 23.3757 25.6843C15.7587 33.4269 5.80691 35.8863 1.14856 31.179C0.700346 30.7264 0.319548 30.2224 0 29.6766C0.203088 32.2216 1.09602 34.4542 2.74271 36.118C4.6056 38.0011 7.18444 38.9071 10.1139 38.9231H10.2672C15.7183 38.8946 22.3516 35.8137 27.85 30.2233C36.3688 21.5625 38.9398 10.1614 33.5918 4.75533C31.9582 3.10481 29.7749 2.20766 27.2869 2C27.8112 2.31768 28.2947 2.6956 28.7316 3.13753ZM8.50653 10.7193C1.93117 17.404 -0.493804 25.7587 3.08933 29.38C3.6995 29.9968 4.44625 30.4316 5.29453 30.704C5.14745 26.4188 8.00135 20.454 13.0568 15.3134C18.1107 10.1762 23.9831 7.26749 28.2113 7.39986C27.9399 6.54354 27.5084 5.78926 26.8999 5.1743C25.7829 4.04465 24.2124 3.5087 22.3828 3.5087C18.3417 3.5087 13.0325 6.11939 8.50647 10.7197" fill="#111827"/>
<path d="M114.135 27.8886C114.135 27.8886 113.273 29.6945 108.157 29.3457C108.157 29.3457 104.363 29.2286 100.627 26.7235L97.81 31.2898C97.81 31.2898 104.133 35.8127 112.008 34.4143C112.008 34.4143 116.664 33.6574 115.859 30.2187C115.859 30.2187 115.572 28.7042 114.135 27.8886ZM118.499 21.4445C118.499 21.4445 116.14 19.179 109.659 17.5171C109.659 17.5171 103.548 16.0006 104.305 13.3802C104.305 13.3802 104.65 10.8743 110.974 11.5158C110.974 11.5158 113.733 11.7492 117.124 13.9046L119.941 9.49536C119.941 9.49536 111.72 3.76651 102.696 7.61143C102.696 7.61143 99.4196 9.00996 98.672 12.5648C98.672 12.5648 97.695 16.7017 101.259 19.4979C101.259 19.4979 103.148 21.1874 109.245 22.8779C109.245 22.8779 119.595 25.7761 119.02 31.2903C119.02 31.2903 123.804 26.1078 118.499 21.4445ZM92.0117 23.1288V17.7974H82.7646L80.9971 23.1288H92.0117ZM55.2309 33.9555H60.7136V14.3123L55.2309 16.2787V33.9555ZM46.1216 12.302H69.7465V6.97066H46.1216V12.302ZM73.2381 33.9555H94.8367V28.6242H78.8119V12.3024H94.8367V6.971H73.2381V33.9555Z" fill="#111827"/>
</svg>
