<svg width="139" height="40" viewBox="0 0 139 40" fill="none" xmlns="http://www.w3.org/2000/svg">
<path fill-rule="evenodd" clip-rule="evenodd" d="M137.381 9.16254V13.3245C135.244 12.5105 133.342 12.099 131.677 12.099C130.691 12.099 129.905 12.2833 129.315 12.6396C128.724 12.9989 128.423 13.4413 128.423 13.9634C128.423 14.6576 129.09 15.2749 130.432 15.8279L134.309 17.7323C137.444 19.2404 139 21.243 139 23.7587C139 25.8504 138.175 27.5183 136.51 28.7531C134.857 30.0002 132.632 30.6175 129.863 30.6175C128.584 30.6175 127.437 30.5623 126.417 30.4455C125.398 30.335 124.226 30.1077 122.926 29.7821V25.4266C125.31 26.2406 127.48 26.6521 129.434 26.6521C131.765 26.6521 132.925 25.9702 132.925 24.5942C132.925 23.9092 132.45 23.3563 131.485 22.9232L127.178 21.071C125.59 20.3462 124.409 19.4677 123.636 18.4264C122.875 17.376 122.488 16.1719 122.488 14.7958C122.488 12.8699 123.292 11.3188 124.88 10.1393C126.481 8.96897 128.606 8.38232 131.248 8.38232C132.106 8.38232 133.095 8.45908 134.191 8.60039C135.296 8.7509 136.358 8.93519 137.381 9.16254Z" fill="#111827"/>
<path fill-rule="evenodd" clip-rule="evenodd" d="M15.4043 9.16254V13.3245C13.2677 12.5105 11.3685 12.099 9.7036 12.099C8.71441 12.099 7.93224 12.2833 7.34174 12.6396C6.75131 12.9989 6.44998 13.4413 6.44998 13.9634C6.44998 14.6576 7.12566 15.2749 8.46791 15.8279L12.3455 17.7323C15.4682 19.2404 17.0266 21.243 17.0266 23.7587C17.0266 25.8504 16.1987 27.5183 14.546 28.7531C12.8812 30.0002 10.6685 30.6175 7.88965 30.6175C6.6113 30.6175 5.46079 30.5623 4.44118 30.4455C3.42156 30.335 2.26193 30.1077 0.953223 29.7821V25.4266C3.3455 26.2406 5.51562 26.6521 7.45742 26.6521C9.78886 26.6521 10.9485 25.9702 10.9485 24.5942C10.9485 23.9092 10.4767 23.3563 9.52099 22.9232L5.21429 21.071C3.6133 20.3462 2.43237 19.4677 1.6715 18.4264C0.89839 17.376 0.520996 16.1719 0.520996 14.7958C0.520996 12.8699 1.31845 11.3188 2.91632 10.1393C4.50514 8.96897 6.63259 8.38232 9.27449 8.38232C10.1419 8.38232 11.1189 8.45908 12.2268 8.60039C13.3225 8.7509 14.3847 8.93519 15.4043 9.16254Z" fill="#111827"/>
<path fill-rule="evenodd" clip-rule="evenodd" d="M19.8481 8.77246H26.1637V30.2275H19.8481V8.77246Z" fill="#111827"/>
<path fill-rule="evenodd" clip-rule="evenodd" d="M46.5102 8.77246V12.7379H37.1266V17.4958H45.2654V21.0711H37.1266V26.0656H46.7019V30.2275H31.0486V8.77246H46.5102Z" fill="#111827"/>
<path fill-rule="evenodd" clip-rule="evenodd" d="M75.9936 8.77246V30.2275H70.0978V16.0767L63.9805 30.4241H60.3403L54.457 16.0767V30.2275H50.1929V8.77246H57.9023L63.1648 21.9066L68.6707 8.77246H75.9936Z" fill="#111827"/>
<path fill-rule="evenodd" clip-rule="evenodd" d="M96.3316 8.77246V12.7379H86.9994V17.4958H95.138V21.0711H86.9994V26.0656H96.5234V30.2275H80.8701V8.77246H96.3316Z" fill="#111827"/>
<path fill-rule="evenodd" clip-rule="evenodd" d="M118.492 8.77246V30.2275H111.793L104.276 16.4668V30.2275H100.014V8.77246H106.908L114.231 22.2967V8.77246H118.492Z" fill="#111827"/>
</svg>
