<svg width="121" height="40" viewBox="0 0 121 40" fill="none" xmlns="http://www.w3.org/2000/svg">
<path d="M33.4575 5.71465C37.4234 9.72265 35.3816 18.3151 28.8983 24.9073C22.4145 31.4981 13.9431 33.5917 9.9777 29.5846C9.59616 29.1994 9.27201 28.7703 9 28.3058C9.17288 30.4722 9.93298 32.3726 11.3347 33.789C12.9205 35.3919 15.1157 36.1631 17.6094 36.1767H17.7398C22.38 36.1525 28.0266 33.5299 32.707 28.7711C39.9586 21.3987 42.1471 11.6937 37.5947 7.09178C36.2041 5.68679 34.3456 4.92311 32.2277 4.74634C32.674 5.01676 33.0856 5.33846 33.4575 5.71465ZM16.2411 12.1686C10.6439 17.8588 8.57965 24.9707 11.6298 28.0533C12.1492 28.5783 12.7848 28.9484 13.5069 29.1803C13.3817 25.5326 15.8111 20.4551 20.1145 16.0792C24.4166 11.7062 29.4154 9.23023 33.0146 9.34291C32.7836 8.61398 32.4162 7.9719 31.8983 7.44843C30.9474 6.48683 29.6105 6.0306 28.0531 6.0306C24.6132 6.0306 20.0938 8.25293 16.241 12.1689" fill="#111827"/>
<path d="M106.156 26.7838C106.156 26.7838 105.422 28.321 101.068 28.0241C101.068 28.0241 97.8386 27.9244 94.658 25.792L92.26 29.679C92.26 29.679 97.6425 33.5291 104.345 32.3387C104.345 32.3387 108.309 31.6944 107.624 28.7672C107.624 28.7672 107.38 27.478 106.156 26.7838ZM109.871 21.2983C109.871 21.2983 107.863 19.3699 102.347 17.9552C102.347 17.9552 97.1445 16.6642 97.7891 14.4337C97.7891 14.4337 98.0827 12.3005 103.465 12.8466C103.465 12.8466 105.814 13.0453 108.701 14.8801L111.098 11.1267C111.098 11.1267 104.101 6.2501 96.4194 9.52305C96.4194 9.52305 93.6301 10.7135 92.9938 13.7396C92.9938 13.7396 92.1621 17.261 95.1958 19.6412C95.1958 19.6412 96.8039 21.0795 101.994 22.5184C101.994 22.5184 110.805 24.9855 110.315 29.6794C110.315 29.6794 114.387 25.2679 109.871 21.2983ZM87.3242 22.732V18.1937H79.4527L77.9481 22.732H87.3242ZM56.015 31.9482H60.682V15.2271L56.015 16.901V31.9482ZM48.2607 13.5159H68.3712V8.97759H48.2607V13.5159ZM71.3434 31.9482H89.7289V27.4099H76.0881V13.5162H89.7289V8.97789H71.3434V31.9482Z" fill="#111827"/>
</svg>
