<svg width="189" height="40" viewBox="0 0 189 40" fill="none" xmlns="http://www.w3.org/2000/svg">
<path fill-rule="evenodd" clip-rule="evenodd" d="M27.6461 4.06789C33.6582 7.1222 37.7651 13.2116 37.7651 20.2308C37.7651 27.25 33.6582 33.3586 27.6461 36.3942V34.3071C29.9453 32.9785 31.8902 31.1194 33.3054 28.919L27.6461 26.6999V23.323L33.8549 28.0089C35.1519 25.6943 35.8789 23.0571 35.8789 20.2303C35.8789 14.2734 32.5774 9.03792 27.6461 6.15402V4.06789ZM18.9024 2C22.0464 2 25.0129 2.74018 27.6461 4.06789V6.15498C25.2291 4.75046 22.3997 3.9162 19.4133 3.82116L21.5743 18.7514L27.6461 23.323V26.6999L18.8627 23.2664L10.1384 26.7191V23.361L16.2494 18.7509L18.3911 3.82068C15.3649 3.91572 12.5554 4.75046 10.1384 6.15402V4.06789C12.7522 2.74018 15.7386 2 18.9024 2ZM27.6461 36.3942C25.0129 37.7219 22.0459 38.4804 18.9024 38.4804C15.7391 38.4804 12.7527 37.7219 10.1389 36.4129V34.3071C12.6936 35.8053 15.6994 36.6592 18.9024 36.6592C22.0856 36.6592 25.0726 35.8053 27.6461 34.3071V36.3942ZM10.1389 36.4129C4.10646 33.3586 0 27.25 0 20.2308C0 13.2116 4.10596 7.1222 10.1384 4.06789L10.1389 6.15498C5.18724 9.0384 1.88627 14.2552 1.88627 20.2308C1.88627 23.0571 2.63312 25.7327 3.93006 28.0468L10.1384 23.361V26.7191L4.49952 28.9569C5.91422 31.1395 7.83974 32.979 10.1389 34.3071V36.4129Z" fill="#111827"/>
<path d="M113.413 11C112.197 11.3463 111.101 11.5548 109.741 11.7116V12.1547C111.272 12.1547 111.467 12.3383 111.467 13.695V18.2562C110.567 16.6923 109.861 16.2238 108.548 16.2238C105.945 16.2238 104.123 18.8558 104.123 22.6108C104.123 26.3659 105.97 29 108.622 29C110.008 29 110.956 28.3235 111.636 26.8632C111.734 27.8531 111.735 27.9576 111.978 28.9489C112.975 28.6094 113.388 28.5039 114.824 28.3225L115.187 28.2692V27.8261C113.558 27.7743 113.413 27.6434 113.413 26.0536V11ZM47.7909 11.1896C46.8663 11.2946 46.379 11.3217 45.4799 11.3217C44.7982 11.3217 44.4343 11.2964 43.4868 11.2173V11.8671C45.1643 11.9721 45.5037 12.2331 45.5037 13.433V13.5906L44.9931 26.3924C44.9447 27.8008 44.7029 28.0084 43 28.1393V28.7657C44.2654 28.6607 44.7498 28.6357 45.4302 28.6357C46.1119 28.6357 46.5974 28.6607 47.8386 28.7657V28.1393C46.1357 28.0084 45.8197 27.7734 45.8197 26.6267V26.3924L46.3065 12.8599L50.2946 24.4111L50.5867 25.3229L50.9285 26.3391L51.2683 27.3575L51.5366 28.1926H51.9022L52.1685 27.3319L52.4844 26.3391L52.8242 25.3762L53.1163 24.5133L57.1302 12.8854L57.3488 26.3924V26.5223C57.3488 27.7481 56.9845 28.0343 55.3299 28.1393V28.7657C56.8624 28.6089 57.4456 28.5569 58.3702 28.5569C59.2935 28.5569 59.878 28.6089 61.4105 28.7657V28.1393C59.6593 28.0084 59.4396 27.8008 59.4154 26.3924L59.1491 13.5906V13.4074C59.1491 12.2335 59.5135 11.9721 61.168 11.8671V11.2173C60.2435 11.2964 59.8544 11.3217 59.2465 11.3217C58.5165 11.3217 58.0066 11.2946 56.9117 11.1896L52.3155 24.3855L47.7909 11.1896ZM142.399 11.294V11.948C144.15 12.0517 144.394 12.2588 144.394 13.6673V26.3135C144.394 27.722 144.199 27.9037 142.399 28.0605V28.6868H148.553C150.352 28.6868 151.325 28.4526 152.346 27.775C153.563 26.9405 154.365 25.3489 154.365 23.7059C154.365 22.2988 153.805 21.0223 152.857 20.2397C152.345 19.8224 151.81 19.5872 150.935 19.4045C152.686 18.701 153.612 17.3707 153.612 15.5463C153.612 14.1897 153.076 12.9889 152.151 12.2335C151.325 11.5818 150.376 11.294 148.795 11.294L142.399 11.294ZM146.436 12.1036H148.503C150.547 12.1036 151.446 13.1718 151.446 15.5975C151.446 16.7959 151.18 17.6574 150.645 18.3351C150.11 18.9868 149.453 19.1957 148.09 19.1957H146.436V12.1036ZM90.4996 15.8318L89.8419 17.1612C89.0635 16.3526 88.4073 16.0662 87.362 16.0662C84.4916 16.0662 82.5452 18.7263 82.5452 22.6108C82.5452 26.4176 84.4677 28.9744 87.2884 28.9744C89.4784 28.9744 90.8638 27.4606 91.1792 24.671H90.1816C89.8904 26.9657 88.9895 28.1137 87.4812 28.1137C85.6092 28.1137 84.6615 26.2622 84.6615 22.6108C84.6615 18.8817 85.733 16.7713 87.5567 16.7713C89.0408 16.7713 89.9389 17.8657 90.3764 20.1331H90.9129V15.8318L90.4996 15.8318ZM134.079 15.9106L133.665 16.978C132.839 16.3794 132.134 16.145 131.185 16.145C129.045 16.145 127.537 17.5531 127.537 19.6133C127.537 21.1254 128.098 21.8553 129.872 22.7429L130.991 23.2883L131.915 23.7314C133.106 24.3055 133.57 24.9053 133.57 25.7916C133.57 27.1223 132.499 28.1393 131.064 28.1393C129.361 28.1393 128.339 26.9923 127.901 24.6198L127.368 24.6454V29H127.805L128.388 27.8261C129.312 28.6088 130.187 28.9212 131.307 28.9212C133.593 28.9212 135.223 27.3585 135.223 25.1674C135.223 23.6294 134.565 22.7937 132.717 21.9334L131.696 21.4647C129.482 20.4216 129.119 20.0833 129.119 19.0402C129.119 17.8145 130.116 16.8757 131.404 16.8757C132.936 16.8757 133.739 17.8673 133.957 19.9521H134.518V15.9106H134.079ZM170.031 15.9106C169.061 16.2761 168.232 16.4839 166.82 16.6925V17.1356C166.942 17.1356 167.066 17.1612 167.138 17.1612C168.355 17.1612 168.499 17.3194 168.523 18.3883V18.7782V26.8355C168.523 27.9563 168.282 28.1659 166.798 28.2437V28.7657C168.064 28.6348 168.572 28.6101 169.423 28.6101C170.299 28.6101 170.787 28.6348 172.052 28.7657V28.2437C170.787 28.1919 170.47 27.9304 170.47 26.8887V20.5763C170.47 18.4384 171.345 17.3189 173 17.3189C174.555 17.3189 175.188 18.2308 175.188 20.4996V26.8887C175.188 27.9304 174.872 28.1919 173.558 28.2437V28.7657C174.822 28.6348 175.309 28.6101 176.209 28.6101C177.084 28.6101 177.572 28.6348 178.862 28.7657V28.2437C177.378 28.166 177.133 27.9563 177.133 26.8355V20.5763C177.133 19.5864 177.012 18.8565 176.767 18.2307C176.282 16.9531 175.017 16.145 173.558 16.145C172.149 16.145 171.15 16.7711 170.274 18.1796C170.224 17.1883 170.153 16.5106 170.031 15.9106ZM76.4289 15.9618C75.4306 16.274 74.604 16.4317 73.2178 16.5625V17.0312H73.5337C74.7979 17.0571 74.9204 17.1887 74.9446 18.3095V18.7271V26.8355C74.9446 27.9563 74.6781 28.166 73.1939 28.2437V28.7656C74.5318 28.6347 75.042 28.608 75.9183 28.608C76.769 28.608 77.2801 28.6347 78.6167 28.7656V28.2437C77.1339 28.166 76.8899 27.9563 76.8899 26.8355V21.3858C76.8899 18.8034 77.6924 17.1633 78.9565 17.1633C79.394 17.1633 79.6878 17.4221 79.6878 17.7875V18.0219L79.6381 18.2839C79.6141 18.3889 79.5904 18.492 79.5904 18.5438C79.5904 19.0661 80.0284 19.4301 80.5879 19.4301C81.1958 19.4301 81.6093 18.9341 81.6093 18.1774C81.6093 16.9271 80.7088 16.0662 79.493 16.0662C78.2289 16.0662 77.1817 16.9277 76.6475 18.4139V18.1263C76.5981 17.3436 76.5497 16.9271 76.4289 15.9618ZM67.3181 16.0661C64.3994 16.0661 62.5769 18.5954 62.5769 22.6108C62.5769 26.6263 64.3993 28.9744 67.5367 28.9744C69.9199 28.9744 71.4764 27.3826 71.793 24.6965H70.8213C70.5288 26.9135 69.4584 28.1137 67.7314 28.1137C65.5186 28.1137 64.5464 26.2896 64.5223 22.221H71.7692C71.7209 18.2055 70.1884 16.0661 67.3181 16.0661ZM97.6551 16.0661C94.7365 16.0661 92.9119 18.5954 92.9119 22.6108C92.9119 26.6263 94.7363 28.9744 97.8737 28.9744C100.257 28.9744 101.815 27.3826 102.13 24.6965H101.156C100.865 26.9135 99.7954 28.1137 98.0684 28.1137C95.8556 28.1137 94.8814 26.2896 94.8573 22.221H102.106C102.057 18.2055 100.525 16.0661 97.6551 16.0661ZM120.852 16.0661C117.934 16.0661 116.109 18.5954 116.109 22.6108C116.109 26.6263 117.934 28.9744 121.071 28.9744C123.454 28.9744 125.011 27.3826 125.327 24.6965H124.354C124.061 26.9135 122.993 28.1137 121.266 28.1137C119.053 28.1137 118.079 26.2896 118.055 22.221H125.304C125.254 18.2055 123.722 16.0661 120.852 16.0661ZM161.083 16.0661C158.165 16.0661 156.34 18.5954 156.34 22.6108C156.34 26.6263 158.164 28.9744 161.302 28.9744C163.685 28.9744 165.242 27.3826 165.558 24.6965H164.585C164.293 26.9135 163.224 28.1137 161.499 28.1137C159.284 28.1137 158.312 26.2896 158.287 22.221H165.534C165.485 18.2055 163.954 16.0661 161.083 16.0661ZM180.634 16.3793L180.072 19.7688H180.561C181.436 17.4223 181.824 17.0568 183.406 17.0568H186.395L179.806 28.6868H188.171L188.805 24.933H188.295C187.563 27.3054 186.884 28.0093 185.229 28.0093H182.385L189 16.3793L180.634 16.3793ZM67.2942 16.7436C68.875 16.7436 69.6776 18.2041 69.8238 21.2815H64.5699C64.8128 18.2832 65.7376 16.7436 67.2942 16.7436ZM97.6293 16.7436C99.2101 16.7436 100.013 18.2041 100.159 21.2815H94.905C95.1479 18.2832 96.0727 16.7436 97.6293 16.7436ZM120.829 16.7436C122.409 16.7436 123.212 18.2041 123.358 21.2815H118.104C118.347 18.2832 119.272 16.7436 120.829 16.7436ZM161.059 16.7436C162.64 16.7436 163.443 18.2041 163.589 21.2815H158.335C158.578 18.2832 159.503 16.7436 161.059 16.7436ZM108.767 16.9524C110.566 16.9524 111.491 18.9358 111.491 22.7685C111.491 26.3926 110.592 28.2693 108.84 28.2693C107.089 28.2693 106.166 26.3144 106.166 22.5853C106.166 18.8044 107.016 16.9524 108.767 16.9524ZM146.436 20.0053H148.747C150.037 20.0053 150.765 20.2384 151.325 20.8383C151.884 21.4382 152.199 22.5586 152.199 23.8103C152.199 26.4172 150.983 27.8794 148.819 27.8794H147.945C146.655 27.8794 146.436 27.669 146.436 26.5223V20.0053ZM136.682 21.0386V22.3871H142.116V21.0386H136.682Z" fill="#111827"/>
</svg>
