<svg width="203" height="40" viewBox="0 0 203 40" fill="none" xmlns="http://www.w3.org/2000/svg">
<path fill-rule="evenodd" clip-rule="evenodd" d="M4.87296 25.6416C4.87296 26.7572 5.20012 27.0121 7.29316 27.0121V27.7133H0V27.0121C1.43893 27.0121 1.92975 26.8846 1.92975 25.6735V14.2949C1.92975 13.0837 1.43893 12.9561 0 12.9561V12.2549H12.2317L12.2972 16.494H11.7085C11.3813 13.3069 10.5637 13.0202 7.52218 13.0202H4.84038V19.331H6.99878C9.05924 19.331 9.19014 19.0121 9.35361 17.4186H9.94237V22.0402H9.35361C9.19014 20.4466 9.05924 20.1595 6.99878 20.1595H4.84038V25.6418H4.87316L4.87296 25.6416ZM13.8015 27.7133V27.0121C15.2406 27.0121 15.7312 26.8846 15.7312 25.6735V14.2949C15.7312 13.0837 15.2406 12.9561 13.8015 12.9561V12.2549H20.6042V12.9563C19.1651 12.9563 18.6745 13.0839 18.6745 14.2951V25.6737C18.6745 26.8848 19.1651 27.0123 20.6042 27.0123V27.7135H13.8013L13.8015 27.7133ZM36.0409 27.9682L25.1828 14.8685V25.6098C25.1828 26.853 26.0657 27.0441 27.5704 27.0441V27.7454H21.8143V27.0441C23.3186 27.0441 24.1364 26.853 24.1364 25.6098V13.6892C23.4495 12.988 22.9589 12.9561 21.8143 12.9561V12.2549H26.9163L35.2233 22.6774V14.3586C35.2233 13.1156 34.3404 12.9244 32.8359 12.9244V12.2549H38.6246V12.9563C37.1203 12.9563 36.3025 13.1476 36.3025 14.3907V27.9686H36.0409V27.9682ZM43.7921 27.7133H38.0686V27.0121C39.573 27.0121 40.2599 26.8209 40.7504 25.5459L45.9179 12.0956H47.3568L52.9167 25.6416C53.4073 26.8528 53.6361 26.9802 54.7809 26.9802V27.6814H48.1418V26.9802C50.1695 26.9802 50.3658 26.8209 49.875 25.6416L48.24 21.5301H43.2687L41.7972 25.514C41.3393 26.7253 42.0588 26.9802 43.8249 26.9802V27.7133H43.7921ZM43.5631 20.7331H47.88L45.6235 15.1873L43.5631 20.7331ZM69.6944 27.9682L58.869 14.8685V25.6098C58.869 26.853 59.752 27.0441 61.2565 27.0441V27.7454H55.6311V27.0441C57.0048 27.0441 57.8224 26.853 57.8224 25.6098V13.7211C57.0376 13.02 56.4488 12.9561 55.1408 12.9561V12.2549H60.5696L68.8766 22.6774V14.3586C68.8766 13.1156 67.9936 12.9244 66.4893 12.9244V12.2549H72.2454V12.9563C70.741 12.9563 69.9234 13.1476 69.9234 14.3907V27.9686H69.6944V27.9682ZM85.7526 12.2232H86.1451L86.3739 16.8446L85.7853 16.8765C85.3928 14.2312 83.9539 12.8287 81.3047 12.8287C78.3613 12.8287 76.1373 15.283 76.1373 19.0439C76.1373 23.8567 79.2442 26.5977 82.5146 26.5977C83.9211 26.5977 85.1966 26.2154 86.4393 24.9087L86.8973 25.3547C85.8833 26.7572 83.8884 27.9365 81.2064 27.9365C77.2165 27.9365 73.1612 25.0041 73.1612 20.0956C73.161 15.3467 76.8566 12 81.3375 12C83.4633 12 84.5752 12.8924 85.1638 12.8924C85.4254 12.8924 85.6217 12.6694 85.7526 12.2232ZM88.2053 27.7133V27.0121C89.6444 27.0121 90.1351 26.8846 90.1351 25.6735V14.2949C90.1351 13.0837 89.6444 12.9561 88.2053 12.9561V12.2549H95.008V12.9563C93.5691 12.9563 93.0783 13.0839 93.0783 14.2951V25.6737C93.0783 26.8848 93.5691 27.0123 95.008 27.0123V27.7135L88.2053 27.7133ZM101.418 27.7133H96.0872V27.0121C97.2648 27.0121 97.8861 26.8209 98.3767 25.5459L103.544 12.0956H104.983L110.543 25.6416C111.033 26.8528 111.262 26.9802 112.407 26.9802V27.6814H105.768V26.9802C107.796 26.9802 107.992 26.8209 107.502 25.6416L105.866 21.5301H100.895L99.4233 25.514C98.9655 26.7253 99.6851 26.9802 101.451 26.9802V27.7133H101.418ZM101.189 20.7331H105.506L103.282 15.1873L101.189 20.7331ZM113.519 27.7133V27.0121C114.958 27.0121 115.449 26.8846 115.449 25.6735V14.2949C115.449 13.0837 114.958 12.9561 113.519 12.9561V12.2549H120.289V12.9563C118.85 12.9563 118.392 13.0839 118.392 14.2951V25.7693C118.392 26.7891 118.915 26.9167 119.766 26.9167H120.583C123.658 26.9167 124.639 26.4705 125.489 23.0601L126.078 23.1238L125.587 27.6817H113.519V27.7137V27.7133ZM146.486 12.2549L146.551 16.749H145.962C145.636 13.4343 144.818 13.0202 141.776 13.0202H140.795V25.6418C140.795 26.853 141.253 27.0123 143.215 27.0123V27.7135H135.431V27.0123C137.394 27.0123 137.884 26.8211 137.884 25.6418V13.02H136.903C133.862 13.02 133.044 13.4343 132.717 16.749H132.128L132.194 12.2549H146.486ZM148.023 27.7135V27.0121C149.462 27.0121 149.953 26.8846 149.953 25.6735V14.2949C149.953 13.0837 149.462 12.9561 148.023 12.9561V12.2549H154.826V12.9563C153.386 12.9563 152.896 13.0839 152.896 14.2951V25.6737C152.896 26.8848 153.386 27.0123 154.826 27.0123V27.7135H148.023ZM175.299 12.2548V12.9563C173.86 12.9563 173.239 13.0202 173.369 14.2632L174.612 25.7374C174.743 26.9167 175.201 27.0441 176.64 27.0441V27.7454H169.87V27.0441C171.276 27.0441 171.767 26.9167 171.669 25.7374L170.393 13.689L165.389 28H165.193L160.287 13.6575L159.11 25.7053C158.979 26.9165 159.829 27.0439 161.268 27.0439V27.7452H155.97V27.0439C157.409 27.0439 157.9 26.8209 157.998 25.7053L159.24 14.231C159.371 13.02 158.75 12.9244 157.311 12.9244V12.2549H162.871L166.207 22.8048L169.804 12.2549H175.298L175.299 12.2548ZM187.956 22.0398H187.367C187.204 20.4462 187.073 20.1591 185.012 20.1591H182.592V25.769C182.592 26.7888 183.115 26.9163 183.966 26.9163H185.274C188.348 26.9163 189.329 26.4701 190.18 23.0598L190.768 23.1235L190.212 27.6814H177.719V26.98C179.158 26.98 179.649 26.8526 179.649 25.6414V14.2949C179.649 13.0837 179.158 12.9561 177.719 12.9561V12.2549H189.722L189.787 16.1115H189.199C188.839 13.3704 188.119 13.0517 184.979 13.0517H182.625V19.3306H185.045C187.105 19.3306 187.236 19.012 187.4 17.4184H187.988V22.04H187.956L187.956 22.0398ZM200.58 24.5258C200.58 23.1235 199.664 22.4223 198.094 21.5616L195.576 20.2867C193.679 19.2987 192.567 18.215 192.567 16.2708C192.567 13.8487 194.693 12 197.473 12C199.37 12 200.351 12.8924 200.907 12.8924C201.267 12.8924 201.43 12.6694 201.594 12.2232H202.051L202.281 16.5579L201.692 16.5898C201.365 14.486 199.828 12.8605 197.669 12.8605C196.034 12.8605 194.955 13.8168 194.955 15.1554C194.955 16.6216 196.099 17.2271 197.375 17.8965L199.533 19.012C201.561 20.0956 203 21.1793 203 23.251C203 25.9922 200.58 27.9365 197.571 27.9365C195.445 27.9365 194.399 26.9483 193.843 26.9483C193.483 26.9483 193.287 27.2671 193.123 27.7452H192.665L192.338 23.1554L192.927 23.0917C193.385 25.9602 195.412 27.1395 197.44 27.1395C199.141 27.1076 200.58 26.3747 200.58 24.5261L200.58 24.5258Z" fill="#111827"/>
</svg>
