<svg width="218" height="40" viewBox="0 0 218 40" fill="none" xmlns="http://www.w3.org/2000/svg">
<path d="M52.6545 5.11157C60.0704 5.11157 67.4863 5.11157 75.1269 5.11157C75.1269 13.3656 75.1269 21.6196 75.1269 30.1237C77.2199 30.1237 79.3129 30.1237 81.4693 30.1237C81.4693 21.8697 81.4693 13.6157 81.4693 5.11157C91.2107 5.11157 100.952 5.11157 110.989 5.11157C110.989 15.1856 110.989 25.2596 110.989 35.6388C109.102 35.6388 107.216 35.6388 105.273 35.6388C105.273 27.4617 105.273 19.2846 105.273 10.8597C103.18 10.8597 101.087 10.8597 98.9304 10.8597C98.9304 19.0368 98.9304 27.2139 98.9304 35.6388C97.0441 35.6388 95.1578 35.6388 93.2144 35.6388C93.2144 27.4617 93.2144 19.2846 93.2144 10.8597C91.1472 10.8597 89.0801 10.8597 86.9503 10.8597C86.9503 19.0625 86.9503 27.2652 86.9503 35.7165C81.1882 35.7165 75.426 35.7165 69.4892 35.7165C69.4892 27.4369 69.4892 19.1572 69.4892 10.6267C67.4996 10.6267 65.51 10.6267 63.4601 10.6267C63.4605 11.384 63.4609 12.1412 63.4613 12.9215C63.4626 15.3416 63.4634 17.7618 63.4641 20.1819C63.4642 20.5575 63.4643 20.9331 63.4644 21.3088C63.4644 21.4209 63.4644 21.4209 63.4644 21.5354C63.4648 22.7479 63.4654 23.9604 63.4661 25.1729C63.4668 26.4161 63.4673 27.6592 63.4674 28.9024C63.4675 29.6702 63.4679 30.4379 63.4685 31.2057C63.4689 31.7314 63.469 32.2571 63.4689 32.7829C63.4689 33.0867 63.469 33.3905 63.4694 33.6942C63.4698 34.0228 63.4697 34.3514 63.4695 34.6799C63.4698 34.8256 63.4698 34.8256 63.4702 34.9742C63.47 35.0614 63.4699 35.1487 63.4697 35.2386C63.4697 35.3146 63.4698 35.3906 63.4698 35.4688C63.4601 35.6388 63.4601 35.6388 63.3818 35.7165C61.573 35.7165 59.7643 35.7165 57.9007 35.7165C57.9007 27.4112 57.9007 19.106 57.9007 10.549C56.1695 10.549 54.4382 10.549 52.6545 10.549C52.6545 8.75465 52.6545 6.9603 52.6545 5.11157Z" fill="#111827"/>
<path d="M0.0365328 5.11157C2.59462 5.11157 5.15271 5.11157 7.78832 5.11157C7.78946 5.68709 7.7906 6.2626 7.79178 6.85556C7.7956 8.69995 7.80057 10.5443 7.80625 12.3887C7.80713 12.6755 7.808 12.9623 7.80887 13.2491C7.80904 13.3062 7.80921 13.3633 7.80939 13.4221C7.81216 14.3449 7.81411 15.2676 7.81575 16.1904C7.81746 17.1382 7.82005 18.086 7.82345 19.0338C7.82552 19.618 7.82691 20.2022 7.82742 20.7864C7.82788 21.2354 7.82958 21.6844 7.83172 22.1335C7.8324 22.3169 7.8327 22.5003 7.83256 22.6837C7.83166 24.42 7.98802 26.0456 9.29255 27.3443C10.3419 28.2435 11.5149 28.48 12.8779 28.5702C12.8779 26.2632 12.8779 23.9561 12.8779 21.5792C13.601 21.5792 14.2653 21.5815 14.9724 21.6763C15.052 21.6866 15.1316 21.6969 15.2136 21.7075C15.7305 21.7775 16.2429 21.8627 16.7538 21.9676C16.8414 21.9855 16.8414 21.9855 16.9308 22.0038C17.3254 22.0898 17.6603 22.2126 18.0457 22.356C18.0457 16.6653 18.0457 10.9747 18.0457 5.11157C20.6038 5.11157 23.1619 5.11157 25.7975 5.11157C25.7975 10.8022 25.7975 16.4929 25.7975 22.356C22.1154 22.3944 22.1154 22.3944 18.3589 22.4337C18.9791 22.7028 18.9791 22.7028 19.6118 22.9774C20.709 23.5216 21.6148 24.1629 22.5089 24.997C22.5551 25.0379 22.6013 25.0787 22.649 25.1208C24.7807 27.0852 25.6538 30.1399 25.7975 32.9201C25.7975 33.8173 25.7975 34.7145 25.7975 35.6388C23.2394 35.6388 20.6813 35.6388 18.0457 35.6388C18.0199 34.7673 17.9941 33.8957 17.9674 32.9978C17.7507 31.7079 17.3721 30.5876 16.3231 29.7353C15.2622 29.0086 14.2365 28.7537 12.9562 28.6479C12.9562 30.9549 12.9562 33.2619 12.9562 35.6388C11.1432 35.6388 11.1432 35.6388 10.5582 35.5417C10.4569 35.526 10.4569 35.526 10.3535 35.51C8.69662 35.244 7.15085 34.8111 5.6742 34.0076C5.56579 33.9489 5.56579 33.9489 5.4552 33.889C2.85861 32.4082 1.19597 29.9312 0.412093 27.1082C0.048305 25.6674 -0.00870313 24.1991 0.000976287 22.7219C0.00106495 22.5279 0.00101442 22.334 0.000837693 22.1401C0.000767207 21.7276 0.0016342 21.3152 0.00341781 20.9027C0.00599469 20.3064 0.0067821 19.7101 0.00717249 19.1138C0.00785313 18.1456 0.00992411 17.1775 0.0129049 16.2093C0.0157925 15.2705 0.0180033 14.3316 0.0193281 13.3928C0.0194103 13.3346 0.0194926 13.2765 0.0195774 13.2166C0.0199862 12.9248 0.020382 12.6329 0.0207713 12.3411C0.0240031 9.93128 0.0297687 7.52143 0.0365328 5.11157Z" fill="#111827"/>
<path d="M193.439 21.5017C194.638 21.4969 195.836 21.4921 197.071 21.4872C197.634 21.484 197.634 21.484 198.209 21.4807C198.674 21.4797 198.674 21.4797 198.894 21.4795C199.044 21.4791 199.194 21.4783 199.344 21.4771C200.864 21.4656 202.627 21.479 203.853 22.5049C204.62 23.2963 204.751 24.1226 204.748 25.1754C204.729 26.1103 204.457 26.7185 203.803 27.3946C203.55 27.6225 203.292 27.7866 202.992 27.949C203.192 28.0815 203.377 28.1751 203.594 28.2742C204.477 28.713 204.958 29.3614 205.292 30.2744C205.598 31.356 205.526 32.6039 204.991 33.6012C204.229 34.7667 203.069 35.3218 201.739 35.639C201.269 35.7095 200.813 35.7274 200.337 35.7255C200.223 35.7255 200.223 35.7255 200.107 35.7256C199.862 35.7255 199.618 35.7249 199.373 35.7243C199.221 35.7242 199.07 35.7241 198.918 35.7241C198.358 35.7237 197.797 35.7226 197.237 35.7216C195.984 35.72 194.731 35.7184 193.439 35.7167C193.439 31.0258 193.439 26.3348 193.439 21.5017Z" fill="#111827"/>
<path d="M193.519 5.034C194.851 5.02759 196.183 5.02119 197.556 5.01458C197.974 5.01175 198.393 5.00893 198.824 5.00601C199.341 5.00461 199.341 5.00461 199.584 5.00435C199.751 5.00387 199.918 5.00279 200.086 5.0012C201.568 4.98782 203.128 5.06922 204.279 6.14151C205.127 7.06847 205.473 8.11564 205.447 9.35481C205.393 10.3561 204.961 11.2923 204.216 11.9716C203.912 12.2128 203.573 12.393 203.228 12.5687C203.274 12.5866 203.321 12.6046 203.368 12.623C203.765 12.7856 204.043 12.9358 204.324 13.2678C204.363 13.3117 204.401 13.3555 204.441 13.4007C205.136 14.2411 205.256 15.2866 205.298 16.3361C205.32 16.879 205.366 17.4108 205.45 17.9479C205.459 18.007 205.468 18.0661 205.477 18.1271C205.486 18.1837 205.496 18.2403 205.505 18.2986C205.513 18.3473 205.522 18.396 205.53 18.4462C205.601 18.7206 205.711 18.9837 205.812 19.249C204.778 19.249 203.745 19.249 202.68 19.249C202.519 18.772 202.412 18.436 202.357 17.9576C202.351 17.9046 202.344 17.8516 202.338 17.797C202.297 17.4367 202.273 17.0769 202.254 16.7148C202.198 15.8153 202.098 14.8162 201.402 14.1708C200.913 13.7497 200.266 13.786 199.656 13.7794C199.579 13.778 199.503 13.7767 199.424 13.7752C199.141 13.7704 198.857 13.7668 198.574 13.763C197.622 13.7486 197.622 13.7486 196.651 13.7339C196.651 15.5539 196.651 17.3738 196.651 19.249C195.617 19.249 194.583 19.249 193.519 19.249C193.519 14.558 193.519 9.8671 193.519 5.034Z" fill="#111827"/>
<path d="M150.688 5.03394C151.721 5.03394 152.755 5.03394 153.82 5.03394C154.497 5.79835 154.497 5.79835 154.602 6.15085C154.75 6.58334 154.958 6.92895 155.214 7.306C155.293 7.42796 155.371 7.55014 155.449 7.67254C155.489 7.73542 155.529 7.79831 155.571 7.8631C156.249 8.92505 156.916 9.99372 157.573 11.0688C157.93 11.653 158.296 12.2319 158.666 12.8087C159.01 13.3485 159.351 13.891 159.692 14.4329C159.718 11.3312 159.744 8.22959 159.77 5.03394C160.752 5.03394 161.734 5.03394 162.746 5.03394C162.746 9.72488 162.746 14.4158 162.746 19.2489C161.686 19.2489 160.627 19.2489 159.535 19.2489C158.864 18.5018 158.864 18.5018 158.76 18.1469C158.597 17.6687 158.351 17.2865 158.067 16.87C157.974 16.7267 157.882 16.5831 157.789 16.4392C157.719 16.329 157.719 16.329 157.646 16.2166C157.333 15.7241 157.027 15.2267 156.72 14.73C156.316 14.0779 155.909 13.4285 155.5 12.7802C155.128 12.1917 154.759 11.6018 154.391 11.0111C154.333 10.9181 154.333 10.9181 154.274 10.8233C154.224 10.7435 154.224 10.7435 154.174 10.6621C154.004 10.3909 153.833 10.1205 153.663 9.84994C153.637 12.9516 153.611 16.0533 153.585 19.2489C152.629 19.2489 151.673 19.2489 150.688 19.2489C150.688 14.558 150.688 9.86703 150.688 5.03394Z" fill="#111827"/>
<path d="M206.986 5.03394C210.526 5.03394 214.066 5.03394 217.713 5.03394C217.713 5.90548 217.713 6.77702 217.713 7.67497C215.206 7.67497 212.7 7.67497 210.118 7.67497C210.118 8.67468 210.118 9.67439 210.118 10.7044C212.417 10.7044 214.717 10.7044 217.086 10.7044C217.086 11.5247 217.086 12.3449 217.086 13.1901C214.787 13.1901 212.487 13.1901 210.118 13.1901C210.118 14.3179 210.118 15.4458 210.118 16.6079C212.676 16.6079 215.234 16.6079 217.869 16.6079C217.869 17.4794 217.869 18.351 217.869 19.2489C214.278 19.2489 210.686 19.2489 206.986 19.2489C206.986 14.558 206.986 9.86703 206.986 5.03394Z" fill="#111827"/>
<path d="M137.69 5.03394C141.23 5.03394 144.77 5.03394 148.417 5.03394C148.417 5.90548 148.417 6.77702 148.417 7.67497C145.911 7.67497 143.404 7.67497 140.822 7.67497C140.822 8.67468 140.822 9.67439 140.822 10.7044C143.121 10.7044 145.421 10.7044 147.791 10.7044C147.791 11.5247 147.791 12.3449 147.791 13.1901C145.491 13.1901 143.191 13.1901 140.822 13.1901C140.822 14.3179 140.822 15.4458 140.822 16.6079C143.38 16.6079 145.938 16.6079 148.574 16.6079C148.574 17.4794 148.574 18.351 148.574 19.2489C144.982 19.2489 141.39 19.2489 137.69 19.2489C137.69 14.558 137.69 9.86703 137.69 5.03394Z" fill="#111827"/>
<path d="M184.357 21.5022C185.442 21.5022 186.528 21.5022 187.646 21.5022C188.288 23.1611 188.922 24.8223 189.543 26.4888C189.743 27.0228 189.942 27.5567 190.142 28.0906C190.208 28.2661 190.273 28.4415 190.339 28.617C190.673 29.51 191.008 30.4026 191.346 31.2944C191.368 31.3537 191.39 31.413 191.413 31.4741C191.67 32.1525 191.928 32.8302 192.188 33.5073C192.24 33.6431 192.292 33.7789 192.344 33.9146C192.443 34.1715 192.541 34.4283 192.64 34.6849C192.684 34.799 192.728 34.9131 192.772 35.0272C192.792 35.0794 192.812 35.1315 192.833 35.1853C192.97 35.5442 192.97 35.5442 192.97 35.7172C191.885 35.7172 190.8 35.7172 189.682 35.7172C189.514 35.2349 189.346 34.7527 189.173 34.2559C189.12 34.1039 189.066 33.9519 189.012 33.7953C188.97 33.6749 188.928 33.5544 188.886 33.4339C188.864 33.3713 188.842 33.3088 188.82 33.2444C188.799 33.1845 188.778 33.1246 188.757 33.0628C188.739 33.0109 188.721 32.959 188.702 32.9055C188.664 32.7654 188.664 32.7654 188.664 32.5324C186.881 32.5324 185.098 32.5324 183.261 32.5324C183.183 32.8144 183.106 33.0963 183.026 33.3869C182.958 33.5856 182.888 33.7834 182.815 33.9801C182.78 34.0725 182.746 34.165 182.711 34.2603C182.668 34.3742 182.625 34.4881 182.581 34.6054C182.443 34.9723 182.306 35.3392 182.165 35.7172C181.131 35.7172 180.098 35.7172 179.033 35.7172C179.086 35.402 179.126 35.178 179.236 34.8918C179.262 34.8238 179.288 34.7557 179.315 34.6856C179.357 34.5756 179.357 34.5756 179.401 34.4634C179.431 34.385 179.461 34.3065 179.491 34.2257C179.591 33.9654 179.691 33.7052 179.791 33.4451C179.862 33.2613 179.932 33.0774 180.002 32.8935C180.151 32.5055 180.3 32.1176 180.449 31.7298C180.673 31.1449 180.897 30.5596 181.12 29.9742C181.801 28.1926 182.483 26.4117 183.167 24.6316C183.567 23.5898 183.964 22.5467 184.357 21.5022Z" fill="#111827"/>
<path d="M177.624 5.11207C178.068 5.11016 178.513 5.10874 178.958 5.10781C179.109 5.10741 179.26 5.10688 179.412 5.10621C179.629 5.10527 179.846 5.10483 180.063 5.10449C180.165 5.10389 180.165 5.10389 180.269 5.10327C180.432 5.10326 180.594 5.10725 180.756 5.11207C180.883 5.23851 180.845 5.37952 180.845 5.55416C180.846 5.63299 180.846 5.71183 180.847 5.79305C180.847 5.88029 180.847 5.96752 180.848 6.0574C180.848 6.14872 180.849 6.24004 180.849 6.33413C180.851 6.58549 180.852 6.83685 180.853 7.08822C180.854 7.35142 180.855 7.61462 180.857 7.87783C180.863 8.7749 180.867 9.67198 180.871 10.5691C180.874 11.0641 180.876 11.5592 180.88 12.0543C180.882 12.3161 180.883 12.578 180.884 12.8398C180.885 13.1327 180.887 13.4255 180.889 13.7183C180.889 13.8043 180.889 13.8903 180.889 13.9789C180.894 14.5821 180.91 15.2021 181.275 15.7102C181.46 15.9741 181.46 15.9741 181.46 16.1423C181.521 16.1711 181.521 16.1711 181.583 16.2005C181.774 16.2976 181.774 16.2976 182.023 16.453C182.859 16.9199 184.03 16.863 184.942 16.6666C185.443 16.5195 185.959 16.3232 186.228 15.8533C186.761 14.7707 186.676 13.601 186.676 12.4265C186.677 12.2173 186.679 12.0082 186.68 11.799C186.683 11.3074 186.685 10.8158 186.686 10.3243C186.687 9.76388 186.69 9.2035 186.693 8.64312C186.7 7.492 186.704 6.34088 186.707 5.18975C187.74 5.18975 188.774 5.18975 189.839 5.18975C189.844 6.40523 189.848 7.6207 189.851 8.83619C189.852 9.40068 189.854 9.96516 189.856 10.5296C189.859 11.0222 189.86 11.5147 189.861 12.0072C189.861 12.2676 189.862 12.5279 189.864 12.7882C189.875 14.6893 189.776 16.4207 188.419 17.8997C187.729 18.5462 186.895 18.9001 186.002 19.1717C185.872 19.2129 185.872 19.2129 185.74 19.2548C183.82 19.7401 181.609 19.4655 179.88 18.5357C178.714 17.8286 178.163 16.7995 177.794 15.5323C177.547 14.5014 177.594 13.4553 177.601 12.4019C177.601 12.1911 177.602 11.9803 177.602 11.7695C177.603 11.2744 177.604 10.7792 177.607 10.2841C177.609 9.71956 177.611 9.15505 177.612 8.59053C177.614 7.43103 177.618 6.27155 177.624 5.11207Z" fill="#111827"/>
<path d="M211.689 21.6324C211.743 21.6325 211.797 21.6327 211.853 21.6328C213.52 21.6402 215.127 21.9346 216.397 23.0937C217.17 23.8933 217.478 24.8357 217.478 25.9289C216.471 25.9289 215.463 25.9289 214.425 25.9289C214.321 25.5957 214.218 25.2625 214.111 24.9191C213.826 24.5659 213.719 24.4618 213.333 24.2783C213.253 24.2394 213.174 24.2006 213.091 24.1605C212.345 23.853 211.192 23.8362 210.436 24.1181C210.051 24.3079 209.807 24.5666 209.57 24.9191C209.514 25.3628 209.475 25.7849 209.726 26.1668C210.246 26.4994 210.764 26.6973 211.361 26.8513C211.435 26.871 211.509 26.8906 211.585 26.9108C212.084 27.0416 212.587 27.1576 213.091 27.2692C214.686 27.622 216.355 28.0108 217.389 29.3844C217.509 29.5749 217.614 29.7657 217.713 29.9682C217.753 30.0478 217.753 30.0478 217.794 30.129C218.134 30.9465 218.016 32.0322 217.713 32.8422C217.185 34.005 216.331 34.7512 215.134 35.2017C214.165 35.5532 213.213 35.6789 212.188 35.6733C212.008 35.6726 211.827 35.6748 211.646 35.6773C210.037 35.6848 208.351 35.2039 207.143 34.103C206.272 33.1442 205.968 32.2034 205.968 30.9003C206.95 30.9003 207.932 30.9003 208.943 30.9003C209.047 31.2848 209.15 31.6693 209.257 32.0654C209.744 32.7487 210.289 33.0955 211.116 33.2549C212.164 33.393 213.404 33.4225 214.303 32.7903C214.572 32.5614 214.799 32.314 214.835 31.9574C214.844 31.6143 214.842 31.3512 214.708 31.0314C213.858 30.1679 212.517 29.945 211.371 29.6963C209.599 29.3116 207.929 28.8333 206.771 27.3514C206.475 26.8103 206.394 26.2811 206.399 25.6716C206.399 25.6001 206.399 25.5286 206.4 25.4549C206.422 24.592 206.729 23.9332 207.299 23.2879C207.336 23.2427 207.374 23.1976 207.412 23.151C208.013 22.4847 208.95 22.0516 209.805 21.812C209.851 21.7984 209.898 21.7847 209.945 21.7706C210.52 21.6207 211.099 21.6292 211.689 21.6324Z" fill="#111827"/>
<path d="M123.673 5.03394C124.733 5.03394 125.792 5.03394 126.883 5.03394C127.148 5.73292 127.148 5.73292 127.255 6.07274C127.291 6.1871 127.291 6.1871 127.328 6.30377C127.353 6.38468 127.379 6.46559 127.405 6.54895C127.432 6.63472 127.459 6.7205 127.487 6.80887C127.545 6.99176 127.603 7.17467 127.66 7.3576C127.81 7.83278 127.96 8.30779 128.111 8.78278C128.14 8.87589 128.17 8.969 128.2 9.06493C128.43 9.79049 128.663 10.515 128.9 11.2384C128.946 11.3801 128.946 11.3801 128.993 11.5246C129.036 11.6567 129.036 11.6567 129.08 11.7916C129.236 12.2691 129.389 12.7475 129.538 13.2271C129.603 13.4326 129.668 13.6376 129.734 13.8424C129.752 13.8997 129.771 13.957 129.79 14.016C129.825 14.1257 129.861 14.2353 129.896 14.3447C129.967 14.5652 130.015 14.7437 130.015 14.9767C130.067 14.9767 130.119 14.9767 130.172 14.9767C130.181 14.9007 130.19 14.8247 130.199 14.7464C130.248 14.4079 130.347 14.0924 130.453 13.7678C130.473 13.7045 130.494 13.6412 130.515 13.576C130.581 13.3695 130.648 13.1633 130.715 12.957C130.762 12.8119 130.809 12.6668 130.856 12.5216C130.972 12.1616 131.089 11.8016 131.205 11.4418C131.293 11.1734 131.379 10.9049 131.466 10.6364C132.071 8.76642 132.689 6.9006 133.304 5.03394C134.389 5.03394 135.475 5.03394 136.593 5.03394C136.328 5.90777 136.328 5.90777 136.206 6.27247C136.178 6.35532 136.15 6.43818 136.121 6.52354C136.092 6.61174 136.062 6.69994 136.031 6.79082C135.982 6.9369 135.933 7.08299 135.884 7.22907C135.831 7.38498 135.779 7.54087 135.726 7.69676C135.615 8.02589 135.504 8.35507 135.394 8.68426C135.138 9.4455 134.881 10.2067 134.625 10.9678C134.354 11.7708 134.084 12.5739 133.814 13.377C133.757 13.5448 133.701 13.7125 133.645 13.8803C133.147 15.3605 132.653 16.8419 132.173 18.3281C132.154 18.3864 132.136 18.4446 132.116 18.5046C132.067 18.6566 132.018 18.8087 131.969 18.9609C131.895 19.1712 131.895 19.1712 131.816 19.2489C131.706 19.2561 131.595 19.258 131.484 19.2577C131.378 19.2577 131.378 19.2577 131.27 19.2577C131.194 19.2573 131.117 19.2569 131.038 19.2565C130.96 19.2564 130.882 19.2563 130.801 19.2562C130.551 19.2557 130.3 19.2548 130.05 19.2538C129.88 19.2534 129.711 19.253 129.542 19.2527C129.125 19.2519 128.709 19.2505 128.293 19.2489C127.914 18.1937 127.559 17.133 127.221 16.0641C126.892 15.0245 126.553 13.9888 126.205 12.9555C125.744 11.5901 125.292 10.2222 124.844 8.85274C124.739 8.53305 124.634 8.21349 124.529 7.89395C124.446 7.64272 124.364 7.3914 124.282 7.14005C124.243 7.022 124.204 6.90398 124.166 6.78601C124.112 6.62266 124.058 6.45919 124.005 6.29568C123.975 6.20355 123.945 6.11143 123.914 6.01651C123.818 5.69311 123.747 5.36295 123.673 5.03394Z" fill="#111827"/>
<path d="M164.311 5.03394C168.187 5.03394 172.063 5.03394 176.056 5.03394C176.056 5.90548 176.056 6.77702 176.056 7.67497C174.661 7.67497 173.265 7.67497 171.828 7.67497C171.828 11.4944 171.828 15.3138 171.828 19.2489C170.768 19.2489 169.709 19.2489 168.617 19.2489C168.617 15.4295 168.617 11.6101 168.617 7.67497C167.196 7.67497 165.775 7.67497 164.311 7.67497C164.311 6.80343 164.311 5.93189 164.311 5.03394Z" fill="#111827"/>
<path d="M168.618 21.5022C169.652 21.5022 170.685 21.5022 171.75 21.5022C171.75 25.3216 171.75 29.141 171.75 33.0761C174.05 33.0761 176.35 33.0761 178.719 33.0761C178.719 33.9477 178.719 34.8192 178.719 35.7172C175.386 35.7172 172.052 35.7172 168.618 35.7172C168.618 31.0262 168.618 26.3353 168.618 21.5022Z" fill="#111827"/>
<path d="M38.0125 5.11157C38.2967 5.11157 38.5809 5.11157 38.8738 5.11157C38.8738 15.2112 38.8738 25.3108 38.8738 35.7165C38.5895 35.7165 38.3053 35.7165 38.0125 35.7165C38.0125 25.6169 38.0125 15.5173 38.0125 5.11157Z" fill="#111827"/>
<path d="M196.999 29.334C197.073 29.3332 197.147 29.3325 197.224 29.3317C197.305 29.3314 197.386 29.3311 197.469 29.3307C197.553 29.3303 197.636 29.3298 197.721 29.3294C197.898 29.3287 198.075 29.3281 198.252 29.3278C198.521 29.3271 198.789 29.3247 199.058 29.3222C199.23 29.3217 199.402 29.3213 199.574 29.321C199.653 29.3201 199.733 29.3191 199.815 29.3181C200.523 29.3203 201.177 29.4364 201.74 29.8903C202.173 30.3241 202.311 30.7004 202.317 31.3079C202.313 31.8754 202.245 32.3227 201.844 32.7464C201.191 33.2935 200.366 33.343 199.546 33.3308C199.461 33.3305 199.375 33.3302 199.287 33.3298C199.016 33.3285 198.746 33.3256 198.475 33.3226C198.291 33.3215 198.106 33.3204 197.921 33.3194C197.471 33.3169 197.022 33.313 196.572 33.3081C196.57 32.7564 196.568 32.2047 196.567 31.653C196.567 31.4651 196.566 31.2773 196.566 31.0894C196.565 30.8201 196.564 30.5507 196.564 30.2814C196.564 30.1968 196.563 30.1123 196.563 30.0251C196.563 29.9474 196.563 29.8696 196.563 29.7895C196.563 29.7207 196.562 29.6519 196.562 29.581C196.58 29.2855 196.739 29.3361 196.999 29.334Z" fill="#F9FAFB"/>
<path d="M196.65 7.51933C197.239 7.51218 197.829 7.506 198.418 7.50227C198.618 7.50071 198.818 7.49859 199.019 7.49589C199.307 7.4921 199.596 7.49036 199.885 7.48899C199.973 7.48739 200.062 7.48578 200.154 7.48413C200.81 7.48395 201.297 7.59531 201.808 8.01453C202.265 8.57455 202.344 9.15027 202.288 9.84966C202.194 10.3496 202.048 10.7424 201.661 11.0925C201.231 11.3261 200.814 11.4909 200.321 11.4897C200.24 11.4897 200.158 11.4897 200.074 11.4897C199.987 11.4893 199.899 11.4889 199.808 11.4885C199.673 11.4883 199.673 11.4883 199.535 11.4881C199.247 11.4877 198.959 11.4867 198.671 11.4857C198.476 11.4854 198.281 11.485 198.086 11.4847C197.607 11.4839 197.129 11.4824 196.65 11.4809C196.65 10.1736 196.65 8.86626 196.65 7.51933Z" fill="#F9FAFB"/>
<path d="M196.65 23.9096C197.199 23.9032 197.748 23.8968 198.314 23.8902C198.571 23.8859 198.571 23.8859 198.833 23.8816C199.73 23.873 200.476 23.8971 201.27 24.3562C201.642 24.7714 201.795 25.1757 201.77 25.7329C201.707 26.1402 201.538 26.4774 201.294 26.8079C200.73 27.2163 200.203 27.2941 199.518 27.2801C199.435 27.2796 199.353 27.2792 199.268 27.2787C199.007 27.277 198.746 27.2731 198.485 27.2691C198.307 27.2676 198.13 27.2662 197.952 27.2649C197.518 27.2618 197.084 27.2557 196.65 27.2497C196.65 26.1475 196.65 25.0452 196.65 23.9096Z" fill="#F3F4F6"/>
<path d="M185.922 25.0745C186.124 25.2507 186.208 25.3998 186.293 25.6518C186.316 25.7214 186.34 25.791 186.365 25.8626C186.39 25.9379 186.415 26.0131 186.44 26.0906C186.467 26.1688 186.493 26.2469 186.521 26.3274C186.606 26.5779 186.69 26.8287 186.774 27.0795C186.857 27.3267 186.941 27.5737 187.024 27.8208C187.078 27.9804 187.132 28.1401 187.186 28.2998C187.362 28.8224 187.546 29.3418 187.738 29.8588C187.801 30.0458 187.801 30.0458 187.801 30.2012C186.587 30.2012 185.373 30.2012 184.121 30.2012C184.386 29.2399 184.386 29.2399 184.527 28.8575C184.558 28.7721 184.589 28.6866 184.622 28.5985C184.655 28.5095 184.688 28.4205 184.722 28.3287C184.756 28.2351 184.791 28.1415 184.826 28.045C184.917 27.7991 185.007 27.5533 185.098 27.3076C185.191 27.0556 185.284 26.8035 185.377 26.5514C185.558 26.059 185.74 25.5667 185.922 25.0745Z" fill="#F9FAFB"/>
<path d="M128.137 18.7822C128.323 18.7725 128.323 18.7725 128.528 18.7822C128.58 18.8335 128.632 18.8847 128.685 18.9375C128.921 18.9567 129.15 18.9666 129.385 18.9697C129.455 18.9712 129.524 18.9727 129.595 18.9743C129.817 18.9789 130.039 18.9825 130.261 18.9861C130.411 18.9891 130.561 18.9921 130.711 18.9952C131.08 19.0027 131.449 19.0092 131.817 19.0152C131.817 19.0921 131.817 19.169 131.817 19.2482C130.654 19.2482 129.492 19.2482 128.294 19.2482C128.242 19.0944 128.19 18.9406 128.137 18.7822Z" fill="#111827"/>
<path d="M159.77 18.7058C159.796 18.7438 159.823 18.7818 159.85 18.8209C160.081 18.9972 160.314 18.9677 160.593 18.9616C160.65 18.9613 160.707 18.9609 160.765 18.9606C160.947 18.9593 161.129 18.9564 161.311 18.9534C161.435 18.9522 161.558 18.9512 161.681 18.9502C161.984 18.9477 162.286 18.9436 162.588 18.9388C162.627 19.0926 162.627 19.0926 162.667 19.2496C161.633 19.2496 160.6 19.2496 159.535 19.2496C159.612 19.0701 159.69 18.8907 159.77 18.7058Z" fill="#111827"/>
<path d="M196.572 19.0159C196.611 19.1313 196.611 19.1313 196.651 19.249C195.617 19.249 194.583 19.249 193.519 19.249C193.799 18.9708 193.961 18.9785 194.333 18.9735C194.39 18.9719 194.446 18.9703 194.504 18.9687C194.624 18.9656 194.743 18.963 194.862 18.9609C195.045 18.9577 195.227 18.9528 195.41 18.9477C195.526 18.9448 195.642 18.9421 195.757 18.9395C195.812 18.9381 195.867 18.9367 195.923 18.9353C196.163 18.9315 196.342 18.9398 196.572 19.0159Z" fill="#111827"/>
<path d="M168.774 19.0166C169.756 19.0166 170.738 19.0166 171.75 19.0166C171.75 19.0935 171.75 19.1704 171.75 19.2496C170.742 19.2496 169.734 19.2496 168.696 19.2496C168.722 19.1727 168.747 19.0958 168.774 19.0166Z" fill="#111827"/>
</svg>
