<svg width="148" height="40" viewBox="0 0 148 40" fill="none" xmlns="http://www.w3.org/2000/svg">
<path d="M0 10H4.71761V29.6106H0V10Z" fill="#111827"/>
<path d="M38.5075 21.7999V26.3375C37.7338 27.0806 36.957 27.4783 36.2076 27.4783C35.0608 27.4783 34.2294 26.6295 34.2294 25.4355C34.2294 24.1347 35.0318 23.3396 37.4657 22.2791L38.5075 21.7999ZM143.926 12.2039C142.998 15.2089 141.563 16.6163 139.407 16.6163H136.901V12.2039H136.289C135.463 14.7297 134.031 16.2989 131.954 16.962V17.5969H133.898V25.9273C133.898 28.484 134.692 29.4928 136.715 29.4928C138.233 29.4928 139.218 28.8016 140.071 27.1803L140.178 27.0201L139.699 26.7534C139.111 27.4474 138.711 27.7127 138.205 27.7127C137.248 27.7127 136.901 27.0468 136.901 25.208V17.5969H141.534V25.9273C141.534 28.484 142.334 29.4928 144.351 29.4928C146.004 29.4928 147.12 28.6442 147.999 26.7534L147.548 26.5144C146.963 27.3405 146.432 27.7127 145.845 27.7127C144.886 27.7127 144.537 27.0468 144.537 25.208V17.5969H147.548V16.6163H144.537V12.2039H143.926ZM25.4037 20.1479V26.1943C25.4037 28.2183 25.0304 28.6442 23.1889 28.6959V29.2552H30.9124V28.6959C28.9961 28.6161 28.7004 28.2437 28.7004 25.7938V13.5229C28.7004 11.4272 29.0234 11.0815 30.9124 10.9747V10.4185H23.1889V10.9747C25.0016 11.0563 25.4037 11.4537 25.4037 13.259V18.9906H17.4378V13.3911C17.4378 11.4807 17.8644 11.0282 19.6483 10.9747V10.4185H11.9277V10.9747C13.7132 11.0282 14.1382 11.506 14.1382 13.3911V25.8205C14.1382 28.2437 13.8184 28.6442 11.9277 28.6959V29.2552H19.6483V28.6959C17.8098 28.7496 17.4378 28.3238 17.4378 26.1662V20.1479H25.4037ZM38.5078 27.8715C38.5078 29.0965 38.6692 29.2552 39.917 29.2552H43.1275V28.7496C41.8017 28.7229 41.5109 28.2706 41.5109 26.0594V20.3868C41.5109 17.2415 40.4215 16.2049 37.1172 16.2049C34.0452 16.2049 31.7872 17.5856 31.7872 19.4625C31.7872 20.3082 32.3722 20.8939 33.1934 20.8939C34.1215 20.8939 34.5481 20.3334 34.525 19.1744C34.4715 17.7176 35.0842 17.0293 36.4228 17.0293C37.9199 17.0293 38.5078 17.8511 38.5078 19.9906V20.8939C32.9818 22.8368 31.2581 24.1432 31.2581 26.3261C31.2581 28.2255 32.6099 29.6387 34.4442 29.6387C35.7267 29.6387 36.3161 29.293 38.5078 27.2928V27.8715ZM48.2457 19.971C49.3382 18.7488 50.2214 18.2179 51.181 18.2179C52.5153 18.2179 52.9434 19.0159 52.9434 21.3224V26.2306C52.9434 28.1453 52.648 28.6243 51.3669 28.7311V29.2552H57.5818V28.7496C56.3209 28.7496 55.9436 28.1906 55.9436 26.3528V21.0809C55.9436 17.715 54.9075 16.2007 52.5689 16.2007C51.0484 16.2007 49.8754 16.945 48.2457 18.9906V16.2288H47.6624L43.4473 17.7415L43.6073 18.1927C43.8696 18.1139 44.0036 18.0858 44.1349 18.0858C44.982 18.0858 45.2486 18.6448 45.2486 20.3082V26.4863C45.2486 28.1906 44.8767 28.7229 43.6331 28.7496V29.2552H49.8467V28.7496C48.5917 28.7496 48.2457 28.1906 48.2457 26.1929V19.971ZM70.0015 10.4185H69.3905L65.1382 12.0099L65.2953 12.461L65.4843 12.4077C65.67 12.3289 65.7506 12.3289 65.9364 12.3289C66.7594 12.3289 66.9987 12.8317 66.9987 14.5836V17.2372C65.9597 16.4407 65.2953 16.2007 64.1786 16.2007C60.9047 16.2007 58.4091 19.2573 58.4091 23.2694C58.4091 27.0425 60.3759 29.6416 63.2464 29.6416C64.6283 29.6416 65.1656 29.376 66.9987 27.8124C66.9987 29.1484 67.1324 29.2552 68.4051 29.2552H71.6283V28.7496C70.2149 28.7496 70.0015 28.3519 70.0015 25.8008V10.4185ZM66.9987 26.7559C65.8832 27.4951 65.5087 27.655 64.8701 27.655C62.9826 27.655 61.6483 25.3992 61.6483 22.1089C61.6483 19.0804 62.6354 17.2105 64.206 17.2105C66.0949 17.2105 66.9987 18.5733 66.9987 21.3927V26.7559ZM82.5566 24.5997C81.6243 26.3222 80.5581 27.0903 79.0134 27.0903C76.6125 27.0903 75.042 24.9441 74.7998 21.3927H83.0091C82.8232 18.0154 81.1173 16.2035 78.1848 16.2035C74.7207 16.2035 72.2666 19.0832 72.2666 23.1683C72.2666 27.0369 74.4527 29.6416 77.7568 29.6416C80.4514 29.6416 82.0524 28.1806 83.0091 24.7852L82.5566 24.5997ZM74.8275 20.4428C75.1197 18.2809 75.9728 17.2682 77.4643 17.2682C78.9025 17.2682 79.7049 18.3358 79.8404 20.4428H74.8275ZM88.2772 10.4185H87.6663L83.3579 12.0116L83.4934 12.461C83.9154 12.3823 84.0509 12.3571 84.2398 12.3571C84.9848 12.3571 85.2742 12.992 85.2742 14.5598V26.6127C85.2742 28.1806 84.8752 28.7382 83.6505 28.7382V29.2552H89.9186V28.7496C88.6822 28.7496 88.2772 28.217 88.2772 26.6212V10.4185ZM98.0354 16.3609C97.7963 16.5461 97.635 16.6248 97.3957 16.6248C97.1825 16.6248 97.0471 16.5995 96.3294 16.414C95.7688 16.2538 95.3986 16.2007 94.9734 16.2007C92.5051 16.2007 90.8364 17.712 90.8364 20.0005C90.8364 21.6482 91.3364 22.314 93.8553 23.9353C96.7272 25.798 96.7833 25.8514 96.7833 26.8616C96.7748 27.8601 95.9475 28.6047 94.8582 28.6047C93.0196 28.6047 92.0122 27.488 91.3452 24.7782H90.8956V29.4027H91.4516C91.7168 29.2425 91.8768 29.1891 92.0629 29.1891C92.1981 29.1891 92.3306 29.2157 92.9157 29.3492C93.8193 29.5882 94.2472 29.6416 94.8323 29.6416C97.5038 29.6416 99.4505 27.967 99.4505 25.6548C99.4505 23.9015 98.6768 22.9984 95.6939 21.2454C93.6477 20.0243 93.0338 19.4119 93.0338 18.5886C93.0338 17.7389 93.7802 17.181 94.9231 17.181C96.5414 17.181 97.3957 18.0844 97.985 20.5272H98.4995V16.3609H98.0354ZM104.474 10.4185H103.918L99.5746 11.9835L99.7633 12.461C99.9491 12.3823 100.138 12.3542 100.324 12.3542C101.21 12.3542 101.503 12.8852 101.503 14.5569V28.1524C103.546 29.2678 104.716 29.6387 106.289 29.6387C110.101 29.6387 112.915 26.5594 112.915 22.3649C112.915 18.8093 111.004 16.2035 108.394 16.2035C106.874 16.2035 105.73 16.9213 104.474 18.6758V10.4185ZM104.474 19.6312C105.249 18.8611 105.89 18.5438 106.69 18.5438C108.609 18.5438 109.915 20.5863 109.915 23.5336C109.915 26.5059 108.687 28.5766 106.874 28.5766C106.076 28.5766 105.433 28.2846 104.474 27.4613V19.6312ZM118.177 10.4185H117.564L113.261 12.0116L113.393 12.461C113.821 12.3823 113.951 12.3571 114.137 12.3571C114.885 12.3571 115.174 12.992 115.174 14.5598V26.6127C115.174 28.1778 114.778 28.734 113.556 28.734V29.2552H119.816V28.7496C118.581 28.7496 118.177 28.2183 118.177 26.6238V10.4185ZM127.656 27.873C127.656 29.0965 127.817 29.2552 129.067 29.2552H132.286V28.7496C130.927 28.7229 130.659 28.2706 130.659 26.0647V20.4036C130.659 17.243 129.57 16.2049 126.267 16.2049C123.193 16.2049 120.935 17.5884 120.935 19.4753C120.935 20.3249 121.522 20.9093 122.34 20.9093C123.268 20.9093 123.696 20.3502 123.672 19.1815C123.646 17.6938 124.209 17.0293 125.571 17.0293C127.068 17.0293 127.656 17.8807 127.656 20.0062V20.9093C122.104 22.8763 120.406 24.1517 120.406 26.3318C120.406 28.2255 121.761 29.6387 123.592 29.6387C124.876 29.6387 125.518 29.2652 127.656 27.2928V27.873ZM127.656 21.7902V26.3346C126.908 27.0792 126.105 27.4783 125.358 27.4783C124.209 27.4783 123.379 26.6281 123.379 25.4313C123.379 24.1291 124.18 23.3313 126.613 22.2678L127.656 21.7902Z" fill="#111827"/>
</svg>
